<?xml version="1.0" encoding="utf-8"?>
<!-- Generator: Adobe Illustrator 21.0.0, SVG Export Plug-In . SVG Version: 6.00 Build 0)  -->
<svg version="1.1" id="Layer_1" xmlns="http://www.w3.org/2000/svg" xmlns:xlink="http://www.w3.org/1999/xlink" x="0px" y="0px"
	 viewBox="0 0 400 400" style="enable-background:new 0 0 400 400;" xml:space="preserve">
<style type="text/css">
	.st0{fill:none;}
</style>
<g>
	<path d="M81.3,38l-3.8-3.9c0,1-0.1,1.5-0.2,2.1l3.8,3.8l-0.2,0.8l-3.8-3.8c-0.1,0.6-0.3,1-0.5,1.5l3.8,3.9l-0.4,0.6l-3.8-3.9
		c-0.3,0.4-0.4,0.8-0.8,1.1l3.7,3.8l-0.5,0.6l-3.7-3.9c-0.4,0.4-0.7,0.7-1.1,1l3.7,3.9l-0.6,0.4l-3.8-4c-0.3,0.3-0.8,0.6-1.2,0.8
		l3.8,4l-0.6,0.3l-3.9-4L70.1,44L74,48l-0.7,0.3l-3.9-4c-0.5,0.2-1,0.3-1.5,0.4l3.9,4.1l-0.7,0.3l-4.1-4.2c-0.5,0.1-1,0.3-1.5,0.3
		l4.2,4.3l-0.8,0.2l-4.2-4.3l-1.5,0.2l4.2,4.5l-0.8,0.1l-4.3-4.5c-0.6,0.1-1.1,0.1-1.7,0.1l4.3,4.5l-0.9,0.1l-4.4-4.5h-2l4.5,4.6h-1
		l-4.5-4.6h-1.9l6.6,6.8v1l-4.3-4.5v1.8l4.3,4.5v1l-4.3-4.5v1.7l4.3,4.5v1l-4.3-4.5v1.8l4.3,4.5v1l-4.3-4.3v1.8l4.5,4.8h-1l-4.4-4.6
		h-1.8l4.4,4.6h-1l-4.4-4.6h-1.8l4.4,4.6h-1l-4.4-4.6H49l4.3,4.6h-1L48,59.6h-1.7l4.4,4.6h-1l-4.4-4.6h-2l4.4,4.6h-1l-4.4-4.6h-1.8
		l4.3,4.6h-1l-4.4-4.6h-1.9l4.3,4.6h-1l-4.4-4.6h-1.9l4.3,4.6h-1l-4.4-4.6H32l4.3,4.6h-1L31,59.6h-1.7l4.3,4.6h-1l-4.4-4.6h-1.8
		l4.5,4.6h-1.1l-8.7-9v-12h6.7v-7.9l-6.7-6.9v-12h35c6.5,0,10.6,1.4,13.3,3.5c3.8,3,6.9,6.4,9.9,9.8l0.4,1.3l-4.1-4.4
		c0.4,0.9,1,2,1.2,3.1l3.9,4.1l0.2,1.2l-3.8-4l0.3,2l3.8,3.9V38z M55.8,17.1H21.9v10.8h6.7v15.9h-6.7v10.8h30.6V43.8h-6v-3h7.1
		c10.3,0,19-2.2,19-11.9C72.6,20.5,65.6,17.1,55.8,17.1z M49.7,34.1h-3.2v-6.2h3.2c3.6,0,4.8,0.9,4.8,2.9
		C54.6,32.7,53.5,34.1,49.7,34.1z"/>
	<path d="M143.9,61.8l-4.5-4.7v2.3l4.4,4.8h-1l-4.3-4.6h-1.9l4.3,4.6h-1l-4.4-4.6h-1.8l4.4,4.6h-1l-4.4-4.6h-1.8l4.3,4.6h-1
		l-4.4-4.6h-1.6l4.1,4.6h-1l-4.4-4.6h-1.8l4.3,4.6h-1l-4.4-4.6h-1.8l4.4,4.6h-1l-4.4-4.6h-1.8l4.4,4.6h-1l-4.4-4.6h-1.7l4.3,4.6h-1
		l-4.4-4.6h-1.7l4.4,4.6h-1l-4.4-4.6h-1.7l4.3,4.6h-1l-4.4-4.6h-1.8l4.3,4.6h-1l-4.4-4.6h-1.8l4.4,4.6h-1l-4.4-4.6h-1.7l4.3,4.6h-1
		l-4.4-4.6h-1.9l4.4,4.6h-1l-4.4-4.6h-1.7l4.3,4.6h-1l-4.4-4.6h-1.8l4.3,4.6h-1l-4.4-4.6h-1.5l4.4,4.6h-1l-4.4-4.6h-1.7l4.3,4.6h-1
		l-8.7-9.1V43.2h6.7v-7.8l-6.7-7v-12h50.1l9.3,9.6v1l-4.5-4.5v1.9l4.5,4.6v1l-4.5-4.5v2l4.5,4.6v1.1l-4.5-4.6v1.8l4.5,4.5v1.2
		l-4.5-4.6v2.1l4.5,4.6v1.1l-4.5-4.6v1.8l4.5,4.8h-1.1l-4.3-4.5h-2.2l7.5,7.8v1.1l-4.5-4.6v2.2l4.5,4.6V49l-4.5-4.6v2l4.5,4.5v1
		l-4.5-4.5v2l4.5,4.6v1l-4.5-4.5v2l4.5,4.6v1.1l-4.5-4.6V56l4.5,4.6V61.8z M134.1,54.6V36.4h-13.9v7.4h-10.4v-3.6h7.4v-8.8h-7.4
		v-3.6h10.4v5.4h13.9V17.1H85.2v10.8h6.7v15.9h-6.7v10.8H134.1z"/>
	<path d="M221.1,37.5h-1l-4.5-4.6h-2l4.4,4.6h-1l-4.5-4.6h-1.8l4.5,4.6h-1l-4.3-4.3V35l4.4,4.6v1l-4.4-4.5v1.7l4.4,4.5v1l-4.4-4.5
		v1.8l4.4,4.5v1l-4.4-4.5v1.9l4.4,4.5v1l-4.4-4.5v1.7l4.4,4.5v1l-4.4-4.5V49l4.4,4.5v1L210,50v1.6l4.4,4.4v1l-4.4-4.4v1.6l4.4,4.5v1
		l-4.4-4.6v1.5l4.4,4.6v1l-4.4-4.6v1.7l4.5,4.8h-1l-4.4-4.6h-1.9l4.3,4.6h-1l-4.4-4.6h-1.8l4.3,4.6h-1l-4.4-4.6h-1.8l4.3,4.6h-1
		l-4.4-4.6h-1.8l4.3,4.6h-1l-4.4-4.6h-1.8l4.3,4.6h-1l-4.4-4.6h-1.8l4.3,4.6h-1l-4.4-4.6H190l4.4,4.6h-1l-8.1-8.3L183,53v1l-4.3-4.4
		v1.6l4.3,4.5v1l-4.3-4.4V54l4.3,4.5v1l-4.3-4.5v1.7l4.3,4.5v1l-4.3-4.5v1.7l4.4,4.7h-1l-4.3-4.6h-2.2l4.4,4.6h-1l-4.4-4.6h-1.8
		l4.3,4.6h-1l-4.5-4.6h-2.1l4.3,4.6h-1l-4.4-4.6h-2.2l4.3,4.6h-1l-4.4-4.6H163l4.3,4.6h-1l-4.4-4.6h-1.9l4.3,4.6h-1l-4.4-4.6h-1.8
		l4.5,4.6h-1.1l-4.4-4.6h-2l4.4,4.6h-1l-8.7-9v-12h6.7v-7.6l-6.7-7.1v-12h29.6l8.7,8.9v-8.9h24.6l9.2,9.5v1l-4.4-4.5v1.8l4.4,4.5v1
		l-4.4-4.5V27l4.4,4.6v1l-4.4-4.5v1.7l4.4,4.6v1l-4.4-4.6v1.8L221.1,37.5z M211.3,27.9V17.1H188v10.8h4.1v6.5l-14-17.3h-28.5v10.8
		h6.6v15.9h-6.6v10.8h24V43.8h-4.9v-9.6l16.6,20.4h19.3V27.9H211.3z M182.8,52.9l-4.1-5.2v1L182.8,52.9z"/>
	<path d="M277.4,43.4h-0.9l-4.5-4.6h-1.7l4.4,4.6h-1l-4.4-4.6h-1.3l8.7,8.9l-0.1,0.9l-4.4-4.5c0,0.4-0.1,1-0.1,1.3l4.3,4.5l-0.2,0.9
		l-4.4-4.5c-0.1,0.4-0.3,0.8-0.4,1.1l4.4,4.5l-0.3,0.7l-4.5-4.5c-0.1,0.4-0.4,0.9-0.6,1.3l4.5,4.5l-0.4,0.7l-4.4-4.6
		c-0.1,0.3-0.5,0.8-0.8,1.3l4.4,4.6l-0.4,0.6l-4.4-4.5c-0.3,0.4-0.6,0.7-1,1.1l4.5,4.6l-0.6,0.5l-4.4-4.6l-0.8,0.8l4.4,4.6l-0.6,0.4
		l-4.4-4.6l-0.9,0.8l4.4,4.6l-0.6,0.4l-4.3-4.6c-0.3,0.3-0.6,0.4-1,0.7l4.4,4.6l-0.6,0.3l-4.4-4.6l-1.1,0.6l4.4,4.6l-0.7,0.3
		l-4.3-4.5l-1.3,0.5l4.4,4.6l-0.8,0.2l-4.3-4.5l-1.5,0.4l4.4,4.6l-0.7,0.3l-4.5-4.6c-0.4,0.1-1,0.3-1.5,0.3l4.4,4.6l-0.8,0.1
		l-4.4-4.6l-1.6,0.2l4.4,4.6l-0.9,0.1l-4.4-4.6c-0.6,0.1-1.1,0.1-1.7,0.1l4.3,4.6h-1l-4.5-4.6c-0.6,0-1.3-0.1-1.7-0.1l4.2,4.5
		l-1.1-0.1l-4.3-4.5l-1.8-0.3l4.2,4.3l-1.3-0.3l-4.1-4.2l-2-0.6l3.6,3.8l-1.3-0.4l-3.7-3.8c-1.2-0.4-1.8-0.7-2.9-1.3l3.2,3.2l-1.8-1
		C231.4,53,228.4,49,226.9,46c-1.6-2.9-2.6-6.5-2.6-10.5c0-11.8,8.7-19.7,20.5-19.7c4.9,0,8.3,1.5,10.4,3.2v-2.6h12.9l9.3,9.6v1
		l-4.4-4.6V24l4.4,4.6v1l-4.4-4.5v1.7l4.4,4.6v1l-4.4-4.5v1.7l4.4,4.5v1.1l-4.4-4.4v1.8l4.4,4.5v1.1l-4.4-4.5v1.8l4.4,4.5v1
		l-4.4-4.5v2L277.4,43.4z M256.2,38.2c-0.8,4.8-2.2,6.2-5.5,6.2c-3.8,0-5.5-2.5-5.5-8.8c0-5.8,2.2-8.1,5.3-8.1c3.6,0,5,2.2,5.9,6.9
		h11.2V17.1h-11.8v3.5c-2.2-2.6-6.4-4.1-11-4.1c-11.2,0-19.8,8.1-19.8,19.1c0,12.4,9.1,19.9,23.2,19.9c12.8,0,19.1-7.7,19.8-15.6
		L256.2,38.2z M250.4,39.6v1.7l2.1,2.1c0.3-0.1,0.8-0.3,1-0.6L250.4,39.6z M250.7,37.2l-0.3,1.5l3.6,3.6c0.3-0.3,0.4-0.6,0.6-1.1
		L250.7,37.2z M250.5,42.4l0.1,1.3c0.3,0,0.7,0,1.1-0.1L250.5,42.4z M251.3,35.2c-0.2,0.4-0.3,0.8-0.4,1.2l3.9,4.1
		c0.1-0.4,0.3-1,0.3-1.4L251.3,35.2z M256,37.3l-3.5-3.6c-0.3,0.3-0.5,0.6-0.8,0.9l3.6,3.7l0.2-1L256,37.3z M258,37.5l-2.3-2.4
		l-0.2-0.8l-1.4-1.3c-0.3,0.1-0.6,0.2-1,0.3l4.1,4.1L258,37.5z"/>
	<path d="M324,64.2h-1l-4.4-4.6h-1.7l4.5,4.6h-1l-4.4-4.6h-1.8l4.5,4.6h-1l-4.4-4.6h-1.7l4.5,4.6h-1l-4.4-4.6H309l4.4,4.6h-1
		l-4.4-4.6h-1.8l4.4,4.6h-1l-4.4-4.6h-1.8l4.4,4.6h-1l-4.4-4.6h-1.8l4.4,4.6h-1l-4.4-4.6h-1.8l4.4,4.6h-1l-4.4-4.6h-1.8l4.4,4.6h-1
		l-4.4-4.6h-1.8l4.4,4.6h-1l-4.4-4.6h-1.6l4.5,4.6h-1l-4.4-4.6h-1.7l4.3,4.6h-0.9l-8.7-9v-12h6.7v-7.6l-6.7-7.1v-12h32.4l9.3,9.8v1
		l-4.5-4.6v1.8l4.5,4.5v1l-4.5-4.5V27l4.5,4.7v1l-4.5-4.7v1.7l4.5,4.8v1l-4.5-4.8v1.9l4.5,4.8h-1l-4.3-4.6H317l4.5,4.6h-1l-4.5-4.6
		h-1.6l4.5,4.6h-1l-4.5-4.6v1.5L318,39v1l-4.5-4.6v1.7l4.5,4.6v1l-4.5-4.5v1.5l4.5,4.6v1l-4.5-4.5v1.5L324,53v1l-4.5-4.6v1.7
		l4.5,4.6v1l-4.5-4.6v1.7l4.5,4.6v1l-4.5-4.6v1.7l4.5,4.6v1l-4.5-4.6v1.9L324,64.2z M314.1,54.6V43.8h-6.6V27.9h6.6V17.1h-31.2v10.8
		h6.6v15.9h-6.6v10.8H314.1z"/>
	<path d="M388.2,64.2h-1l-4.3-4.6h-1.8l4.3,4.6h-1l-4.3-4.6h-2l4.3,4.6h-1l-4.3-4.6h-1.8l4.3,4.6h-1l-4.3-4.6h-1.8l4.3,4.6h-1
		l-4.3-4.6H370l4.3,4.6h-1l-4.3-4.6h-1.8l4.3,4.6h-1l-4.3-4.6h-1.8l4.3,4.6h-1l-4.3-4.6h-1.8l4.3,4.6h-1l-4.3-4.6H359l4.3,4.6h-1
		l-4.3-4.6h-1.8l4.3,4.6h-1l-4.3-4.6h-1.8l4.3,4.6h-1l-4.3-4.6h-1.8l4.3,4.6h-1l-4.3-4.6h-1.8l4.3,4.6h-1l-4.3-4.6h-1.8l4.3,4.6h-1
		l-4.3-4.6h-1.8l4.3,4.6h-1l-4.3-4.6h-1.8l4.3,4.6h-1l-4.3-4.6h-1.8l4.3,4.6h-1l-4.3-4.6h-1.8l4.3,4.6h-1l-8.7-9v-12h6.6v-7.8
		l-6.6-6.9v-12h31.8l9.2,9.5v1l-4.3-4.5v1.8l4.3,4.5v1l-4.3-4.5v1.8l4.3,4.5v1l-4.3-4.5v1.7l4.3,4.5V35h8.8l9.3,9.7v1l-4.3-4.5v1.7
		l4.3,4.5v1l-4.3-4.5v1.7l4.3,4.5v1l-4.3-4.5v2l4.3,4.4v1l-4.3-4.5v1.7l4.3,4.5v1l-4.3-4.4v1.7l4.3,4.5v1l-4.3-4.5v1.7l4.3,4.5v1
		l-4.3-4.5v1.9L388.2,64.2z M378.4,54.6v-19h-12.5v8.1h-11.4V27.9h6V17.1h-30.6v10.8h6.6v15.9h-6.6v10.8H378.4z M365.1,38.5v-1.8
		l-3.6-3.8h-1.8L365.1,38.5z M365.1,41.2v-1.7l-5.3-5.5v1.8L365.1,41.2z M365.1,43.1v-0.9l-5.3-5.5v1.7l4.5,4.7H365.1z M363.3,43.1
		l-3.5-3.8v2.2l1.6,1.6H363.3z M360.5,43.1l-0.7-0.7v0.7H360.5z M366.9,35l-2.1-2.2h-2.3l2.6,2.7V35H366.9z M369.8,35l-4-4.1v1.9
		l2.2,2.2H369.8z"/>
</g>
<line class="st0" x1="102.9" y1="74" x2="102.9" y2="87.9"/>
<polygon points="111.1,75 111.1,86.9 19,86.9 "/>
<polygon points="298.3,75 298.3,86.9 390.4,86.9 "/>
<g>
	<path d="M121.5,87.8c-3.4,0-4.6-1-7-1c-1.1,0-1.5,0.5-1.5,0.7l-0.4,0v-5.8h0.4c0.5,1.4,2.7,5.8,8.2,5.8c2.6,0,3.6-0.8,3.6-1.7
		c0-3.3-12.3-2.9-12.3-7.7c0-2.3,3-4.2,8.2-4.2c3.1,0,4,0.7,5.6,0.7c1.5,0,2-0.5,2-0.8h0.4v5h-0.4c-0.3-2.1-3-4.7-7-4.7
		c-1.5,0-2.8,0.5-2.8,1.5c0,3.6,11.8,2.2,11.8,7.7C130.2,85.8,126.6,87.8,121.5,87.8z"/>
	<path d="M142.9,87.7c-6,0-10.9-3.1-10.9-6.8c0-3.8,4.9-6.9,10.9-6.9c6,0,10.9,3.1,10.9,6.9C153.8,84.6,148.9,87.7,142.9,87.7z
		 M142.9,74.2c-2.2,0-3.1,0.6-3.1,6.6c0,6.1,0.9,6.6,3.2,6.6c2.2,0,3.2-0.3,3.2-6.6C146.1,74.3,144.8,74.2,142.9,74.2z"/>
	<path d="M174.4,79.4H174L174,79c-0.2-2-3-4.3-7-4.3h-1.4v5.6h1c1.9,0,3.9-0.9,3.9-2.4v-0.3h0.5v6h-0.5v-0.4c0-1.5-1.7-2.6-3.8-2.6
		h-1.1v5.3c0,0.8,0.4,1.2,1.5,1.2h0.9v0.3h-12.9v-0.3h1.1c1.2,0,1.8-0.2,1.8-1.2V75.7c0-0.9-0.4-1.1-1.5-1.1h-1.2v-0.3h19.1V79.4z"
		/>
	<path d="M198.5,79.9h-0.4v-0.6c0-1.9-3.4-4.7-6.1-4.7h-0.4V86c0,0.6,0.5,1,1.1,1h1.6v0.3h-13.7v-0.3h2.1c0.6,0,1.1-0.5,1.1-1V74.6
		h-0.3c-2.3,0-6.3,2.6-6.3,4.8v0.5h-0.4v-5.5h21.7V79.9z"/>
	<path d="M233,74.7h-0.4c-1.8,0-3.3,1.2-4.5,3.7l-4.4,9h-4.3l-4-8.8l-4.1,8.8h-4l-5.4-11.7c-0.3-0.6-1-1-1.9-1h-0.7v-0.3h11.5v0.3
		h-0.4c-0.4,0-0.7,0.1-0.7,0.5c0,0.1,0,0.2,0,0.3l3.3,7.3l2.2-4.7l-1.1-2.5c-0.2-0.5-0.7-0.9-1.4-0.9h-0.4v-0.3h11.2v0.3H223
		c-0.5,0-0.9,0.2-0.9,0.6c0,0.1,0,0.2,0.1,0.3l3.1,7.5l2.4-4.8c0.3-0.6,0.4-1.2,0.4-1.6c0-1.4-1.2-2-2.2-2h-0.8v-0.3h7.9V74.7z"/>
	<path d="M252.5,87.3h-13.8v-0.3h1.6c0.7,0,1.1-0.3,1.1-0.7c0-0.1,0-0.3-0.1-0.4l-2.1-4h-5.6l-0.9,1.9c-0.2,0.5-0.3,0.9-0.3,1.3
		c0,1.2,0.9,2,2.8,2h0.9v0.3h-9v-0.3h0.5c2.2,0,3.7-1.9,4.6-3.6l4.6-9.1h6.7l6.5,12c0.2,0.5,0.8,0.6,1.5,0.6h1.1V87.3z M239,81.6
		l-2.7-5.1l-2.6,5.1H239z"/>
	<path d="M276.4,83.3c0,3.3-1.2,4.2-5.2,4.2c-3.2,0-5-1.3-5-2.7c0-0.8,0.1-1.4,0.1-2.5c0-1.2-0.6-1.7-2.3-1.7h-0.9v5.4
		c0,0.6,0.5,0.9,1.2,0.9h1.2v0.3h-12.8v-0.3h1.1c1,0,1.4-0.3,1.4-0.9V75.7c0-0.8-0.5-1-1.3-1h-1.3v-0.3h12.5c6.8,0,9,1.3,9,3.1
		c0,1.8-2.3,2.8-6.3,3v0.1c4,0.3,6.1,0.8,6.1,2.9v2c0,0.6,0.3,0.8,0.8,0.8c0.6,0,1.3-0.5,1.3-3H276.4z M263.7,74.6h-0.7v5.8h0.7
		c2.2,0,2.8-0.3,2.8-2.9C266.6,74.8,265.5,74.6,263.7,74.6z"/>
	<path d="M297,87.3h-21V87h1.8c1.1,0,1.8-0.3,1.8-1.3v-9.9c0-0.9-0.4-1.1-1.5-1.1h-1.2v-0.3H296v5h-0.4l0-0.4c-0.3-2-3.1-4.3-7-4.3
		h-1.1v5.6h0.7c1.8,0,3.9-1.2,3.9-2.7V77h0.5v7h-0.5v-0.5c0-1.5-1.7-3-3.8-3h-0.7v6c0,0.2,0.4,0.5,1.1,0.5h1.8
		c2.9,0,6.1-3.3,6.3-4.9l0-0.6h0.3V87.3z"/>
</g>
<g>
	<path d="M60.8,118.8h-2.5v-0.9h6v0.9h-2.5v7.2h-1.1V118.8z"/>
	<path d="M65.1,117.5h1.1v3.6h0c0.2-0.3,0.4-0.6,0.8-0.7c0.3-0.2,0.7-0.3,1.1-0.3c0.8,0,2,0.5,2,2.5v3.5H69v-3.3
		c0-0.9-0.3-1.7-1.3-1.7c-0.7,0-1.2,0.5-1.4,1.1c-0.1,0.1-0.1,0.3-0.1,0.5v3.5h-1.1V117.5z"/>
	<path d="M72.9,118.6c0,0.4-0.3,0.6-0.7,0.6c-0.4,0-0.6-0.3-0.6-0.6c0-0.4,0.3-0.7,0.7-0.7C72.7,117.9,72.9,118.2,72.9,118.6z
		 M71.7,126v-5.8h1.1v5.8H71.7z"/>
	<path d="M74.4,124.9c0.3,0.2,0.9,0.4,1.4,0.4c0.8,0,1.1-0.4,1.1-0.9c0-0.5-0.3-0.8-1.1-1.1c-1-0.4-1.5-0.9-1.5-1.6
		c0-0.9,0.8-1.7,2-1.7c0.6,0,1.1,0.2,1.4,0.4l-0.3,0.8c-0.2-0.1-0.6-0.3-1.2-0.3c-0.6,0-1,0.4-1,0.8c0,0.5,0.3,0.7,1.1,1
		c1,0.4,1.5,0.9,1.5,1.8c0,1-0.8,1.7-2.2,1.7c-0.6,0-1.2-0.2-1.6-0.4L74.4,124.9z"/>
	<path d="M83,118.6c0,0.4-0.3,0.6-0.7,0.6c-0.4,0-0.6-0.3-0.6-0.6c0-0.4,0.3-0.7,0.7-0.7C82.8,117.9,83,118.2,83,118.6z M81.9,126
		v-5.8h1.1v5.8H81.9z"/>
	<path d="M84.5,124.9c0.3,0.2,0.9,0.4,1.4,0.4c0.8,0,1.1-0.4,1.1-0.9c0-0.5-0.3-0.8-1.1-1.1c-1-0.4-1.5-0.9-1.5-1.6
		c0-0.9,0.8-1.7,2-1.7c0.6,0,1.1,0.2,1.4,0.4l-0.3,0.8c-0.2-0.1-0.6-0.3-1.2-0.3c-0.6,0-1,0.4-1,0.8c0,0.5,0.3,0.7,1.1,1
		c1,0.4,1.5,0.9,1.5,1.8c0,1-0.8,1.7-2.2,1.7c-0.6,0-1.2-0.2-1.6-0.4L84.5,124.9z"/>
	<path d="M95.2,126l-0.1-0.7h0c-0.3,0.5-0.9,0.9-1.8,0.9c-1.2,0-1.8-0.8-1.8-1.7c0-1.4,1.2-2.2,3.5-2.2v-0.1c0-0.5-0.1-1.3-1.3-1.3
		c-0.5,0-1.1,0.2-1.5,0.4l-0.2-0.7c0.5-0.3,1.2-0.5,1.9-0.5c1.8,0,2.2,1.2,2.2,2.4v2.2c0,0.5,0,1,0.1,1.4H95.2z M95,123
		c-1.2,0-2.5,0.2-2.5,1.3c0,0.7,0.5,1,1,1c0.8,0,1.2-0.5,1.4-1c0-0.1,0.1-0.2,0.1-0.3V123z"/>
	<path d="M104.4,125.8c-0.3,0.1-0.9,0.3-1.7,0.3c-1.8,0-2.9-1.2-2.9-3c0-1.8,1.2-3.1,3.1-3.1c0.6,0,1.2,0.2,1.5,0.3l-0.2,0.8
		c-0.3-0.1-0.6-0.3-1.2-0.3c-1.3,0-2.1,1-2.1,2.2c0,1.3,0.9,2.2,2,2.2c0.6,0,1-0.2,1.3-0.3L104.4,125.8z"/>
	<path d="M110.8,123c0,2.1-1.5,3.1-2.9,3.1c-1.6,0-2.8-1.2-2.8-3c0-1.9,1.3-3.1,2.9-3.1C109.7,120.1,110.8,121.3,110.8,123z
		 M106.2,123.1c0,1.3,0.7,2.2,1.8,2.2c1,0,1.8-0.9,1.8-2.3c0-1-0.5-2.2-1.7-2.2C106.8,120.9,106.2,122,106.2,123.1z"/>
	<path d="M112.2,121.8c0-0.6,0-1.1,0-1.6h0.9l0,0.9h0c0.3-0.6,0.9-1.1,1.8-1.1c0.8,0,1.4,0.5,1.6,1.2h0c0.2-0.3,0.4-0.6,0.6-0.8
		c0.3-0.3,0.7-0.4,1.3-0.4c0.8,0,1.9,0.5,1.9,2.5v3.4h-1v-3.3c0-1.1-0.4-1.8-1.3-1.8c-0.6,0-1.1,0.4-1.2,1c0,0.1-0.1,0.3-0.1,0.5
		v3.6h-1v-3.5c0-0.9-0.4-1.6-1.2-1.6c-0.7,0-1.1,0.5-1.3,1.1c-0.1,0.2-0.1,0.3-0.1,0.5v3.5h-1V121.8z"/>
	<path d="M122.2,122.1c0-0.7,0-1.3,0-1.9h0.9l0,1h0c0.4-0.7,1.1-1.1,2.1-1.1c1.4,0,2.5,1.2,2.5,3c0,2.1-1.3,3.1-2.6,3.1
		c-0.8,0-1.4-0.3-1.8-0.9h0v3.2h-1V122.1z M123.2,123.6c0,0.2,0,0.3,0,0.4c0.2,0.7,0.8,1.2,1.6,1.2c1.1,0,1.8-0.9,1.8-2.2
		c0-1.2-0.6-2.2-1.7-2.2c-0.7,0-1.4,0.5-1.6,1.3c0,0.1-0.1,0.3-0.1,0.4V123.6z"/>
	<path d="M132.2,126l-0.1-0.7h0c-0.3,0.5-0.9,0.9-1.8,0.9c-1.2,0-1.8-0.8-1.8-1.7c0-1.4,1.2-2.2,3.5-2.2v-0.1c0-0.5-0.1-1.3-1.3-1.3
		c-0.5,0-1.1,0.2-1.5,0.4l-0.2-0.7c0.5-0.3,1.2-0.5,1.9-0.5c1.8,0,2.2,1.2,2.2,2.4v2.2c0,0.5,0,1,0.1,1.4H132.2z M132.1,123
		c-1.2,0-2.5,0.2-2.5,1.3c0,0.7,0.5,1,1,1c0.8,0,1.2-0.5,1.4-1c0-0.1,0.1-0.2,0.1-0.3V123z"/>
	<path d="M138.9,125.8c-0.3,0.1-0.9,0.3-1.7,0.3c-1.8,0-2.9-1.2-2.9-3c0-1.8,1.2-3.1,3.1-3.1c0.6,0,1.2,0.2,1.5,0.3l-0.2,0.8
		c-0.3-0.1-0.6-0.3-1.2-0.3c-1.3,0-2.1,1-2.1,2.2c0,1.3,0.9,2.2,2,2.2c0.6,0,1-0.2,1.3-0.3L138.9,125.8z"/>
	<path d="M141.6,118.5v1.7h1.5v0.8h-1.5v3.1c0,0.7,0.2,1.1,0.8,1.1c0.3,0,0.5,0,0.6-0.1l0,0.8c-0.2,0.1-0.5,0.1-0.9,0.1
		c-0.5,0-0.9-0.2-1.1-0.4c-0.3-0.3-0.4-0.8-0.4-1.5V121h-0.9v-0.8h0.9v-1.4L141.6,118.5z"/>
	<path d="M147.3,120.2l0.8,3c0.2,0.6,0.3,1.2,0.4,1.8h0c0.1-0.6,0.3-1.2,0.5-1.8l0.9-3h0.9l0.9,2.9c0.2,0.7,0.4,1.3,0.5,1.9h0
		c0.1-0.6,0.3-1.2,0.4-1.9l0.8-2.9h1l-1.9,5.8h-1l-0.9-2.8c-0.2-0.6-0.4-1.2-0.5-1.9h0c-0.1,0.7-0.3,1.3-0.5,1.9l-0.9,2.8h-1
		l-1.8-5.8H147.3z"/>
	<path d="M156.1,123.3c0,1.4,0.9,2,2,2c0.8,0,1.2-0.1,1.6-0.3l0.2,0.8c-0.4,0.2-1,0.4-1.9,0.4c-1.8,0-2.9-1.2-2.9-2.9s1-3.1,2.7-3.1
		c1.9,0,2.4,1.7,2.4,2.7c0,0.2,0,0.4,0,0.5H156.1z M159.2,122.5c0-0.7-0.3-1.7-1.5-1.7c-1.1,0-1.5,1-1.6,1.7H159.2z"/>
	<path d="M161.5,126c0-0.4,0-1,0-1.5v-7h1v3.6h0c0.4-0.6,1-1.1,2-1.1c1.4,0,2.5,1.2,2.4,3c0,2.1-1.3,3.1-2.6,3.1
		c-0.8,0-1.5-0.3-1.9-1.1h0l0,1H161.5z M162.6,123.7c0,0.1,0,0.3,0,0.4c0.2,0.7,0.8,1.2,1.6,1.2c1.1,0,1.8-0.9,1.8-2.2
		c0-1.2-0.6-2.2-1.7-2.2c-0.7,0-1.4,0.5-1.6,1.3c0,0.1-0.1,0.3-0.1,0.4V123.7z"/>
	<path d="M174.2,126l-0.1-0.7h0c-0.3,0.5-0.9,0.9-1.8,0.9c-1.2,0-1.8-0.8-1.8-1.7c0-1.4,1.2-2.2,3.5-2.2v-0.1c0-0.5-0.1-1.3-1.3-1.3
		c-0.5,0-1.1,0.2-1.5,0.4l-0.2-0.7c0.5-0.3,1.2-0.5,1.9-0.5c1.8,0,2.2,1.2,2.2,2.4v2.2c0,0.5,0,1,0.1,1.4H174.2z M174,123
		c-1.2,0-2.5,0.2-2.5,1.3c0,0.7,0.5,1,1,1c0.8,0,1.2-0.5,1.4-1c0-0.1,0.1-0.2,0.1-0.3V123z"/>
	<path d="M176.7,122.1c0-0.7,0-1.3,0-1.9h0.9l0,1h0c0.4-0.7,1.1-1.1,2.1-1.1c1.4,0,2.5,1.2,2.5,3c0,2.1-1.3,3.1-2.6,3.1
		c-0.8,0-1.4-0.3-1.8-0.9h0v3.2h-1V122.1z M177.8,123.6c0,0.2,0,0.3,0,0.4c0.2,0.7,0.8,1.2,1.6,1.2c1.1,0,1.8-0.9,1.8-2.2
		c0-1.2-0.6-2.2-1.7-2.2c-0.7,0-1.4,0.5-1.6,1.3c0,0.1-0.1,0.3-0.1,0.4V123.6z"/>
	<path d="M183.6,122.1c0-0.7,0-1.3,0-1.9h0.9l0,1h0c0.4-0.7,1.1-1.1,2.1-1.1c1.4,0,2.5,1.2,2.5,3c0,2.1-1.3,3.1-2.6,3.1
		c-0.8,0-1.4-0.3-1.8-0.9h0v3.2h-1V122.1z M184.6,123.6c0,0.2,0,0.3,0,0.4c0.2,0.7,0.8,1.2,1.6,1.2c1.1,0,1.8-0.9,1.8-2.2
		c0-1.2-0.6-2.2-1.7-2.2c-0.7,0-1.4,0.5-1.6,1.3c0,0.1-0.1,0.3-0.1,0.4V123.6z"/>
	<path d="M190.4,117.5h1.1v8.5h-1.1V117.5z"/>
	<path d="M194.4,118.6c0,0.4-0.3,0.6-0.7,0.6c-0.4,0-0.6-0.3-0.6-0.6c0-0.4,0.3-0.7,0.7-0.7C194.1,117.9,194.4,118.2,194.4,118.6z
		 M193.2,126v-5.8h1.1v5.8H193.2z"/>
	<path d="M200.2,125.8c-0.3,0.1-0.9,0.3-1.7,0.3c-1.8,0-2.9-1.2-2.9-3c0-1.8,1.2-3.1,3.1-3.1c0.6,0,1.2,0.2,1.5,0.3l-0.2,0.8
		c-0.3-0.1-0.6-0.3-1.2-0.3c-1.3,0-2.1,1-2.1,2.2c0,1.3,0.9,2.2,2,2.2c0.6,0,1-0.2,1.3-0.3L200.2,125.8z"/>
	<path d="M204.6,126l-0.1-0.7h0c-0.3,0.5-0.9,0.9-1.8,0.9c-1.2,0-1.8-0.8-1.8-1.7c0-1.4,1.2-2.2,3.5-2.2v-0.1c0-0.5-0.1-1.3-1.3-1.3
		c-0.5,0-1.1,0.2-1.5,0.4l-0.2-0.7c0.5-0.3,1.2-0.5,1.9-0.5c1.8,0,2.2,1.2,2.2,2.4v2.2c0,0.5,0,1,0.1,1.4H204.6z M204.5,123
		c-1.2,0-2.5,0.2-2.5,1.3c0,0.7,0.5,1,1,1c0.8,0,1.2-0.5,1.4-1c0-0.1,0.1-0.2,0.1-0.3V123z"/>
	<path d="M208.4,118.5v1.7h1.5v0.8h-1.5v3.1c0,0.7,0.2,1.1,0.8,1.1c0.3,0,0.5,0,0.6-0.1l0,0.8c-0.2,0.1-0.5,0.1-0.9,0.1
		c-0.5,0-0.9-0.2-1.1-0.4c-0.3-0.3-0.4-0.8-0.4-1.5V121h-0.9v-0.8h0.9v-1.4L208.4,118.5z"/>
	<path d="M212.3,118.6c0,0.4-0.3,0.6-0.7,0.6c-0.4,0-0.6-0.3-0.6-0.6c0-0.4,0.3-0.7,0.7-0.7C212,117.9,212.3,118.2,212.3,118.6z
		 M211.1,126v-5.8h1.1v5.8H211.1z"/>
	<path d="M219.2,123c0,2.1-1.5,3.1-2.9,3.1c-1.6,0-2.8-1.2-2.8-3c0-1.9,1.3-3.1,2.9-3.1C218,120.1,219.2,121.3,219.2,123z
		 M214.6,123.1c0,1.3,0.7,2.2,1.8,2.2c1,0,1.8-0.9,1.8-2.3c0-1-0.5-2.2-1.7-2.2C215.1,120.9,214.6,122,214.6,123.1z"/>
	<path d="M220.5,121.8c0-0.6,0-1.1,0-1.6h0.9l0.1,1h0c0.3-0.6,1-1.1,1.9-1.1c0.8,0,2.1,0.5,2.1,2.5v3.5h-1.1v-3.3
		c0-0.9-0.3-1.7-1.3-1.7c-0.7,0-1.2,0.5-1.4,1.1c0,0.1-0.1,0.3-0.1,0.5v3.5h-1.1V121.8z"/>
	<path d="M234.6,124.4c0,0.6,0,1.1,0,1.6h-0.9l-0.1-0.9h0c-0.3,0.5-0.9,1.1-1.9,1.1c-0.9,0-2-0.5-2-2.5v-3.4h1.1v3.2
		c0,1.1,0.3,1.8,1.3,1.8c0.7,0,1.2-0.5,1.4-1c0.1-0.2,0.1-0.3,0.1-0.5v-3.6h1.1V124.4z"/>
	<path d="M236.2,124.9c0.3,0.2,0.9,0.4,1.4,0.4c0.8,0,1.1-0.4,1.1-0.9c0-0.5-0.3-0.8-1.1-1.1c-1-0.4-1.5-0.9-1.5-1.6
		c0-0.9,0.8-1.7,2-1.7c0.6,0,1.1,0.2,1.4,0.4l-0.3,0.8c-0.2-0.1-0.6-0.3-1.2-0.3c-0.6,0-1,0.4-1,0.8c0,0.5,0.3,0.7,1.1,1
		c1,0.4,1.5,0.9,1.5,1.8c0,1-0.8,1.7-2.2,1.7c-0.6,0-1.2-0.2-1.6-0.4L236.2,124.9z"/>
	<path d="M241.7,123.3c0,1.4,0.9,2,2,2c0.8,0,1.2-0.1,1.6-0.3l0.2,0.8c-0.4,0.2-1,0.4-1.9,0.4c-1.8,0-2.9-1.2-2.9-2.9s1-3.1,2.7-3.1
		c1.9,0,2.4,1.7,2.4,2.7c0,0.2,0,0.4,0,0.5H241.7z M244.7,122.5c0-0.7-0.3-1.7-1.5-1.7c-1.1,0-1.5,1-1.6,1.7H244.7z"/>
	<path d="M252.1,117.5v7c0,0.5,0,1.1,0,1.5h-0.9l0-1h0c-0.3,0.6-1,1.1-2,1.1c-1.4,0-2.5-1.2-2.5-3c0-1.9,1.2-3.1,2.6-3.1
		c0.9,0,1.5,0.4,1.8,0.9h0v-3.5H252.1z M251,122.6c0-0.1,0-0.3,0-0.4c-0.2-0.7-0.7-1.2-1.5-1.2c-1.1,0-1.7,1-1.7,2.2
		c0,1.2,0.6,2.1,1.7,2.1c0.7,0,1.4-0.5,1.5-1.3c0-0.1,0-0.3,0-0.5V122.6z"/>
	<path d="M257.7,118.5v1.7h1.5v0.8h-1.5v3.1c0,0.7,0.2,1.1,0.8,1.1c0.3,0,0.5,0,0.6-0.1l0,0.8c-0.2,0.1-0.5,0.1-0.9,0.1
		c-0.5,0-0.9-0.2-1.1-0.4c-0.3-0.3-0.4-0.8-0.4-1.5V121h-0.9v-0.8h0.9v-1.4L257.7,118.5z"/>
	<path d="M265.5,123c0,2.1-1.5,3.1-2.9,3.1c-1.6,0-2.8-1.2-2.8-3c0-1.9,1.3-3.1,2.9-3.1C264.4,120.1,265.5,121.3,265.5,123z
		 M260.9,123.1c0,1.3,0.7,2.2,1.8,2.2c1,0,1.8-0.9,1.8-2.3c0-1-0.5-2.2-1.7-2.2C261.5,120.9,260.9,122,260.9,123.1z"/>
	<path d="M269.4,117.5h1.1v8.5h-1.1V117.5z"/>
	<path d="M277.5,123c0,2.1-1.5,3.1-2.9,3.1c-1.6,0-2.8-1.2-2.8-3c0-1.9,1.3-3.1,2.9-3.1C276.4,120.1,277.5,121.3,277.5,123z
		 M272.9,123.1c0,1.3,0.7,2.2,1.8,2.2c1,0,1.8-0.9,1.8-2.3c0-1-0.5-2.2-1.7-2.2C273.4,120.9,272.9,122,272.9,123.1z"/>
	<path d="M284.1,123c0,2.1-1.5,3.1-2.9,3.1c-1.6,0-2.8-1.2-2.8-3c0-1.9,1.3-3.1,2.9-3.1C283,120.1,284.1,121.3,284.1,123z
		 M279.5,123.1c0,1.3,0.7,2.2,1.8,2.2c1,0,1.8-0.9,1.8-2.3c0-1-0.5-2.2-1.7-2.2C280,120.9,279.5,122,279.5,123.1z"/>
	<path d="M286.5,122.9L286.5,122.9c0.2-0.2,0.4-0.5,0.5-0.7l1.7-2h1.3l-2.2,2.4l2.6,3.4H289l-2-2.8l-0.5,0.6v2.2h-1v-8.5h1V122.9z"
		/>
	<path d="M298.5,124.4c0,0.6,0,1.1,0,1.6h-0.9l-0.1-0.9h0c-0.3,0.5-0.9,1.1-1.9,1.1c-0.9,0-2-0.5-2-2.5v-3.4h1.1v3.2
		c0,1.1,0.3,1.8,1.3,1.8c0.7,0,1.2-0.5,1.4-1c0.1-0.2,0.1-0.3,0.1-0.5v-3.6h1.1V124.4z"/>
	<path d="M300.2,122.1c0-0.7,0-1.3,0-1.9h0.9l0,1h0c0.4-0.7,1.1-1.1,2.1-1.1c1.4,0,2.5,1.2,2.5,3c0,2.1-1.3,3.1-2.6,3.1
		c-0.8,0-1.4-0.3-1.8-0.9h0v3.2h-1V122.1z M301.3,123.6c0,0.2,0,0.3,0,0.4c0.2,0.7,0.8,1.2,1.6,1.2c1.1,0,1.8-0.9,1.8-2.2
		c0-1.2-0.6-2.2-1.7-2.2c-0.7,0-1.4,0.5-1.6,1.3c0,0.1-0.1,0.3-0.1,0.4V123.6z"/>
	<path d="M310.7,117.9v8.1h-1v-8.1H310.7z"/>
	<path d="M318.1,125.7c-0.4,0.2-1.2,0.4-2.1,0.4c-2.3,0-4-1.4-4-4.1c0-2.5,1.7-4.2,4.2-4.2c1,0,1.6,0.2,1.9,0.4l-0.3,0.9
		c-0.4-0.2-1-0.3-1.6-0.3c-1.9,0-3.2,1.2-3.2,3.3c0,2,1.1,3.3,3.1,3.3c0.6,0,1.3-0.1,1.7-0.3L318.1,125.7z"/>
	<path d="M319.4,118c0.6-0.1,1.4-0.2,2.2-0.2c1.5,0,2.6,0.3,3.3,1c0.7,0.7,1.1,1.6,1.1,2.9c0,1.3-0.4,2.4-1.2,3.1
		c-0.8,0.8-2,1.2-3.6,1.2c-0.7,0-1.4,0-1.9-0.1V118z M320.5,125.2c0.3,0,0.6,0.1,1.1,0.1c2.2,0,3.4-1.2,3.4-3.4
		c0-1.9-1.1-3.1-3.3-3.1c-0.5,0-0.9,0-1.2,0.1V125.2z"/>
	<path d="M330,122.4v0.8h-3v-0.8H330z"/>
	<path d="M331.5,125.3c0.2,0,0.5,0,0.9,0c0.6-0.1,1.2-0.3,1.6-0.8c0.5-0.5,0.9-1.2,1-2.1h0c-0.4,0.5-1.1,0.8-1.8,0.8
		c-1.4,0-2.3-1.1-2.3-2.4c0-1.5,1.1-2.8,2.7-2.8s2.6,1.3,2.6,3.3c0,1.7-0.6,2.9-1.3,3.7c-0.6,0.6-1.4,0.9-2.3,1
		c-0.4,0.1-0.7,0.1-1,0.1V125.3z M331.9,120.8c0,1,0.6,1.7,1.5,1.7c0.7,0,1.3-0.3,1.5-0.8c0.1-0.1,0.1-0.2,0.1-0.4
		c0-1.3-0.5-2.4-1.6-2.4C332.6,118.9,331.9,119.7,331.9,120.8z"/>
	<path d="M59.8,137.7c0,1.4,0.9,2,2,2c0.8,0,1.2-0.1,1.6-0.3l0.2,0.8c-0.4,0.2-1,0.4-1.9,0.4c-1.8,0-2.9-1.2-2.9-2.9
		c0-1.8,1-3.1,2.7-3.1c1.9,0,2.4,1.7,2.4,2.7c0,0.2,0,0.4,0,0.5H59.8z M62.9,136.9c0-0.7-0.3-1.7-1.5-1.7c-1.1,0-1.5,1-1.6,1.7H62.9
		z"/>
	<path d="M65.2,136.2c0-0.6,0-1.1,0-1.6h0.9l0.1,1h0c0.3-0.6,1-1.1,1.9-1.1c0.8,0,2.1,0.5,2.1,2.5v3.5h-1.1v-3.3
		c0-0.9-0.3-1.7-1.3-1.7c-0.7,0-1.2,0.5-1.4,1.1c0,0.1-0.1,0.3-0.1,0.5v3.5h-1.1V136.2z"/>
	<path d="M73.1,132.9v1.7h1.5v0.8h-1.5v3.1c0,0.7,0.2,1.1,0.8,1.1c0.3,0,0.5,0,0.6-0.1l0,0.8c-0.2,0.1-0.5,0.1-0.9,0.1
		c-0.5,0-0.9-0.2-1.1-0.4c-0.3-0.3-0.4-0.8-0.4-1.5v-3.2h-0.9v-0.8h0.9v-1.4L73.1,132.9z"/>
	<path d="M75.8,136.4c0-0.7,0-1.3,0-1.8h0.9l0,1.1h0c0.3-0.8,0.9-1.3,1.6-1.3c0.1,0,0.2,0,0.3,0v1c-0.1,0-0.2,0-0.4,0
		c-0.7,0-1.3,0.6-1.4,1.4c0,0.1,0,0.3,0,0.5v3.1h-1V136.4z"/>
	<path d="M81,133c0,0.4-0.3,0.6-0.7,0.6c-0.4,0-0.6-0.3-0.6-0.6c0-0.4,0.3-0.7,0.7-0.7C80.7,132.3,81,132.6,81,133z M79.8,140.4
		v-5.8h1.1v5.8H79.8z"/>
	<path d="M83.2,137.7c0,1.4,0.9,2,2,2c0.8,0,1.2-0.1,1.6-0.3l0.2,0.8c-0.4,0.2-1,0.4-1.9,0.4c-1.8,0-2.9-1.2-2.9-2.9
		c0-1.8,1-3.1,2.7-3.1c1.9,0,2.4,1.7,2.4,2.7c0,0.2,0,0.4,0,0.5H83.2z M86.3,136.9c0-0.7-0.3-1.7-1.5-1.7c-1.1,0-1.5,1-1.6,1.7H86.3
		z"/>
	<path d="M88.5,139.3c0.3,0.2,0.9,0.4,1.4,0.4c0.8,0,1.1-0.4,1.1-0.9c0-0.5-0.3-0.8-1.1-1.1c-1-0.4-1.5-0.9-1.5-1.6
		c0-0.9,0.8-1.7,2-1.7c0.6,0,1.1,0.2,1.4,0.4l-0.3,0.8c-0.2-0.1-0.6-0.3-1.2-0.3c-0.6,0-1,0.4-1,0.8c0,0.5,0.3,0.7,1.1,1
		c1,0.4,1.5,0.9,1.5,1.8c0,1-0.8,1.7-2.2,1.7c-0.6,0-1.2-0.2-1.6-0.4L88.5,139.3z"/>
	<path d="M93,139.8c0-0.4,0.3-0.8,0.7-0.8s0.7,0.3,0.7,0.8c0,0.4-0.3,0.8-0.7,0.8C93.3,140.5,93,140.2,93,139.8z"/>
	<path d="M59.1,161.2c0.4-0.1,0.8-0.2,1.2-0.2c0.9,0,1.5,0.2,1.9,0.6c0.6,0.5,1.1,1.6,1.1,3.3c0,1.8-0.5,2.9-1,3.4
		c-0.5,0.6-1.3,0.9-2.2,0.9c-0.4,0-0.8,0-1-0.1V161.2z M60,168.4c0.1,0,0.3,0,0.3,0c1,0,2-0.7,2-3.5c0-2-0.6-3.2-1.9-3.2
		c-0.1,0-0.3,0-0.4,0V168.4z"/>
	<path d="M65.1,166.4c0,1.8,0.7,2.2,1.4,2.2c0.4,0,0.7-0.1,1-0.2l0.1,0.7c-0.3,0.2-0.8,0.3-1.3,0.3c-1.4,0-2.1-1.1-2.1-2.9
		c0-1.9,0.8-3.1,2-3.1c1.2,0,1.7,1.2,1.7,2.6c0,0.2,0,0.4,0,0.5H65.1z M66.9,165.7c0-1.2-0.4-1.7-0.9-1.7c-0.6,0-0.9,0.9-0.9,1.7
		H66.9z"/>
	<path d="M69.2,163.4l0.7,3.3c0.1,0.4,0.2,0.9,0.3,1.4h0c0.1-0.5,0.2-1,0.2-1.4l0.7-3.3h0.9l-1.5,5.8h-0.8l-1.5-5.8H69.2z"/>
	<path d="M73.4,166.4c0,1.8,0.7,2.2,1.4,2.2c0.4,0,0.7-0.1,1-0.2l0.1,0.7c-0.3,0.2-0.8,0.3-1.3,0.3c-1.4,0-2.1-1.1-2.1-2.9
		c0-1.9,0.8-3.1,2-3.1c1.2,0,1.7,1.2,1.7,2.6c0,0.2,0,0.4,0,0.5H73.4z M75.3,165.7c0-1.2-0.4-1.7-0.9-1.7c-0.6,0-0.9,0.9-0.9,1.7
		H75.3z"/>
	<path d="M77.1,160.9h0.9v8.3h-0.9V160.9z"/>
	<path d="M83,166.3c0,2.2-1,3-1.9,3c-1,0-1.9-0.9-1.9-3c0-2.1,0.9-3,1.9-3C82.2,163.3,83,164.3,83,166.3z M80.1,166.3
		c0,1,0.2,2.3,1,2.3c0.8,0,0.9-1.4,0.9-2.3c0-0.9-0.2-2.3-1-2.3C80.3,164,80.1,165.4,80.1,166.3z"/>
	<path d="M84,165.2c0-0.9,0-1.4,0-1.8h0.8l0,0.7h0c0.3-0.6,0.8-0.8,1.2-0.8c1,0,1.7,1.1,1.7,3c0,2.1-0.9,3-1.8,3
		c-0.5,0-0.9-0.3-1-0.7h0v2.9H84V165.2z M84.9,167.1c0,0.2,0,0.3,0,0.5c0.2,0.8,0.6,1,0.9,1c0.8,0,1-1.1,1-2.2c0-1.2-0.3-2.2-1-2.2
		c-0.4,0-0.8,0.5-0.9,1.1c0,0.1,0,0.3,0,0.4V167.1z"/>
	<path d="M89.5,166.4c0,1.8,0.7,2.2,1.4,2.2c0.4,0,0.7-0.1,1-0.2l0.1,0.7c-0.3,0.2-0.8,0.3-1.3,0.3c-1.4,0-2.1-1.1-2.1-2.9
		c0-1.9,0.8-3.1,2-3.1c1.2,0,1.7,1.2,1.7,2.6c0,0.2,0,0.4,0,0.5H89.5z M91.3,165.7c0-1.2-0.4-1.7-0.9-1.7c-0.6,0-0.9,0.9-0.9,1.7
		H91.3z"/>
	<path d="M96.7,160.9v6.9c0,0.4,0,1.1,0,1.4h-0.8l-0.1-0.7h0c-0.2,0.4-0.6,0.8-1.2,0.8c-1,0-1.7-1.1-1.7-3c0-2.1,0.9-3,1.8-3
		c0.4,0,0.8,0.2,1.1,0.7h0v-3.1H96.7z M95.7,165.6c0-0.1,0-0.3,0-0.4c-0.1-0.6-0.4-1.1-0.9-1.1c-0.8,0-1,1.1-1,2.2
		c0,1.2,0.3,2.2,1,2.2c0.3,0,0.7-0.2,0.9-1c0-0.1,0-0.2,0-0.4V165.6z"/>
	<path d="M99.8,169.2c0-0.3,0-1,0-1.4v-6.9h0.9v3.2h0c0.3-0.6,0.7-0.8,1.2-0.8c0.9,0,1.6,1,1.6,2.9c0,2.1-0.9,3.1-1.8,3.1
		c-0.6,0-0.9-0.4-1.2-0.9h0l-0.1,0.8H99.8z M100.8,167.1c0,0.1,0,0.3,0,0.4c0.2,0.9,0.6,1,0.9,1c0.7,0,1-1,1-2.2
		c0-1.2-0.3-2.2-1-2.2c-0.4,0-0.8,0.5-0.9,1c0,0.1,0,0.3,0,0.4V167.1z"/>
	<path d="M105,163.4l0.8,3.3c0.1,0.5,0.2,0.8,0.2,1.2h0c0.1-0.3,0.2-0.8,0.3-1.2l0.7-3.3h0.9l-0.9,3.7c-0.4,1.5-0.8,2.9-1.4,3.7
		c-0.4,0.5-0.8,0.8-1,0.9l-0.3-0.8c0.3-0.1,0.6-0.4,0.8-0.7c0.2-0.3,0.4-0.7,0.5-1c0-0.1,0.1-0.2,0.1-0.3c0-0.1,0-0.1,0-0.2
		l-1.5-5.4H105z"/>
	<path d="M112.2,161.1v8.1h-1.6v-8.1H112.2z"/>
	<path d="M115.3,161.8v1.6h1.2v1.1h-1.2v2.7c0,0.7,0.3,0.9,0.6,0.9c0.2,0,0.3,0,0.4,0l0,1.2c-0.2,0.1-0.5,0.1-1,0.1
		c-0.5,0-0.9-0.1-1.1-0.4c-0.3-0.3-0.5-0.8-0.5-1.7v-2.8H113v-1.1h0.7v-1.2L115.3,161.8z"/>
	<path d="M119.8,169.2l-0.1-0.6h0c-0.3,0.5-0.8,0.7-1.3,0.7c-0.9,0-1.5-0.7-1.5-1.8c0-1.5,1.4-2.2,2.7-2.2v-0.1
		c0-0.5-0.3-0.8-0.8-0.8c-0.5,0-0.9,0.1-1.2,0.3l-0.3-1.1c0.3-0.2,1-0.4,1.8-0.4c1.8,0,2.1,1.2,2.1,2.4v2.2c0,0.5,0,0.9,0.1,1.3
		H119.8z M119.6,166.3c-0.5,0-1.2,0.2-1.2,1c0,0.6,0.3,0.8,0.6,0.8c0.3,0,0.5-0.2,0.6-0.5c0-0.1,0-0.2,0-0.3V166.3z"/>
	<path d="M123.3,163.3l0.6,3c0.1,0.3,0.1,0.7,0.2,1h0c0-0.3,0.1-0.6,0.1-1l0.5-3.1h1.5l-1.2,4.5c-0.3,1.1-0.7,2.2-1.3,3
		c-0.5,0.6-1.1,0.9-1.3,0.9l-0.5-1.4c0.3-0.1,0.5-0.3,0.8-0.5c0.2-0.2,0.4-0.4,0.5-0.7c0-0.1,0.1-0.2,0.1-0.3c0-0.1,0-0.1,0-0.2
		l-1.6-5.4H123.3z"/>
	<path d="M130.1,167.4l-0.4,1.8h-1.5l1.8-8.1h1.9l1.6,8.1h-1.5l-0.3-1.8H130.1z M131.4,166.1l-0.3-1.7c-0.1-0.5-0.2-1.3-0.3-1.8h0
		c-0.1,0.5-0.2,1.4-0.3,1.8l-0.3,1.7H131.4z"/>
	<path d="M134.2,167.8c0.2,0.1,0.7,0.3,1.1,0.3c0.4,0,0.6-0.2,0.6-0.5c0-0.3-0.2-0.5-0.7-0.8c-1-0.5-1.2-1.2-1.2-1.7
		c0-1.1,0.8-1.8,1.9-1.8c0.5,0,0.9,0.1,1.2,0.3l-0.3,1.2c-0.2-0.1-0.5-0.2-0.8-0.2c-0.4,0-0.6,0.2-0.6,0.5c0,0.3,0.1,0.4,0.7,0.7
		c0.9,0.5,1.2,1.1,1.2,1.8c0,1.2-0.9,1.8-2.1,1.8c-0.5,0-1.1-0.1-1.3-0.3L134.2,167.8z"/>
	<path d="M140.8,169.2l-0.1-0.6h0c-0.3,0.5-0.8,0.7-1.3,0.7c-0.9,0-1.5-0.7-1.5-1.8c0-1.5,1.4-2.2,2.7-2.2v-0.1
		c0-0.5-0.3-0.8-0.8-0.8c-0.5,0-0.9,0.1-1.2,0.3l-0.3-1.1c0.3-0.2,1-0.4,1.8-0.4c1.8,0,2.1,1.2,2.1,2.4v2.2c0,0.5,0,0.9,0.1,1.3
		H140.8z M140.6,166.3c-0.5,0-1.2,0.2-1.2,1c0,0.6,0.3,0.8,0.6,0.8c0.3,0,0.5-0.2,0.6-0.5c0-0.1,0-0.2,0-0.3V166.3z"/>
	<path d="M144.3,163.3l0.6,3c0.1,0.3,0.1,0.7,0.2,1h0c0-0.3,0.1-0.6,0.1-1l0.5-3.1h1.5l-1.2,4.5c-0.3,1.1-0.7,2.2-1.3,3
		c-0.5,0.6-1.1,0.9-1.3,0.9l-0.5-1.4c0.3-0.1,0.5-0.3,0.8-0.5c0.2-0.2,0.4-0.4,0.5-0.7c0-0.1,0.1-0.2,0.1-0.3c0-0.1,0-0.1,0-0.2
		l-1.6-5.4H144.3z"/>
	<path d="M150.3,169.2l-0.1-0.6h0c-0.3,0.5-0.8,0.7-1.3,0.7c-0.9,0-1.5-0.7-1.5-1.8c0-1.5,1.4-2.2,2.7-2.2v-0.1
		c0-0.5-0.3-0.8-0.8-0.8c-0.5,0-0.9,0.1-1.2,0.3l-0.3-1.1c0.3-0.2,1-0.4,1.8-0.4c1.8,0,2.1,1.2,2.1,2.4v2.2c0,0.5,0,0.9,0.1,1.3
		H150.3z M150,166.3c-0.5,0-1.2,0.2-1.2,1c0,0.6,0.3,0.8,0.6,0.8c0.3,0,0.5-0.2,0.6-0.5c0-0.1,0-0.2,0-0.3V166.3z"/>
	<path d="M157,163.3c0,0.5-0.1,1.2-0.1,1.9v3.3c0,1.3-0.2,2-0.7,2.4c-0.4,0.4-1,0.6-1.9,0.6c-0.5,0-1-0.1-1.5-0.3l0.3-1.2
		c0.3,0.1,0.7,0.3,1.1,0.3c0.8,0,1.1-0.5,1.1-1.4v-0.4h0c-0.2,0.4-0.6,0.6-1.1,0.6c-1.3,0-1.8-1.4-1.8-2.8c0-2,0.9-3.1,2-3.1
		c0.5,0,0.9,0.2,1.1,0.7h0l0.1-0.6H157z M155.4,165.5c0-0.2,0-0.3-0.1-0.4c-0.1-0.3-0.2-0.5-0.5-0.5c-0.6,0-0.8,0.8-0.8,1.7
		c0,1.1,0.3,1.6,0.8,1.6c0.2,0,0.4-0.1,0.5-0.4c0-0.1,0.1-0.3,0.1-0.5V165.5z"/>
	<path d="M157.5,170.7c0.3-1,0.7-2.2,0.8-3.2l1.6-0.1c-0.4,1.1-0.9,2.3-1.4,3.2L157.5,170.7z"/>
	<path d="M162.7,161.2c0.4-0.1,1-0.2,1.6-0.2c0.9,0,1.7,0.1,2.2,0.6c0.5,0.4,0.7,1.1,0.7,1.8c0,0.9-0.3,1.5-0.7,1.9
		c-0.5,0.5-1.3,0.8-2,0.8c-0.1,0-0.2,0-0.3,0v3h-1.6V161.2z M164.3,164.9c0.1,0,0.2,0,0.3,0c0.8,0,1.2-0.6,1.2-1.3
		c0-0.7-0.3-1.3-1-1.3c-0.1,0-0.3,0-0.4,0.1V164.9z"/>
	<path d="M169.1,166.8c0,0.9,0.6,1.2,1.2,1.2c0.4,0,0.8-0.1,1.1-0.2l0.2,1.1c-0.4,0.2-1,0.3-1.6,0.3c-1.6,0-2.5-1.1-2.5-2.9
		c0-2,1-3.1,2.4-3.1c1.3,0,2,1,2,2.8c0,0.4,0,0.6,0,0.8H169.1z M170.5,165.7c0-0.8-0.2-1.3-0.7-1.3c-0.5,0-0.7,0.8-0.7,1.3H170.5z"
		/>
	<path d="M172.9,165.1c0-0.6,0-1.2,0-1.8h1.4l0.1,0.7h0c0.3-0.5,0.8-0.8,1.4-0.8c1.1,0,1.6,0.9,1.6,2.2v3.8h-1.6v-3.7
		c0-0.5-0.1-1-0.6-1c-0.3,0-0.5,0.2-0.6,0.5c0,0.1-0.1,0.3-0.1,0.5v3.6h-1.6V165.1z"/>
	<path d="M181.6,169.1c-0.2,0.1-0.6,0.2-1,0.2c-1.5,0-2.5-1-2.5-3c0-1.8,1.1-3.1,2.7-3.1c0.4,0,0.7,0.1,0.9,0.2l-0.2,1.2
		c-0.1,0-0.3-0.1-0.6-0.1c-0.8,0-1.2,0.7-1.2,1.7c0,1.1,0.4,1.7,1.2,1.7c0.2,0,0.4,0,0.6-0.1L181.6,169.1z"/>
	<path d="M183.8,161.8c0,0.5-0.3,0.9-0.8,0.9c-0.4,0-0.8-0.3-0.8-0.9c0-0.5,0.4-0.9,0.8-0.9C183.5,160.9,183.8,161.2,183.8,161.8z
		 M182.2,169.2v-5.9h1.6v5.9H182.2z"/>
	<path d="M184.9,160.9h1.6v8.3h-1.6V160.9z"/>
	<path d="M194.6,166.4c0-0.8-0.1-1.8-0.1-2.7h0c-0.1,0.9-0.4,1.9-0.5,2.5l-0.7,2.9h-1.1l-0.7-2.8c-0.2-0.6-0.4-1.7-0.5-2.5h0
		c0,0.9-0.1,1.9-0.1,2.7l-0.1,2.8h-1.4l0.6-8.1h1.7l0.6,2.9c0.2,1,0.4,1.9,0.6,2.8h0c0.1-0.9,0.3-1.8,0.5-2.8l0.6-2.9h1.7l0.5,8.1
		h-1.4L194.6,166.4z"/>
	<path d="M201.4,166.3c0,2.4-1.4,3-2.2,3c-1.4,0-2.2-1.1-2.2-3c0-2.1,1.1-3,2.3-3C200.6,163.2,201.4,164.4,201.4,166.3z
		 M198.5,166.3c0,1,0.2,1.8,0.7,1.8c0.5,0,0.6-1,0.6-1.8c0-0.8-0.1-1.8-0.7-1.8C198.6,164.4,198.5,165.4,198.5,166.3z"/>
	<path d="M206.6,167.4c0,0.6,0,1.2,0,1.8h-1.4l-0.1-0.6h0c-0.3,0.4-0.8,0.7-1.4,0.7c-1.1,0-1.6-0.8-1.6-2.4v-3.5h1.6v3.4
		c0,0.8,0.1,1.3,0.6,1.3c0.3,0,0.4-0.2,0.5-0.4c0.1-0.1,0.1-0.3,0.1-0.5v-3.7h1.6V167.4z"/>
	<path d="M207.7,167.8c0.2,0.1,0.7,0.3,1.1,0.3c0.4,0,0.6-0.2,0.6-0.5c0-0.3-0.2-0.5-0.7-0.8c-1-0.5-1.2-1.2-1.2-1.7
		c0-1.1,0.8-1.8,1.9-1.8c0.5,0,0.9,0.1,1.2,0.3l-0.3,1.2c-0.2-0.1-0.5-0.2-0.8-0.2c-0.4,0-0.6,0.2-0.6,0.5c0,0.3,0.1,0.4,0.7,0.7
		c0.9,0.5,1.2,1.1,1.2,1.8c0,1.2-0.9,1.8-2.1,1.8c-0.5,0-1.1-0.1-1.3-0.3L207.7,167.8z"/>
	<path d="M213.5,161.8v1.6h1.2v1.1h-1.2v2.7c0,0.7,0.3,0.9,0.6,0.9c0.2,0,0.3,0,0.4,0l0,1.2c-0.2,0.1-0.5,0.1-1,0.1
		c-0.5,0-0.9-0.1-1.1-0.4c-0.3-0.3-0.5-0.8-0.5-1.7v-2.8h-0.7v-1.1h0.7v-1.2L213.5,161.8z"/>
	<path d="M218,169.2l-0.1-0.6h0c-0.3,0.5-0.8,0.7-1.3,0.7c-0.9,0-1.5-0.7-1.5-1.8c0-1.5,1.4-2.2,2.7-2.2v-0.1c0-0.5-0.3-0.8-0.8-0.8
		c-0.5,0-0.9,0.1-1.2,0.3l-0.3-1.1c0.3-0.2,1-0.4,1.8-0.4c1.8,0,2.1,1.2,2.1,2.4v2.2c0,0.5,0,0.9,0.1,1.3H218z M217.8,166.3
		c-0.5,0-1.2,0.2-1.2,1c0,0.6,0.3,0.8,0.6,0.8c0.3,0,0.5-0.2,0.6-0.5c0-0.1,0-0.2,0-0.3V166.3z"/>
	<path d="M223.7,169.1c-0.2,0.1-0.6,0.2-1,0.2c-1.5,0-2.5-1-2.5-3c0-1.8,1.1-3.1,2.7-3.1c0.4,0,0.7,0.1,0.9,0.2l-0.2,1.2
		c-0.1,0-0.3-0.1-0.6-0.1c-0.8,0-1.2,0.7-1.2,1.7c0,1.1,0.4,1.7,1.2,1.7c0.2,0,0.4,0,0.6-0.1L223.7,169.1z"/>
	<path d="M224.3,160.9h1.6v3h0c0.1-0.2,0.3-0.4,0.5-0.5c0.2-0.1,0.5-0.2,0.8-0.2c1.1,0,1.5,0.9,1.5,2.4v3.6h-1.6v-3.6
		c0-0.6-0.1-1.1-0.6-1.1c-0.3,0-0.5,0.2-0.6,0.6c0,0.1-0.1,0.3-0.1,0.4v3.6h-1.6V160.9z"/>
	<path d="M231.1,166.8c0,0.9,0.6,1.2,1.2,1.2c0.4,0,0.8-0.1,1.1-0.2l0.2,1.1c-0.4,0.2-1,0.3-1.6,0.3c-1.6,0-2.5-1.1-2.5-2.9
		c0-2,1-3.1,2.4-3.1c1.3,0,2,1,2,2.8c0,0.4,0,0.6,0,0.8H231.1z M232.5,165.7c0-0.8-0.2-1.3-0.7-1.3c-0.5,0-0.7,0.8-0.7,1.3H232.5z"
		/>
	<path d="M236.7,167.6c0.3,0.2,0.9,0.3,1.3,0.3c0.7,0,1.1-0.4,1.1-0.9c0-0.6-0.4-0.9-1-1.3c-1.1-0.7-1.5-1.5-1.5-2.3
		c0-1.3,0.9-2.4,2.6-2.4c0.5,0,1,0.1,1.3,0.3l-0.3,1.4c-0.2-0.1-0.6-0.3-1-0.3c-0.7,0-1,0.4-1,0.8c0,0.5,0.2,0.7,1.1,1.3
		c1.1,0.6,1.5,1.5,1.5,2.3c0,1.5-1.1,2.4-2.7,2.4c-0.6,0-1.3-0.2-1.5-0.3L236.7,167.6z"/>
	<path d="M245.9,166.3c0,2.4-1.4,3-2.2,3c-1.4,0-2.2-1.1-2.2-3c0-2.1,1.1-3,2.3-3C245,163.2,245.9,164.4,245.9,166.3z M242.9,166.3
		c0,1,0.2,1.8,0.7,1.8c0.5,0,0.6-1,0.6-1.8c0-0.8-0.1-1.8-0.7-1.8C243.1,164.4,242.9,165.4,242.9,166.3z"/>
	<path d="M247,169.2v-4.7h-0.8v-1.1h0.8v-0.2c0-0.7,0.1-1.3,0.6-1.8c0.3-0.4,0.9-0.5,1.4-0.5c0.4,0,0.7,0.1,0.9,0.1l-0.2,1.2
		c-0.1,0-0.3-0.1-0.5-0.1c-0.5,0-0.7,0.5-0.7,1v0.3h1v1.1h-1v4.7H247z"/>
	<path d="M252.1,161.8v1.6h1.2v1.1h-1.2v2.7c0,0.7,0.3,0.9,0.6,0.9c0.2,0,0.3,0,0.4,0l0,1.2c-0.2,0.1-0.5,0.1-1,0.1
		c-0.5,0-0.9-0.1-1.1-0.4c-0.3-0.3-0.5-0.8-0.5-1.7v-2.8h-0.7v-1.1h0.7v-1.2L252.1,161.8z"/>
	<path d="M255.2,163.3l0.3,2.5c0.1,0.6,0.2,1.2,0.2,1.8h0c0.1-0.6,0.2-1.2,0.3-1.8l0.5-2.6h1.2l0.5,2.5c0.1,0.7,0.2,1.2,0.3,1.8h0
		c0-0.6,0.1-1.2,0.2-1.8l0.4-2.5h1.5l-1.5,5.9h-1.3l-0.4-2.1c-0.1-0.5-0.2-1.2-0.3-1.8h0c-0.1,0.7-0.2,1.3-0.3,1.8l-0.5,2H255
		l-1.4-5.9H255.2z"/>
	<path d="M263.9,169.2l-0.1-0.6h0c-0.3,0.5-0.8,0.7-1.3,0.7c-0.9,0-1.5-0.7-1.5-1.8c0-1.5,1.4-2.2,2.7-2.2v-0.1
		c0-0.5-0.3-0.8-0.8-0.8c-0.5,0-0.9,0.1-1.2,0.3l-0.3-1.1c0.3-0.2,1-0.4,1.8-0.4c1.8,0,2.1,1.2,2.1,2.4v2.2c0,0.5,0,0.9,0.1,1.3
		H263.9z M263.7,166.3c-0.5,0-1.2,0.2-1.2,1c0,0.6,0.3,0.8,0.6,0.8c0.3,0,0.5-0.2,0.6-0.5c0-0.1,0-0.2,0-0.3V166.3z"/>
	<path d="M266.3,165.1c0-0.6,0-1.2,0-1.8h1.4l0.1,0.9h0c0.3-0.6,0.7-0.9,1.2-0.9c0.2,0,0.2,0,0.3,0v1.6c-0.1,0-0.2,0-0.3,0
		c-0.3,0-0.8,0.2-1,0.8c0,0.1-0.1,0.3-0.1,0.6v3h-1.6V165.1z"/>
	<path d="M271.1,166.8c0,0.9,0.6,1.2,1.2,1.2c0.4,0,0.8-0.1,1.1-0.2l0.2,1.1c-0.4,0.2-1,0.3-1.6,0.3c-1.6,0-2.5-1.1-2.5-2.9
		c0-2,1-3.1,2.4-3.1c1.3,0,2,1,2,2.8c0,0.4,0,0.6,0,0.8H271.1z M272.5,165.7c0-0.8-0.2-1.3-0.7-1.3c-0.5,0-0.7,0.8-0.7,1.3H272.5z"
		/>
	<path d="M274.9,168.6c0-0.4,0.3-0.7,0.6-0.7c0.4,0,0.6,0.3,0.6,0.7s-0.2,0.7-0.6,0.7C275.2,169.3,274.9,169,274.9,168.6z"/>
	<path d="M62.6,183.5c-0.3,0.1-0.6,0.2-1.2,0.2c-1.6,0-2.7-1.3-2.7-4c0-3.2,1.6-4.2,2.9-4.2c0.5,0,0.8,0.1,1,0.2l-0.2,0.8
		c-0.2-0.1-0.4-0.2-0.8-0.2c-0.9,0-1.9,0.8-1.9,3.3s0.9,3.3,1.9,3.3c0.3,0,0.7-0.1,0.9-0.2L62.6,183.5z"/>
	<path d="M66.8,180.7c0,2.2-1,3-1.9,3c-1,0-1.9-0.9-1.9-3c0-2.1,0.9-3,1.9-3C66,177.7,66.8,178.7,66.8,180.7z M63.9,180.7
		c0,1,0.2,2.3,1,2.3c0.8,0,0.9-1.4,0.9-2.3c0-0.9-0.2-2.3-1-2.3C64.1,178.4,63.9,179.8,63.9,180.7z"/>
	<path d="M67.8,179.3c0-0.7,0-1,0-1.5h0.8l0,0.7h0c0.3-0.5,0.7-0.8,1.3-0.8c0.8,0,1.4,0.6,1.4,2v3.9h-0.9v-3.7
		c0-0.7-0.1-1.4-0.8-1.4c-0.4,0-0.8,0.3-0.9,0.9c0,0.1,0,0.3,0,0.5v3.7h-0.9V179.3z"/>
	<path d="M73.8,176.3v1.5h1.1v0.7h-1.1v3.4c0,0.8,0.3,1,0.6,1c0.1,0,0.3,0,0.4,0l0,0.7c-0.2,0.1-0.4,0.1-0.7,0.1
		c-0.4,0-0.7-0.1-0.9-0.3c-0.2-0.3-0.3-0.7-0.3-1.5v-3.4h-0.7v-0.7h0.7v-1.3L73.8,176.3z"/>
	<path d="M78,183.6l-0.1-0.6h0c-0.3,0.4-0.7,0.7-1.2,0.7c-0.8,0-1.4-0.7-1.4-1.7c0-1.5,1.2-2.1,2.5-2.1v-0.2c0-0.8-0.2-1.3-0.9-1.3
		c-0.4,0-0.7,0.1-1,0.3l-0.2-0.6c0.2-0.2,0.8-0.4,1.4-0.4c1.2,0,1.7,0.8,1.7,2.1v2.5c0,0.4,0,0.9,0.1,1.3H78z M77.8,180.6
		c-0.5,0-1.6,0.1-1.6,1.3c0,0.8,0.4,1,0.7,1c0.4,0,0.8-0.3,0.9-0.9c0-0.1,0-0.2,0-0.3V180.6z"/>
	<path d="M82.9,183.5c-0.2,0.1-0.6,0.2-1,0.2c-1.3,0-2.1-1-2.1-2.9c0-1.7,0.8-3,2.3-3c0.3,0,0.6,0.1,0.8,0.2l-0.2,0.8
		c-0.1-0.1-0.4-0.2-0.7-0.2c-0.9,0-1.3,1.1-1.3,2.2c0,1.4,0.5,2.2,1.4,2.2c0.3,0,0.5-0.1,0.7-0.2L82.9,183.5z"/>
	<path d="M85,176.3v1.5h1.1v0.7H85v3.4c0,0.8,0.3,1,0.6,1c0.1,0,0.3,0,0.4,0l0,0.7c-0.2,0.1-0.4,0.1-0.7,0.1c-0.4,0-0.7-0.1-0.9-0.3
		c-0.2-0.3-0.3-0.7-0.3-1.5v-3.4h-0.7v-0.7h0.7v-1.3L85,176.3z"/>
	<path d="M86.9,178.6c0-0.4,0.3-0.7,0.6-0.7c0.4,0,0.6,0.3,0.6,0.7c0,0.4-0.2,0.7-0.6,0.7C87.1,179.3,86.9,179,86.9,178.6z
		 M86.9,183c0-0.4,0.3-0.7,0.6-0.7c0.4,0,0.6,0.3,0.6,0.7c0,0.4-0.2,0.7-0.6,0.7C87.1,183.7,86.9,183.4,86.9,183z"/>
	<path d="M92.1,176.3c0,0.4-0.2,0.6-0.6,0.6c-0.3,0-0.5-0.2-0.5-0.6c0-0.4,0.2-0.6,0.5-0.6C91.9,175.7,92.1,175.9,92.1,176.3z
		 M91.1,183.6v-5.8h0.9v5.8H91.1z"/>
	<path d="M94.5,176.3v1.5h1.1v0.7h-1.1v3.4c0,0.8,0.3,1,0.6,1c0.1,0,0.3,0,0.4,0l0,0.7c-0.2,0.1-0.4,0.1-0.7,0.1
		c-0.4,0-0.7-0.1-0.9-0.3c-0.2-0.3-0.3-0.7-0.3-1.5v-3.4h-0.7v-0.7h0.7v-1.3L94.5,176.3z"/>
	<path d="M98.7,183.6l-0.1-0.6h0c-0.3,0.4-0.7,0.7-1.2,0.7c-0.8,0-1.4-0.7-1.4-1.7c0-1.5,1.2-2.1,2.5-2.1v-0.2
		c0-0.8-0.2-1.3-0.9-1.3c-0.4,0-0.7,0.1-1,0.3l-0.2-0.6c0.2-0.2,0.8-0.4,1.4-0.4c1.2,0,1.7,0.8,1.7,2.1v2.5c0,0.4,0,0.9,0.1,1.3
		H98.7z M98.6,180.6c-0.5,0-1.6,0.1-1.6,1.3c0,0.8,0.4,1,0.7,1c0.4,0,0.8-0.3,0.9-0.9c0-0.1,0-0.2,0-0.3V180.6z"/>
	<path d="M101.1,177.8l0.8,3.3c0.1,0.5,0.2,0.8,0.2,1.2h0c0.1-0.3,0.2-0.8,0.3-1.2l0.7-3.3h0.9l-0.9,3.7c-0.4,1.5-0.8,2.9-1.4,3.7
		c-0.4,0.5-0.8,0.8-1,0.9l-0.3-0.8c0.3-0.1,0.6-0.4,0.8-0.7c0.2-0.3,0.4-0.7,0.5-1c0-0.1,0.1-0.2,0.1-0.3c0-0.1,0-0.1,0-0.2
		l-1.5-5.4H101.1z"/>
	<path d="M104.2,183c0-0.4,0.3-0.7,0.6-0.7c0.4,0,0.6,0.3,0.6,0.7s-0.2,0.7-0.6,0.7C104.5,183.7,104.2,183.4,104.2,183z"/>
	<path d="M108.9,183.6l-0.1-0.6h0c-0.3,0.4-0.7,0.7-1.2,0.7c-0.8,0-1.4-0.7-1.4-1.7c0-1.5,1.2-2.1,2.5-2.1v-0.2
		c0-0.8-0.2-1.3-0.9-1.3c-0.4,0-0.7,0.1-1,0.3l-0.2-0.6c0.2-0.2,0.8-0.4,1.4-0.4c1.2,0,1.7,0.8,1.7,2.1v2.5c0,0.4,0,0.9,0.1,1.3
		H108.9z M108.8,180.6c-0.5,0-1.6,0.1-1.6,1.3c0,0.8,0.4,1,0.7,1c0.4,0,0.8-0.3,0.9-0.9c0-0.1,0-0.2,0-0.3V180.6z"/>
	<path d="M110.8,182.6c0.2,0.1,0.6,0.3,0.9,0.3c0.5,0,0.9-0.3,0.9-0.8c0-0.4-0.2-0.7-0.7-1.1c-0.8-0.5-1.2-1-1.2-1.7
		c0-0.9,0.7-1.6,1.6-1.6c0.5,0,0.8,0.2,1,0.3l-0.3,0.7c-0.2-0.1-0.5-0.3-0.8-0.3c-0.5,0-0.8,0.4-0.8,0.7c0,0.4,0.1,0.6,0.7,1
		c0.7,0.4,1.2,1,1.2,1.8c0,1.2-0.8,1.7-1.7,1.7c-0.4,0-0.9-0.1-1.2-0.3L110.8,182.6z"/>
	<path d="M116.7,183.6l-0.1-0.6h0c-0.3,0.4-0.7,0.7-1.2,0.7c-0.8,0-1.4-0.7-1.4-1.7c0-1.5,1.2-2.1,2.5-2.1v-0.2
		c0-0.8-0.2-1.3-0.9-1.3c-0.4,0-0.7,0.1-1,0.3l-0.2-0.6c0.2-0.2,0.8-0.4,1.4-0.4c1.2,0,1.7,0.8,1.7,2.1v2.5c0,0.4,0,0.9,0.1,1.3
		H116.7z M116.6,180.6c-0.5,0-1.6,0.1-1.6,1.3c0,0.8,0.4,1,0.7,1c0.4,0,0.8-0.3,0.9-0.9c0-0.1,0-0.2,0-0.3V180.6z"/>
	<path d="M119.2,177.8l0.8,3.3c0.1,0.5,0.2,0.8,0.2,1.2h0c0.1-0.3,0.2-0.8,0.3-1.2l0.7-3.3h0.9l-0.9,3.7c-0.4,1.5-0.8,2.9-1.4,3.7
		c-0.4,0.5-0.8,0.8-1,0.9l-0.3-0.8c0.3-0.1,0.6-0.4,0.8-0.7c0.2-0.3,0.4-0.7,0.5-1c0-0.1,0.1-0.2,0.1-0.3c0-0.1,0-0.1,0-0.2
		l-1.5-5.4H119.2z"/>
	<path d="M125,183.6L125,183h0c-0.3,0.4-0.7,0.7-1.2,0.7c-0.8,0-1.4-0.7-1.4-1.7c0-1.5,1.2-2.1,2.5-2.1v-0.2c0-0.8-0.2-1.3-0.9-1.3
		c-0.4,0-0.7,0.1-1,0.3l-0.2-0.6c0.2-0.2,0.8-0.4,1.4-0.4c1.2,0,1.7,0.8,1.7,2.1v2.5c0,0.4,0,0.9,0.1,1.3H125z M124.9,180.6
		c-0.5,0-1.6,0.1-1.6,1.3c0,0.8,0.4,1,0.7,1c0.4,0,0.8-0.3,0.9-0.9c0-0.1,0-0.2,0-0.3V180.6z"/>
	<path d="M130.7,177.8c0,0.4,0,0.9,0,1.8v3.3c0,1.5-0.2,2.1-0.6,2.5c-0.3,0.4-0.9,0.6-1.5,0.6c-0.5,0-1-0.1-1.3-0.3l0.2-0.7
		c0.2,0.1,0.6,0.3,1.1,0.3c0.7,0,1.2-0.5,1.2-1.8v-0.6h0c-0.2,0.5-0.6,0.7-1.1,0.7c-1,0-1.7-1.2-1.7-2.9c0-2.1,1-3,1.8-3
		c0.6,0,0.9,0.4,1.1,0.8h0l0-0.7H130.7z M129.7,179.8c0-0.1,0-0.3,0-0.4c-0.1-0.4-0.3-0.9-0.8-0.9c-0.7,0-1,0.9-1,2.2
		c0,1.5,0.5,2.2,1,2.2c0.3,0,0.6-0.1,0.8-0.8c0-0.2,0.1-0.4,0.1-0.5V179.8z"/>
	<path d="M131.6,183c0-0.4,0.3-0.7,0.6-0.7c0.4,0,0.6,0.3,0.6,0.7s-0.2,0.7-0.6,0.7C131.8,183.7,131.6,183.4,131.6,183z"/>
	<path d="M133.9,179.3c0-0.5,0-1.1,0-1.5h0.8l0,0.9h0c0.2-0.6,0.7-1,1.2-1c0.1,0,0.1,0,0.2,0v0.9c-0.1,0-0.1,0-0.2,0
		c-0.6,0-1,0.5-1.1,1.2c0,0.2,0,0.3,0,0.5v3.2h-0.9V179.3z"/>
	<path d="M136.9,179.6c0-0.9,0-1.4,0-1.8h0.8l0,0.7h0c0.3-0.6,0.8-0.8,1.2-0.8c1,0,1.7,1.1,1.7,3c0,2.1-0.9,3-1.8,3
		c-0.5,0-0.9-0.3-1-0.7h0v2.9h-0.9V179.6z M137.8,181.5c0,0.2,0,0.3,0,0.5c0.2,0.8,0.6,1,0.9,1c0.8,0,1-1.1,1-2.2
		c0-1.2-0.3-2.2-1-2.2c-0.4,0-0.8,0.5-0.9,1.1c0,0.1,0,0.3,0,0.4V181.5z"/>
	<path d="M146.1,184.3c-0.5,0.3-1.1,0.5-1.8,0.5c-1.6,0-2.9-1.1-2.9-3.4c0-2.6,1.6-4.9,3.8-4.9c1.6,0,2.5,1.2,2.5,2.9
		c0,2.3-0.8,3.5-1.8,3.5c-0.4,0-0.7-0.3-0.7-1h0c-0.4,0.8-0.9,1-1.3,1c-0.6,0-1-0.4-1-1.3c0-1.3,0.9-3,2.6-3c0.3,0,0.6,0.1,0.8,0.2
		l-0.5,2.4c-0.2,0.9-0.1,1.3,0.3,1.3c0.6,0,1.1-1.1,1.1-2.7c0-1.6-0.6-2.6-2.1-2.6c-1.7,0-3.2,1.8-3.2,4.4c0,1.9,0.9,2.9,2.5,2.9
		c0.6,0,1-0.1,1.5-0.4L146.1,184.3z M145.6,179.1c-0.1,0-0.2-0.1-0.3-0.1c-0.9,0-1.6,1.3-1.6,2.5c0,0.5,0.2,0.8,0.5,0.8
		c0.5,0,1-0.7,1.1-1.4L145.6,179.1z"/>
	<path d="M152.3,177.8c0,0.4,0,0.9,0,1.8v3.3c0,1.5-0.2,2.1-0.6,2.5c-0.3,0.4-0.9,0.6-1.5,0.6c-0.5,0-1-0.1-1.3-0.3l0.2-0.7
		c0.2,0.1,0.6,0.3,1.1,0.3c0.7,0,1.2-0.5,1.2-1.8v-0.6h0c-0.2,0.5-0.6,0.7-1.1,0.7c-1,0-1.7-1.2-1.7-2.9c0-2.1,1-3,1.8-3
		c0.6,0,0.9,0.4,1.1,0.8h0l0-0.7H152.3z M151.4,179.8c0-0.1,0-0.3,0-0.4c-0.1-0.4-0.3-0.9-0.8-0.9c-0.7,0-1,0.9-1,2.2
		c0,1.5,0.5,2.2,1,2.2c0.3,0,0.6-0.1,0.8-0.8c0-0.2,0.1-0.4,0.1-0.5V179.8z"/>
	<path d="M153.6,179.3c0-0.7,0-1,0-1.5h0.8l0,0.7h0c0.3-0.5,0.7-0.8,1.3-0.8c0.5,0,1,0.3,1.2,0.9h0c0.2-0.3,0.4-0.5,0.6-0.7
		c0.2-0.2,0.5-0.2,0.8-0.2c0.8,0,1.4,0.6,1.4,2.1v3.9h-0.9V180c0-0.8-0.1-1.5-0.8-1.5c-0.4,0-0.7,0.3-0.9,0.9c0,0.2,0,0.3,0,0.5v3.7
		h-0.9v-3.8c0-0.6-0.1-1.3-0.8-1.3c-0.4,0-0.8,0.3-0.9,0.9c0,0.2,0,0.3,0,0.5v3.7h-0.9V179.3z"/>
	<path d="M163.3,183.6l-0.1-0.6h0c-0.3,0.4-0.7,0.7-1.2,0.7c-0.8,0-1.4-0.7-1.4-1.7c0-1.5,1.2-2.1,2.5-2.1v-0.2
		c0-0.8-0.2-1.3-0.9-1.3c-0.4,0-0.7,0.1-1,0.3l-0.2-0.6c0.2-0.2,0.8-0.4,1.4-0.4c1.2,0,1.7,0.8,1.7,2.1v2.5c0,0.4,0,0.9,0.1,1.3
		H163.3z M163.2,180.6c-0.5,0-1.6,0.1-1.6,1.3c0,0.8,0.4,1,0.7,1c0.4,0,0.8-0.3,0.9-0.9c0-0.1,0-0.2,0-0.3V180.6z"/>
	<path d="M166.4,176.3c0,0.4-0.2,0.6-0.6,0.6c-0.3,0-0.5-0.2-0.5-0.6c0-0.4,0.2-0.6,0.5-0.6C166.2,175.7,166.4,175.9,166.4,176.3z
		 M165.4,183.6v-5.8h0.9v5.8H165.4z"/>
	<path d="M167.6,175.3h0.9v8.3h-0.9V175.3z"/>
	<path d="M169.7,183c0-0.4,0.3-0.7,0.6-0.7c0.4,0,0.6,0.3,0.6,0.7s-0.2,0.7-0.6,0.7C169.9,183.7,169.7,183.4,169.7,183z"/>
	<path d="M174.9,183.5c-0.2,0.1-0.6,0.2-1,0.2c-1.3,0-2.1-1-2.1-2.9c0-1.7,0.8-3,2.3-3c0.3,0,0.6,0.1,0.8,0.2l-0.2,0.8
		c-0.1-0.1-0.4-0.2-0.7-0.2c-0.9,0-1.3,1.1-1.3,2.2c0,1.4,0.5,2.2,1.4,2.2c0.3,0,0.5-0.1,0.7-0.2L174.9,183.5z"/>
	<path d="M179.2,180.7c0,2.2-1,3-1.9,3c-1,0-1.9-0.9-1.9-3c0-2.1,0.9-3,1.9-3C178.3,177.7,179.2,178.7,179.2,180.7z M176.3,180.7
		c0,1,0.2,2.3,1,2.3c0.8,0,0.9-1.4,0.9-2.3c0-0.9-0.2-2.3-1-2.3C176.4,178.4,176.3,179.8,176.3,180.7z"/>
	<path d="M180.2,179.3c0-0.7,0-1,0-1.5h0.8l0,0.7h0c0.3-0.5,0.7-0.8,1.3-0.8c0.5,0,1,0.3,1.2,0.9h0c0.2-0.3,0.4-0.5,0.6-0.7
		c0.2-0.2,0.5-0.2,0.8-0.2c0.8,0,1.4,0.6,1.4,2.1v3.9h-0.9V180c0-0.8-0.1-1.5-0.8-1.5c-0.4,0-0.7,0.3-0.9,0.9c0,0.2,0,0.3,0,0.5v3.7
		h-0.9v-3.8c0-0.6-0.1-1.3-0.8-1.3c-0.4,0-0.8,0.3-0.9,0.9c0,0.2,0,0.3,0,0.5v3.7h-0.9V179.3z"/>
	<path d="M61.4,208v7.6c0,2.9,1.3,4.1,3,4.1c1.9,0,3.1-1.3,3.1-4.1V208h1.7v7.5c0,3.9-2.1,5.5-4.8,5.5c-2.6,0-4.6-1.5-4.6-5.5V208
		H61.4z"/>
	<path d="M71.7,219.1c0.5,0.3,1.4,0.7,2.2,0.7c1.2,0,1.8-0.6,1.8-1.4c0-0.8-0.5-1.2-1.7-1.7c-1.7-0.6-2.4-1.5-2.4-2.6
		c0-1.5,1.2-2.7,3.2-2.7c0.9,0,1.7,0.3,2.3,0.6l-0.4,1.2c-0.4-0.2-1-0.5-1.9-0.5c-1,0-1.5,0.6-1.5,1.3c0,0.8,0.6,1.1,1.7,1.6
		c1.6,0.6,2.4,1.4,2.4,2.8c0,1.6-1.3,2.8-3.4,2.8c-1,0-1.9-0.2-2.6-0.6L71.7,219.1z"/>
	<path d="M84.5,220.8l-0.1-1.2h-0.1c-0.5,0.7-1.5,1.4-2.8,1.4c-1.9,0-2.8-1.3-2.8-2.6c0-2.2,2-3.4,5.5-3.4v-0.2
		c0-0.8-0.2-2.1-2.1-2.1c-0.9,0-1.7,0.3-2.4,0.7l-0.4-1.1c0.8-0.5,1.9-0.8,3-0.8c2.8,0,3.5,1.9,3.5,3.8v3.4c0,0.8,0,1.6,0.2,2.2
		H84.5z M84.3,216.1c-1.8,0-3.9,0.3-3.9,2.1c0,1.1,0.7,1.6,1.6,1.6c1.2,0,2-0.8,2.2-1.5c0.1-0.2,0.1-0.4,0.1-0.5V216.1z"/>
	<path d="M96.5,211.6c0,0.7-0.1,1.4-0.1,2.5v5.3c0,2.1-0.4,3.4-1.3,4.2c-0.9,0.8-2.2,1.1-3.3,1.1c-1.1,0-2.3-0.3-3.1-0.8l0.4-1.3
		c0.6,0.4,1.6,0.7,2.7,0.7c1.7,0,3-0.9,3-3.2v-1h0c-0.5,0.9-1.5,1.5-2.9,1.5c-2.3,0-3.9-1.9-3.9-4.5c0-3.1,2-4.9,4.1-4.9
		c1.6,0,2.5,0.8,2.9,1.6h0l0.1-1.4H96.5z M94.8,215.2c0-0.3,0-0.5-0.1-0.8c-0.3-1-1.1-1.8-2.3-1.8c-1.6,0-2.7,1.3-2.7,3.5
		c0,1.8,0.9,3.3,2.7,3.3c1,0,2-0.6,2.3-1.7c0.1-0.3,0.1-0.6,0.1-0.9V215.2z"/>
	<path d="M100.1,216.5c0,2.3,1.5,3.2,3.2,3.2c1.2,0,1.9-0.2,2.5-0.5l0.3,1.2c-0.6,0.3-1.6,0.6-3.1,0.6c-2.8,0-4.5-1.9-4.5-4.6
		s1.6-5,4.3-5c3,0,3.8,2.6,3.8,4.3c0,0.3,0,0.6-0.1,0.8H100.1z M105,215.3c0-1.1-0.4-2.7-2.3-2.7c-1.7,0-2.4,1.6-2.6,2.7H105z"/>
	<path d="M60.8,242.4h-2.5v-0.9h6v0.9h-2.5v7.2h-1.1V242.4z"/>
	<path d="M69.6,246.6c0,2.1-1.5,3.1-2.9,3.1c-1.6,0-2.8-1.2-2.8-3c0-1.9,1.3-3.1,2.9-3.1C68.4,243.7,69.6,244.9,69.6,246.6z
		 M65,246.7c0,1.3,0.7,2.2,1.8,2.2c1,0,1.8-0.9,1.8-2.3c0-1-0.5-2.2-1.7-2.2C65.5,244.5,65,245.6,65,246.7z"/>
	<path d="M78.3,248c0,0.6,0,1.1,0,1.6h-0.9l-0.1-0.9h0c-0.3,0.5-0.9,1.1-1.9,1.1c-0.9,0-2-0.5-2-2.5v-3.4h1.1v3.2
		c0,1.1,0.3,1.8,1.3,1.8c0.7,0,1.2-0.5,1.4-1c0.1-0.2,0.1-0.3,0.1-0.5v-3.6h1.1V248z"/>
	<path d="M79.9,248.5c0.3,0.2,0.9,0.4,1.4,0.4c0.8,0,1.1-0.4,1.1-0.9c0-0.5-0.3-0.8-1.1-1.1c-1-0.4-1.5-0.9-1.5-1.6
		c0-0.9,0.8-1.7,2-1.7c0.6,0,1.1,0.2,1.4,0.4l-0.3,0.8c-0.2-0.1-0.6-0.3-1.2-0.3c-0.6,0-1,0.4-1,0.8c0,0.5,0.3,0.7,1.1,1
		c1,0.4,1.5,0.9,1.5,1.8c0,1-0.8,1.7-2.2,1.7c-0.6,0-1.2-0.2-1.6-0.4L79.9,248.5z"/>
	<path d="M85.4,246.9c0,1.4,0.9,2,2,2c0.8,0,1.2-0.1,1.6-0.3l0.2,0.8c-0.4,0.2-1,0.4-1.9,0.4c-1.8,0-2.9-1.2-2.9-2.9s1-3.1,2.7-3.1
		c1.9,0,2.4,1.7,2.4,2.7c0,0.2,0,0.4,0,0.5H85.4z M88.5,246.1c0-0.7-0.3-1.7-1.5-1.7c-1.1,0-1.5,1-1.6,1.7H88.5z"/>
	<path d="M94.5,242.2c0,0.4-0.3,0.6-0.7,0.6c-0.4,0-0.6-0.3-0.6-0.6c0-0.4,0.3-0.7,0.7-0.7C94.3,241.5,94.5,241.8,94.5,242.2z
		 M93.4,249.6v-5.8h1.1v5.8H93.4z"/>
	<path d="M97.5,242.1v1.7H99v0.8h-1.5v3.1c0,0.7,0.2,1.1,0.8,1.1c0.3,0,0.5,0,0.6-0.1l0,0.8c-0.2,0.1-0.5,0.1-0.9,0.1
		c-0.5,0-0.9-0.2-1.1-0.4c-0.3-0.3-0.4-0.8-0.4-1.5v-3.2h-0.9v-0.8h0.9v-1.4L97.5,242.1z"/>
	<path d="M99.4,251.1c0.3-0.7,0.6-2,0.7-2.9l1.2-0.1c-0.3,1-0.8,2.4-1.1,2.9L99.4,251.1z"/>
	<path d="M106.4,242.1v1.7h1.5v0.8h-1.5v3.1c0,0.7,0.2,1.1,0.8,1.1c0.3,0,0.5,0,0.6-0.1l0,0.8c-0.2,0.1-0.5,0.1-0.9,0.1
		c-0.5,0-0.9-0.2-1.1-0.4c-0.3-0.3-0.4-0.8-0.4-1.5v-3.2h-0.9v-0.8h0.9v-1.4L106.4,242.1z"/>
	<path d="M109.6,243.8l1.3,3.4c0.1,0.4,0.3,0.8,0.4,1.2h0c0.1-0.3,0.2-0.8,0.4-1.2l1.2-3.4h1.1l-1.6,4.1c-0.8,2-1.3,3-2,3.6
		c-0.5,0.5-1,0.6-1.3,0.7l-0.3-0.9c0.3-0.1,0.6-0.3,0.9-0.5c0.3-0.2,0.6-0.6,0.9-1.2c0-0.1,0.1-0.2,0.1-0.3c0-0.1,0-0.1-0.1-0.3
		l-2.1-5.3H109.6z"/>
	<path d="M114.9,245.7c0-0.7,0-1.3,0-1.9h0.9l0,1h0c0.4-0.7,1.1-1.1,2.1-1.1c1.4,0,2.5,1.2,2.5,3c0,2.1-1.3,3.1-2.6,3.1
		c-0.8,0-1.4-0.3-1.8-0.9h0v3.2h-1V245.7z M115.9,247.2c0,0.2,0,0.3,0,0.4c0.2,0.7,0.8,1.2,1.6,1.2c1.1,0,1.8-0.9,1.8-2.2
		c0-1.2-0.6-2.2-1.7-2.2c-0.7,0-1.4,0.5-1.6,1.3c0,0.1-0.1,0.3-0.1,0.4V247.2z"/>
	<path d="M122.3,246.9c0,1.4,0.9,2,2,2c0.8,0,1.2-0.1,1.6-0.3l0.2,0.8c-0.4,0.2-1,0.4-1.9,0.4c-1.8,0-2.9-1.2-2.9-2.9s1-3.1,2.7-3.1
		c1.9,0,2.4,1.7,2.4,2.7c0,0.2,0,0.4,0,0.5H122.3z M125.4,246.1c0-0.7-0.3-1.7-1.5-1.7c-1.1,0-1.5,1-1.6,1.7H125.4z"/>
	<path d="M131.5,242.1v1.7h1.5v0.8h-1.5v3.1c0,0.7,0.2,1.1,0.8,1.1c0.3,0,0.5,0,0.6-0.1l0,0.8c-0.2,0.1-0.5,0.1-0.9,0.1
		c-0.5,0-0.9-0.2-1.1-0.4c-0.3-0.3-0.4-0.8-0.4-1.5v-3.2h-0.9v-0.8h0.9v-1.4L131.5,242.1z"/>
	<path d="M134.2,241.1h1.1v3.6h0c0.2-0.3,0.4-0.6,0.8-0.7c0.3-0.2,0.7-0.3,1.1-0.3c0.8,0,2,0.5,2,2.5v3.5h-1.1v-3.3
		c0-0.9-0.3-1.7-1.3-1.7c-0.7,0-1.2,0.5-1.4,1.1c-0.1,0.1-0.1,0.3-0.1,0.5v3.5h-1.1V241.1z"/>
	<path d="M141.5,246.9c0,1.4,0.9,2,2,2c0.8,0,1.2-0.1,1.6-0.3l0.2,0.8c-0.4,0.2-1,0.4-1.9,0.4c-1.8,0-2.9-1.2-2.9-2.9s1-3.1,2.7-3.1
		c1.9,0,2.4,1.7,2.4,2.7c0,0.2,0,0.4,0,0.5H141.5z M144.6,246.1c0-0.7-0.3-1.7-1.5-1.7c-1.1,0-1.5,1-1.6,1.7H144.6z"/>
	<path d="M149.3,248.5c0.3,0.2,0.9,0.4,1.4,0.4c0.8,0,1.1-0.4,1.1-0.9c0-0.5-0.3-0.8-1.1-1.1c-1-0.4-1.5-0.9-1.5-1.6
		c0-0.9,0.8-1.7,2-1.7c0.6,0,1.1,0.2,1.4,0.4l-0.3,0.8c-0.2-0.1-0.6-0.3-1.2-0.3c-0.6,0-1,0.4-1,0.8c0,0.5,0.3,0.7,1.1,1
		c1,0.4,1.5,0.9,1.5,1.8c0,1-0.8,1.7-2.2,1.7c-0.6,0-1.2-0.2-1.6-0.4L149.3,248.5z"/>
	<path d="M154.8,246.9c0,1.4,0.9,2,2,2c0.8,0,1.2-0.1,1.6-0.3l0.2,0.8c-0.4,0.2-1,0.4-1.9,0.4c-1.8,0-2.9-1.2-2.9-2.9s1-3.1,2.7-3.1
		c1.9,0,2.4,1.7,2.4,2.7c0,0.2,0,0.4,0,0.5H154.8z M157.9,246.1c0-0.7-0.3-1.7-1.5-1.7c-1.1,0-1.5,1-1.6,1.7H157.9z"/>
	<path d="M163.4,249.6l-0.1-0.7h0c-0.3,0.5-0.9,0.9-1.8,0.9c-1.2,0-1.8-0.8-1.8-1.7c0-1.4,1.2-2.2,3.5-2.2v-0.1
		c0-0.5-0.1-1.3-1.3-1.3c-0.5,0-1.1,0.2-1.5,0.4l-0.2-0.7c0.5-0.3,1.2-0.5,1.9-0.5c1.8,0,2.2,1.2,2.2,2.4v2.2c0,0.5,0,1,0.1,1.4
		H163.4z M163.3,246.6c-1.2,0-2.5,0.2-2.5,1.3c0,0.7,0.5,1,1,1c0.8,0,1.2-0.5,1.4-1c0-0.1,0.1-0.2,0.1-0.3V246.6z"/>
	<path d="M166,245.6c0-0.7,0-1.3,0-1.8h0.9l0,1.1h0c0.3-0.8,0.9-1.3,1.6-1.3c0.1,0,0.2,0,0.3,0v1c-0.1,0-0.2,0-0.4,0
		c-0.7,0-1.3,0.6-1.4,1.4c0,0.1,0,0.3,0,0.5v3.1h-1V245.6z"/>
	<path d="M173.9,249.4c-0.3,0.1-0.9,0.3-1.7,0.3c-1.8,0-2.9-1.2-2.9-3c0-1.8,1.2-3.1,3.1-3.1c0.6,0,1.2,0.2,1.5,0.3l-0.2,0.8
		c-0.3-0.1-0.6-0.3-1.2-0.3c-1.3,0-2.1,1-2.1,2.2c0,1.3,0.9,2.2,2,2.2c0.6,0,1-0.2,1.3-0.3L173.9,249.4z"/>
	<path d="M175.2,241.1h1.1v3.6h0c0.2-0.3,0.4-0.6,0.8-0.7c0.3-0.2,0.7-0.3,1.1-0.3c0.8,0,2,0.5,2,2.5v3.5h-1.1v-3.3
		c0-0.9-0.3-1.7-1.3-1.7c-0.7,0-1.2,0.5-1.4,1.1c-0.1,0.1-0.1,0.3-0.1,0.5v3.5h-1.1V241.1z"/>
	<path d="M188.3,248.7L188.3,248.7c-0.3,0.6-1,1-1.9,1c-1.4,0-2.5-1.2-2.5-2.9c0-2.2,1.4-3.1,2.6-3.1c0.9,0,1.5,0.4,1.8,1h0l0-0.9h1
		c0,0.5,0,1,0,1.6v6.6h-1.1V248.7z M188.3,246.1c0-0.1,0-0.3,0-0.4c-0.2-0.6-0.7-1.2-1.5-1.2c-1.1,0-1.8,0.9-1.8,2.2
		c0,1.2,0.6,2.2,1.7,2.2c0.7,0,1.3-0.4,1.5-1.2c0-0.1,0.1-0.3,0.1-0.5V246.1z"/>
	<path d="M196,248c0,0.6,0,1.1,0,1.6h-0.9l-0.1-0.9h0c-0.3,0.5-0.9,1.1-1.9,1.1c-0.9,0-2-0.5-2-2.5v-3.4h1.1v3.2
		c0,1.1,0.3,1.8,1.3,1.8c0.7,0,1.2-0.5,1.4-1c0.1-0.2,0.1-0.3,0.1-0.5v-3.6h1.1V248z"/>
	<path d="M198.3,246.9c0,1.4,0.9,2,2,2c0.8,0,1.2-0.1,1.6-0.3l0.2,0.8c-0.4,0.2-1,0.4-1.9,0.4c-1.8,0-2.9-1.2-2.9-2.9s1-3.1,2.7-3.1
		c1.9,0,2.4,1.7,2.4,2.7c0,0.2,0,0.4,0,0.5H198.3z M201.4,246.1c0-0.7-0.3-1.7-1.5-1.7c-1.1,0-1.5,1-1.6,1.7H201.4z"/>
	<path d="M203.8,245.6c0-0.7,0-1.3,0-1.8h0.9l0,1.1h0c0.3-0.8,0.9-1.3,1.6-1.3c0.1,0,0.2,0,0.3,0v1c-0.1,0-0.2,0-0.4,0
		c-0.7,0-1.3,0.6-1.4,1.4c0,0.1,0,0.3,0,0.5v3.1h-1V245.6z"/>
	<path d="M208.4,243.8l1.3,3.4c0.1,0.4,0.3,0.8,0.4,1.2h0c0.1-0.3,0.2-0.8,0.4-1.2l1.2-3.4h1.1l-1.6,4.1c-0.8,2-1.3,3-2,3.6
		c-0.5,0.5-1,0.6-1.3,0.7l-0.3-0.9c0.3-0.1,0.6-0.3,0.9-0.5c0.3-0.2,0.6-0.6,0.9-1.2c0-0.1,0.1-0.2,0.1-0.3c0-0.1,0-0.1-0.1-0.3
		l-2.1-5.3H208.4z"/>
	<path d="M217.4,242.2c0,0.4-0.3,0.6-0.7,0.6c-0.4,0-0.6-0.3-0.6-0.6c0-0.4,0.3-0.7,0.7-0.7C217.1,241.5,217.4,241.8,217.4,242.2z
		 M216.2,249.6v-5.8h1.1v5.8H216.2z"/>
	<path d="M219,245.4c0-0.6,0-1.1,0-1.6h0.9l0.1,1h0c0.3-0.6,1-1.1,1.9-1.1c0.8,0,2.1,0.5,2.1,2.5v3.5h-1.1v-3.3
		c0-0.9-0.3-1.7-1.3-1.7c-0.7,0-1.2,0.5-1.4,1.1c0,0.1-0.1,0.3-0.1,0.5v3.5H219V245.4z"/>
	<path d="M229.5,242.1v1.7h1.5v0.8h-1.5v3.1c0,0.7,0.2,1.1,0.8,1.1c0.3,0,0.5,0,0.6-0.1l0,0.8c-0.2,0.1-0.5,0.1-0.9,0.1
		c-0.5,0-0.9-0.2-1.1-0.4c-0.3-0.3-0.4-0.8-0.4-1.5v-3.2h-0.9v-0.8h0.9v-1.4L229.5,242.1z"/>
	<path d="M232.2,241.1h1.1v3.6h0c0.2-0.3,0.4-0.6,0.8-0.7c0.3-0.2,0.7-0.3,1.1-0.3c0.8,0,2,0.5,2,2.5v3.5H236v-3.3
		c0-0.9-0.3-1.7-1.3-1.7c-0.7,0-1.2,0.5-1.4,1.1c-0.1,0.1-0.1,0.3-0.1,0.5v3.5h-1.1V241.1z"/>
	<path d="M239.4,246.9c0,1.4,0.9,2,2,2c0.8,0,1.2-0.1,1.6-0.3l0.2,0.8c-0.4,0.2-1,0.4-1.9,0.4c-1.8,0-2.9-1.2-2.9-2.9s1-3.1,2.7-3.1
		c1.9,0,2.4,1.7,2.4,2.7c0,0.2,0,0.4,0,0.5H239.4z M242.5,246.1c0-0.7-0.3-1.7-1.5-1.7c-1.1,0-1.5,1-1.6,1.7H242.5z"/>
	<path d="M247.5,249.6v-5h-0.8v-0.8h0.8v-0.3c0-1.5,0.9-2.5,2.5-2.5c0.5,0,1.2,0.2,1.5,0.4l-0.3,0.8c-0.3-0.2-0.7-0.3-1.2-0.3
		c-1.1,0-1.4,0.8-1.4,1.7v0.3h3.4v5.8h-1v-5h-2.3v5H247.5z"/>
	<path d="M253.7,245.6c0-0.7,0-1.3,0-1.8h0.9l0,1.1h0c0.3-0.8,0.9-1.3,1.6-1.3c0.1,0,0.2,0,0.3,0v1c-0.1,0-0.2,0-0.4,0
		c-0.7,0-1.3,0.6-1.4,1.4c0,0.1,0,0.3,0,0.5v3.1h-1V245.6z"/>
	<path d="M257.4,248.5c0.3,0.2,0.9,0.4,1.4,0.4c0.8,0,1.1-0.4,1.1-0.9c0-0.5-0.3-0.8-1.1-1.1c-1-0.4-1.5-0.9-1.5-1.6
		c0-0.9,0.8-1.7,2-1.7c0.6,0,1.1,0.2,1.4,0.4l-0.3,0.8c-0.2-0.1-0.6-0.3-1.2-0.3c-0.6,0-1,0.4-1,0.8c0,0.5,0.3,0.7,1.1,1
		c1,0.4,1.5,0.9,1.5,1.8c0,1-0.8,1.7-2.2,1.7c-0.6,0-1.2-0.2-1.6-0.4L257.4,248.5z"/>
	<path d="M263.6,242.1v1.7h1.5v0.8h-1.5v3.1c0,0.7,0.2,1.1,0.8,1.1c0.3,0,0.5,0,0.6-0.1l0,0.8c-0.2,0.1-0.5,0.1-0.9,0.1
		c-0.5,0-0.9-0.2-1.1-0.4c-0.3-0.3-0.4-0.8-0.4-1.5v-3.2h-0.9v-0.8h0.9v-1.4L263.6,242.1z"/>
	<path d="M269,249.6v-5h-0.8v-0.8h0.8v-0.3c0-1.5,0.9-2.5,2.5-2.5c0.5,0,1.2,0.2,1.5,0.4l-0.3,0.8c-0.3-0.2-0.7-0.3-1.2-0.3
		c-1.1,0-1.4,0.8-1.4,1.7v0.3h3.4v5.8h-1v-5H270v5H269z"/>
	<path d="M275.7,246.9c0,1.4,0.9,2,2,2c0.8,0,1.2-0.1,1.6-0.3l0.2,0.8c-0.4,0.2-1,0.4-1.9,0.4c-1.8,0-2.9-1.2-2.9-2.9s1-3.1,2.7-3.1
		c1.9,0,2.4,1.7,2.4,2.7c0,0.2,0,0.4,0,0.5H275.7z M278.8,246.1c0-0.7-0.3-1.7-1.5-1.7c-1.1,0-1.5,1-1.6,1.7H278.8z"/>
	<path d="M281.1,241.1h1.1v8.5h-1.1V241.1z"/>
	<path d="M289,241.1v7c0,0.5,0,1.1,0,1.5h-0.9l0-1h0c-0.3,0.6-1,1.1-2,1.1c-1.4,0-2.5-1.2-2.5-3c0-1.9,1.2-3.1,2.6-3.1
		c0.9,0,1.5,0.4,1.8,0.9h0v-3.5H289z M287.9,246.2c0-0.1,0-0.3,0-0.4c-0.2-0.7-0.7-1.2-1.5-1.2c-1.1,0-1.7,1-1.7,2.2
		c0,1.2,0.6,2.1,1.7,2.1c0.7,0,1.4-0.5,1.5-1.3c0-0.1,0-0.3,0-0.5V246.2z"/>
	<path d="M290.4,249c0-0.4,0.3-0.8,0.7-0.8c0.4,0,0.7,0.3,0.7,0.8c0,0.4-0.3,0.8-0.7,0.8C290.6,249.7,290.4,249.4,290.4,249z"/>
	<path d="M59,264v-8.1h1.4l1.2,3.2c0.2,0.6,0.6,1.7,0.9,2.4h0c0-0.9-0.2-2.3-0.2-3.7v-1.8h1.4v8.1h-1.4l-1.2-3.1
		c-0.3-0.7-0.6-1.7-0.8-2.4h0c0,0.8,0.1,2.1,0.1,3.7v1.8H59z"/>
	<path d="M69.3,261c0,2.4-1.4,3-2.2,3c-1.4,0-2.2-1.1-2.2-3c0-2.1,1.1-3,2.3-3C68.5,258,69.3,259.2,69.3,261z M66.4,261
		c0,1,0.2,1.8,0.7,1.8c0.5,0,0.6-1,0.6-1.8c0-0.8-0.1-1.8-0.7-1.8C66.5,259.2,66.4,260.2,66.4,261z"/>
	<path d="M72,256.6v1.6h1.2v1.1H72v2.7c0,0.7,0.3,0.9,0.6,0.9c0.2,0,0.3,0,0.4,0l0,1.2c-0.2,0.1-0.5,0.1-1,0.1
		c-0.5,0-0.9-0.1-1.1-0.4c-0.3-0.3-0.5-0.8-0.5-1.7v-2.8h-0.7v-1.1h0.7v-1.2L72,256.6z"/>
	<path d="M75.2,261.6c0,0.9,0.6,1.2,1.2,1.2c0.4,0,0.8-0.1,1.1-0.2l0.2,1.1c-0.4,0.2-1,0.3-1.6,0.3c-1.6,0-2.5-1.1-2.5-2.9
		c0-2,1-3.1,2.4-3.1c1.3,0,2,1,2,2.8c0,0.4,0,0.6,0,0.8H75.2z M76.6,260.5c0-0.8-0.2-1.3-0.7-1.3c-0.5,0-0.7,0.8-0.7,1.3H76.6z"/>
	<path d="M78.9,259.2c0-0.4,0.3-0.8,0.7-0.8s0.7,0.3,0.7,0.8c0,0.4-0.3,0.7-0.7,0.7C79.2,259.9,78.9,259.6,78.9,259.2z M78.9,263.4
		c0-0.4,0.3-0.8,0.7-0.8s0.7,0.3,0.7,0.8c0,0.4-0.3,0.7-0.7,0.7C79.2,264.1,78.9,263.8,78.9,263.4z"/>
	<path d="M84.5,256.7v1.5h1.1v0.7h-1.1v3.4c0,0.8,0.3,1,0.6,1c0.1,0,0.3,0,0.4,0l0,0.7c-0.2,0.1-0.4,0.1-0.7,0.1
		c-0.4,0-0.7-0.1-0.9-0.3c-0.2-0.3-0.3-0.7-0.3-1.5v-3.4h-0.7v-0.7h0.7v-1.3L84.5,256.7z"/>
	<path d="M86.4,255.7h0.9v3.1h0c0.1-0.2,0.3-0.4,0.5-0.5c0.2-0.1,0.4-0.2,0.8-0.2c0.7,0,1.4,0.6,1.4,2.1v3.8H89v-3.7
		c0-0.7-0.2-1.4-0.8-1.4c-0.4,0-0.8,0.3-0.9,0.9c0,0.1,0,0.3,0,0.4v3.8h-0.9V255.7z"/>
	<path d="M91.9,261.2c0,1.8,0.7,2.2,1.4,2.2c0.4,0,0.7-0.1,1-0.2l0.1,0.7c-0.3,0.2-0.8,0.3-1.3,0.3c-1.4,0-2.1-1.1-2.1-2.9
		c0-1.9,0.8-3.1,2-3.1c1.2,0,1.7,1.2,1.7,2.6c0,0.2,0,0.4,0,0.5H91.9z M93.7,260.5c0-1.2-0.4-1.7-0.9-1.7c-0.6,0-0.9,0.9-0.9,1.7
		H93.7z"/>
	<path d="M97.5,255.7h0.9v8.3h-0.9V255.7z"/>
	<path d="M103.4,261.1c0,2.2-1,3-1.9,3c-1,0-1.9-0.9-1.9-3c0-2.1,0.9-3,1.9-3C102.5,258.1,103.4,259.1,103.4,261.1z M100.5,261.1
		c0,1,0.2,2.3,1,2.3c0.8,0,0.9-1.4,0.9-2.3c0-0.9-0.2-2.3-1-2.3C100.6,258.8,100.5,260.2,100.5,261.1z"/>
	<path d="M108,261.1c0,2.2-1,3-1.9,3c-1,0-1.9-0.9-1.9-3c0-2.1,0.9-3,1.9-3C107.1,258.1,108,259.1,108,261.1z M105.1,261.1
		c0,1,0.2,2.3,1,2.3c0.8,0,0.9-1.4,0.9-2.3c0-0.9-0.2-2.3-1-2.3C105.2,258.8,105.1,260.2,105.1,261.1z"/>
	<path d="M109.9,260.9L109.9,260.9c0.1-0.2,0.2-0.5,0.3-0.6l1.2-2.1h1l-1.5,2.4l1.7,3.4h-1l-1.3-2.7l-0.3,0.5v2.2H109v-8.3h0.9
		V260.9z"/>
	<path d="M116.7,262.4c0,0.6,0,1.2,0,1.6h-0.8l-0.1-0.6h0c-0.2,0.3-0.6,0.7-1.2,0.7c-1,0-1.4-0.8-1.4-2.2v-3.7h0.9v3.5
		c0,0.9,0.1,1.6,0.8,1.6c0.5,0,0.8-0.5,0.8-0.8c0-0.2,0-0.3,0-0.5v-3.8h0.9V262.4z"/>
	<path d="M117.9,260c0-0.9,0-1.4,0-1.8h0.8l0,0.7h0c0.3-0.6,0.8-0.8,1.2-0.8c1,0,1.7,1.1,1.7,3c0,2.1-0.9,3-1.8,3
		c-0.5,0-0.9-0.3-1-0.7h0v2.9h-0.9V260z M118.9,261.9c0,0.2,0,0.3,0,0.5c0.2,0.8,0.6,1,0.9,1c0.8,0,1-1.1,1-2.2c0-1.2-0.3-2.2-1-2.2
		c-0.4,0-0.8,0.5-0.9,1.1c0,0.1,0,0.3,0,0.4V261.9z"/>
	<path d="M125.6,256.7c0,0.4-0.2,0.6-0.6,0.6c-0.3,0-0.5-0.2-0.5-0.6c0-0.4,0.2-0.6,0.5-0.6C125.4,256.1,125.6,256.3,125.6,256.7z
		 M124.6,264v-5.8h0.9v5.8H124.6z"/>
	<path d="M126.7,263c0.2,0.1,0.6,0.3,0.9,0.3c0.5,0,0.9-0.3,0.9-0.8c0-0.4-0.2-0.7-0.7-1.1c-0.8-0.5-1.2-1-1.2-1.7
		c0-0.9,0.7-1.6,1.6-1.6c0.5,0,0.8,0.2,1,0.3l-0.3,0.7c-0.2-0.1-0.5-0.3-0.8-0.3c-0.5,0-0.8,0.4-0.8,0.7c0,0.4,0.1,0.6,0.7,1
		c0.7,0.4,1.2,1,1.2,1.8c0,1.2-0.8,1.7-1.7,1.7c-0.4,0-0.9-0.1-1.2-0.3L126.7,263z"/>
	<path d="M132.2,260c0-0.9,0-1.4,0-1.8h0.8l0,0.7h0c0.3-0.6,0.8-0.8,1.2-0.8c1,0,1.7,1.1,1.7,3c0,2.1-0.9,3-1.8,3
		c-0.5,0-0.9-0.3-1-0.7h0v2.9h-0.9V260z M133.1,261.9c0,0.2,0,0.3,0,0.5c0.2,0.8,0.6,1,0.9,1c0.8,0,1-1.1,1-2.2c0-1.2-0.3-2.2-1-2.2
		c-0.4,0-0.8,0.5-0.9,1.1c0,0.1,0,0.3,0,0.4V261.9z"/>
	<path d="M137.6,261.2c0,1.8,0.7,2.2,1.4,2.2c0.4,0,0.7-0.1,1-0.2l0.1,0.7c-0.3,0.2-0.8,0.3-1.3,0.3c-1.4,0-2.1-1.1-2.1-2.9
		c0-1.9,0.8-3.1,2-3.1c1.2,0,1.7,1.2,1.7,2.6c0,0.2,0,0.4,0,0.5H137.6z M139.5,260.5c0-1.2-0.4-1.7-0.9-1.7c-0.6,0-0.9,0.9-0.9,1.7
		H139.5z"/>
	<path d="M141.3,259.7c0-0.5,0-1.1,0-1.5h0.8l0,0.9h0c0.2-0.6,0.7-1,1.2-1c0.1,0,0.1,0,0.2,0v0.9c-0.1,0-0.1,0-0.2,0
		c-0.6,0-1,0.5-1.1,1.2c0,0.2,0,0.3,0,0.5v3.2h-0.9V259.7z"/>
	<path d="M144.8,264v-5.1h-0.7v-0.7h0.7v-0.3c0-0.6,0.1-1.3,0.5-1.8c0.3-0.4,0.8-0.5,1.2-0.5c0.3,0,0.6,0.1,0.7,0.1l-0.2,0.7
		c-0.1,0-0.3-0.1-0.5-0.1c-0.7,0-0.8,0.7-0.8,1.5v0.4h1.1v0.7h-1.1v5.1H144.8z"/>
	<path d="M150.9,261.1c0,2.2-1,3-1.9,3c-1,0-1.9-0.9-1.9-3c0-2.1,0.9-3,1.9-3C150,258.1,150.9,259.1,150.9,261.1z M148,261.1
		c0,1,0.2,2.3,1,2.3c0.8,0,0.9-1.4,0.9-2.3c0-0.9-0.2-2.3-1-2.3C148.2,258.8,148,260.2,148,261.1z"/>
	<path d="M151.9,259.7c0-0.5,0-1.1,0-1.5h0.8l0,0.9h0c0.2-0.6,0.7-1,1.2-1c0.1,0,0.1,0,0.2,0v0.9c-0.1,0-0.1,0-0.2,0
		c-0.6,0-1,0.5-1.1,1.2c0,0.2,0,0.3,0,0.5v3.2h-0.9V259.7z"/>
	<path d="M154.9,259.7c0-0.7,0-1,0-1.5h0.8l0,0.7h0c0.3-0.5,0.7-0.8,1.3-0.8c0.5,0,1,0.3,1.2,0.9h0c0.2-0.3,0.4-0.5,0.6-0.7
		c0.2-0.2,0.5-0.2,0.8-0.2c0.8,0,1.4,0.6,1.4,2.1v3.8h-0.9v-3.6c0-0.8-0.1-1.5-0.8-1.5c-0.4,0-0.7,0.3-0.9,0.9c0,0.2,0,0.3,0,0.5
		v3.7h-0.9v-3.8c0-0.6-0.1-1.3-0.8-1.3c-0.4,0-0.8,0.3-0.9,0.9c0,0.2,0,0.3,0,0.5v3.7h-0.9V259.7z"/>
	<path d="M163,261.2c0,1.8,0.7,2.2,1.4,2.2c0.4,0,0.7-0.1,1-0.2l0.1,0.7c-0.3,0.2-0.8,0.3-1.3,0.3c-1.4,0-2.1-1.1-2.1-2.9
		c0-1.9,0.8-3.1,2-3.1c1.2,0,1.7,1.2,1.7,2.6c0,0.2,0,0.4,0,0.5H163z M164.8,260.5c0-1.2-0.4-1.7-0.9-1.7c-0.6,0-0.9,0.9-0.9,1.7
		H164.8z"/>
	<path d="M170.2,255.7v6.9c0,0.4,0,1.1,0,1.4h-0.8l-0.1-0.7h0c-0.2,0.4-0.6,0.8-1.2,0.8c-1,0-1.7-1.1-1.7-3c0-2.1,0.9-3,1.8-3
		c0.4,0,0.8,0.2,1.1,0.7h0v-3.1H170.2z M169.3,260.4c0-0.1,0-0.3,0-0.4c-0.1-0.6-0.4-1.1-0.9-1.1c-0.8,0-1,1.1-1,2.2
		c0,1.2,0.3,2.2,1,2.2c0.3,0,0.7-0.2,0.9-1c0-0.1,0-0.2,0-0.4V260.4z"/>
	<path d="M176.9,261.1c0,2.2-1,3-1.9,3c-1,0-1.9-0.9-1.9-3c0-2.1,0.9-3,1.9-3C176.1,258.1,176.9,259.1,176.9,261.1z M174,261.1
		c0,1,0.2,2.3,1,2.3c0.8,0,0.9-1.4,0.9-2.3c0-0.9-0.2-2.3-1-2.3C174.2,258.8,174,260.2,174,261.1z"/>
	<path d="M178,259.7c0-0.7,0-1,0-1.5h0.8l0,0.7h0c0.3-0.5,0.7-0.8,1.3-0.8c0.8,0,1.4,0.6,1.4,2v3.9h-0.9v-3.7c0-0.7-0.1-1.4-0.8-1.4
		c-0.4,0-0.8,0.3-0.9,0.9c0,0.1,0,0.3,0,0.5v3.7H178V259.7z"/>
	<path d="M185.8,256.7v1.5h1.1v0.7h-1.1v3.4c0,0.8,0.3,1,0.6,1c0.1,0,0.3,0,0.4,0l0,0.7c-0.2,0.1-0.4,0.1-0.7,0.1
		c-0.4,0-0.7-0.1-0.9-0.3c-0.2-0.3-0.3-0.7-0.3-1.5v-3.4h-0.7v-0.7h0.7v-1.3L185.8,256.7z"/>
	<path d="M187.8,255.7h0.9v3.1h0c0.1-0.2,0.3-0.4,0.5-0.5c0.2-0.1,0.4-0.2,0.8-0.2c0.7,0,1.4,0.6,1.4,2.1v3.8h-0.9v-3.7
		c0-0.7-0.2-1.4-0.8-1.4c-0.4,0-0.8,0.3-0.9,0.9c0,0.1,0,0.3,0,0.4v3.8h-0.9V255.7z"/>
	<path d="M193.3,261.2c0,1.8,0.7,2.2,1.4,2.2c0.4,0,0.7-0.1,1-0.2l0.1,0.7c-0.3,0.2-0.8,0.3-1.3,0.3c-1.4,0-2.1-1.1-2.1-2.9
		c0-1.9,0.8-3.1,2-3.1c1.2,0,1.7,1.2,1.7,2.6c0,0.2,0,0.4,0,0.5H193.3z M195.1,260.5c0-1.2-0.4-1.7-0.9-1.7c-0.6,0-0.9,0.9-0.9,1.7
		H195.1z"/>
	<path d="M198.9,255.9h0.9v7.3h2.3v0.8h-3.2V255.9z"/>
	<path d="M206.4,261.1c0,2.2-1,3-1.9,3c-1,0-1.9-0.9-1.9-3c0-2.1,0.9-3,1.9-3C205.5,258.1,206.4,259.1,206.4,261.1z M203.5,261.1
		c0,1,0.2,2.3,1,2.3c0.8,0,0.9-1.4,0.9-2.3c0-0.9-0.2-2.3-1-2.3C203.6,258.8,203.5,260.2,203.5,261.1z"/>
	<path d="M207.4,259.7c0-0.7,0-1,0-1.5h0.8l0,0.7h0c0.3-0.5,0.7-0.8,1.3-0.8c0.8,0,1.4,0.6,1.4,2v3.9H210v-3.7
		c0-0.7-0.1-1.4-0.8-1.4c-0.4,0-0.8,0.3-0.9,0.9c0,0.1,0,0.3,0,0.5v3.7h-0.9V259.7z"/>
	<path d="M215.8,258.2c0,0.4,0,0.9,0,1.8v3.3c0,1.5-0.2,2.1-0.6,2.5c-0.3,0.4-0.9,0.6-1.5,0.6c-0.5,0-1-0.1-1.3-0.3l0.2-0.7
		c0.2,0.1,0.6,0.3,1.1,0.3c0.7,0,1.2-0.5,1.2-1.8v-0.6h0c-0.2,0.5-0.6,0.7-1.1,0.7c-1,0-1.7-1.2-1.7-2.9c0-2.1,1-3,1.8-3
		c0.6,0,0.9,0.4,1.1,0.8h0l0-0.7H215.8z M214.8,260.2c0-0.1,0-0.3,0-0.4c-0.1-0.4-0.3-0.9-0.8-0.9c-0.7,0-1,0.9-1,2.2
		c0,1.5,0.5,2.2,1,2.2c0.3,0,0.6-0.1,0.8-0.8c0-0.2,0.1-0.4,0.1-0.5V260.2z"/>
	<path d="M219,256c0.4-0.1,0.8-0.2,1.2-0.2c0.9,0,1.5,0.2,1.9,0.6c0.6,0.5,1.1,1.6,1.1,3.3c0,1.8-0.5,2.9-1,3.4
		c-0.5,0.6-1.3,0.9-2.2,0.9c-0.4,0-0.8,0-1-0.1V256z M219.9,263.2c0.1,0,0.3,0,0.3,0c1,0,2-0.7,2-3.5c0-2-0.6-3.2-1.9-3.2
		c-0.1,0-0.3,0-0.4,0V263.2z"/>
	<path d="M225,261.2c0,1.8,0.7,2.2,1.4,2.2c0.4,0,0.7-0.1,1-0.2l0.1,0.7c-0.3,0.2-0.8,0.3-1.3,0.3c-1.4,0-2.1-1.1-2.1-2.9
		c0-1.9,0.8-3.1,2-3.1c1.2,0,1.7,1.2,1.7,2.6c0,0.2,0,0.4,0,0.5H225z M226.8,260.5c0-1.2-0.4-1.7-0.9-1.7c-0.6,0-0.9,0.9-0.9,1.7
		H226.8z"/>
	<path d="M228.6,263c0.2,0.1,0.6,0.3,0.9,0.3c0.5,0,0.9-0.3,0.9-0.8c0-0.4-0.2-0.7-0.7-1.1c-0.8-0.5-1.2-1-1.2-1.7
		c0-0.9,0.7-1.6,1.6-1.6c0.5,0,0.8,0.2,1,0.3l-0.3,0.7c-0.2-0.1-0.5-0.3-0.8-0.3c-0.5,0-0.8,0.4-0.8,0.7c0,0.4,0.1,0.6,0.7,1
		c0.7,0.4,1.2,1,1.2,1.8c0,1.2-0.8,1.7-1.7,1.7c-0.4,0-0.9-0.1-1.2-0.3L228.6,263z"/>
	<path d="M235,263.9c-0.2,0.1-0.6,0.2-1,0.2c-1.3,0-2.1-1-2.1-2.9c0-1.7,0.8-3,2.3-3c0.3,0,0.6,0.1,0.8,0.2l-0.2,0.8
		c-0.1-0.1-0.4-0.2-0.7-0.2c-0.9,0-1.3,1.1-1.3,2.2c0,1.4,0.5,2.2,1.4,2.2c0.3,0,0.5-0.1,0.7-0.2L235,263.9z"/>
	<path d="M235.8,259.7c0-0.5,0-1.1,0-1.5h0.8l0,0.9h0c0.2-0.6,0.7-1,1.2-1c0.1,0,0.1,0,0.2,0v0.9c-0.1,0-0.1,0-0.2,0
		c-0.6,0-1,0.5-1.1,1.2c0,0.2,0,0.3,0,0.5v3.2h-0.9V259.7z"/>
	<path d="M239.8,256.7c0,0.4-0.2,0.6-0.6,0.6c-0.3,0-0.5-0.2-0.5-0.6c0-0.4,0.2-0.6,0.5-0.6C239.6,256.1,239.8,256.3,239.8,256.7z
		 M238.8,264v-5.8h0.9v5.8H238.8z"/>
	<path d="M241,260c0-0.9,0-1.4,0-1.8h0.8l0,0.7h0c0.3-0.6,0.8-0.8,1.2-0.8c1,0,1.7,1.1,1.7,3c0,2.1-0.9,3-1.8,3
		c-0.5,0-0.9-0.3-1-0.7h0v2.9H241V260z M241.9,261.9c0,0.2,0,0.3,0,0.5c0.2,0.8,0.6,1,0.9,1c0.8,0,1-1.1,1-2.2c0-1.2-0.3-2.2-1-2.2
		c-0.4,0-0.8,0.5-0.9,1.1c0,0.1,0,0.3,0,0.4V261.9z"/>
	<path d="M246.9,256.7v1.5h1.1v0.7h-1.1v3.4c0,0.8,0.3,1,0.6,1c0.1,0,0.3,0,0.4,0l0,0.7c-0.2,0.1-0.4,0.1-0.7,0.1
		c-0.4,0-0.7-0.1-0.9-0.3c-0.2-0.3-0.3-0.7-0.3-1.5v-3.4h-0.7v-0.7h0.7v-1.3L246.9,256.7z"/>
	<path d="M249.8,256.7c0,0.4-0.2,0.6-0.6,0.6c-0.3,0-0.5-0.2-0.5-0.6c0-0.4,0.2-0.6,0.5-0.6C249.6,256.1,249.8,256.3,249.8,256.7z
		 M248.8,264v-5.8h0.9v5.8H248.8z"/>
	<path d="M254.6,261.1c0,2.2-1,3-1.9,3c-1,0-1.9-0.9-1.9-3c0-2.1,0.9-3,1.9-3C253.8,258.1,254.6,259.1,254.6,261.1z M251.7,261.1
		c0,1,0.2,2.3,1,2.3c0.8,0,0.9-1.4,0.9-2.3c0-0.9-0.2-2.3-1-2.3C251.9,258.8,251.7,260.2,251.7,261.1z"/>
	<path d="M255.6,259.7c0-0.7,0-1,0-1.5h0.8l0,0.7h0c0.3-0.5,0.7-0.8,1.3-0.8c0.8,0,1.4,0.6,1.4,2v3.9h-0.9v-3.7
		c0-0.7-0.1-1.4-0.8-1.4c-0.4,0-0.8,0.3-0.9,0.9c0,0.1,0,0.3,0,0.5v3.7h-0.9V259.7z"/>
	<path d="M62.5,275.5c0,2.2-1,3-1.9,3c-1,0-1.9-0.9-1.9-3c0-2.1,0.9-3,1.9-3C61.7,272.5,62.5,273.5,62.5,275.5z M59.7,275.5
		c0,1,0.2,2.3,1,2.3c0.8,0,0.9-1.4,0.9-2.3c0-0.9-0.2-2.3-1-2.3C59.8,273.2,59.7,274.6,59.7,275.5z"/>
	<path d="M63.8,278.4v-5.1H63v-0.7h0.7v-0.3c0-0.6,0.1-1.3,0.5-1.8c0.3-0.4,0.8-0.5,1.2-0.5c0.3,0,0.6,0.1,0.7,0.1l-0.2,0.7
		c-0.1,0-0.3-0.1-0.5-0.1c-0.7,0-0.8,0.7-0.8,1.5v0.4h1.1v0.7h-1.1v5.1H63.8z"/>
	<path d="M69.3,271.1v1.5h1.1v0.7h-1.1v3.4c0,0.8,0.3,1,0.6,1c0.1,0,0.3,0,0.4,0l0,0.7c-0.2,0.1-0.4,0.1-0.7,0.1
		c-0.4,0-0.7-0.1-0.9-0.3c-0.2-0.3-0.3-0.7-0.3-1.5v-3.4h-0.7v-0.7h0.7v-1.3L69.3,271.1z"/>
	<path d="M71.3,270.1h0.9v3.1h0c0.1-0.2,0.3-0.4,0.5-0.5c0.2-0.1,0.4-0.2,0.8-0.2c0.7,0,1.4,0.6,1.4,2.1v3.8h-0.9v-3.7
		c0-0.7-0.2-1.4-0.8-1.4c-0.4,0-0.8,0.3-0.9,0.9c0,0.1,0,0.3,0,0.4v3.8h-0.9V270.1z"/>
	<path d="M76.8,275.6c0,1.8,0.7,2.2,1.4,2.2c0.4,0,0.7-0.1,1-0.2l0.1,0.7c-0.3,0.2-0.8,0.3-1.3,0.3c-1.4,0-2.1-1.1-2.1-2.9
		c0-1.9,0.8-3.1,2-3.1c1.2,0,1.7,1.2,1.7,2.6c0,0.2,0,0.4,0,0.5H76.8z M78.6,274.9c0-1.2-0.4-1.7-0.9-1.7c-0.6,0-0.9,0.9-0.9,1.7
		H78.6z"/>
	<path d="M85.2,278.3c-0.2,0.1-0.6,0.2-1,0.2c-1.3,0-2.1-1-2.1-2.9c0-1.7,0.8-3,2.3-3c0.3,0,0.6,0.1,0.8,0.2l-0.2,0.8
		c-0.1-0.1-0.4-0.2-0.7-0.2c-0.9,0-1.3,1.1-1.3,2.2c0,1.4,0.5,2.2,1.4,2.2c0.3,0,0.5-0.1,0.7-0.2L85.2,278.3z"/>
	<path d="M89.5,275.5c0,2.2-1,3-1.9,3c-1,0-1.9-0.9-1.9-3c0-2.1,0.9-3,1.9-3C88.6,272.5,89.5,273.5,89.5,275.5z M86.6,275.5
		c0,1,0.2,2.3,1,2.3c0.8,0,0.9-1.4,0.9-2.3c0-0.9-0.2-2.3-1-2.3C86.7,273.2,86.6,274.6,86.6,275.5z"/>
	<path d="M90.5,270.1h0.9v8.3h-0.9V270.1z"/>
	<path d="M92.8,270.1h0.9v8.3h-0.9V270.1z"/>
	<path d="M95.7,275.6c0,1.8,0.7,2.2,1.4,2.2c0.4,0,0.7-0.1,1-0.2l0.1,0.7c-0.3,0.2-0.8,0.3-1.3,0.3c-1.4,0-2.1-1.1-2.1-2.9
		c0-1.9,0.8-3.1,2-3.1c1.2,0,1.7,1.2,1.7,2.6c0,0.2,0,0.4,0,0.5H95.7z M97.6,274.9c0-1.2-0.4-1.7-0.9-1.7c-0.6,0-0.9,0.9-0.9,1.7
		H97.6z"/>
	<path d="M102.3,278.3c-0.2,0.1-0.6,0.2-1,0.2c-1.3,0-2.1-1-2.1-2.9c0-1.7,0.8-3,2.3-3c0.3,0,0.6,0.1,0.8,0.2l-0.2,0.8
		c-0.1-0.1-0.4-0.2-0.7-0.2c-0.9,0-1.3,1.1-1.3,2.2c0,1.4,0.5,2.2,1.4,2.2c0.3,0,0.5-0.1,0.7-0.2L102.3,278.3z"/>
	<path d="M104.4,271.1v1.5h1.1v0.7h-1.1v3.4c0,0.8,0.3,1,0.6,1c0.1,0,0.3,0,0.4,0l0,0.7c-0.2,0.1-0.4,0.1-0.7,0.1
		c-0.4,0-0.7-0.1-0.9-0.3c-0.2-0.3-0.3-0.7-0.3-1.5v-3.4h-0.7v-0.7h0.7v-1.3L104.4,271.1z"/>
	<path d="M107.3,271.1c0,0.4-0.2,0.6-0.6,0.6c-0.3,0-0.5-0.2-0.5-0.6c0-0.4,0.2-0.6,0.5-0.6C107.1,270.5,107.3,270.7,107.3,271.1z
		 M106.3,278.4v-5.8h0.9v5.8H106.3z"/>
	<path d="M112.1,275.5c0,2.2-1,3-1.9,3c-1,0-1.9-0.9-1.9-3c0-2.1,0.9-3,1.9-3C111.2,272.5,112.1,273.5,112.1,275.5z M109.2,275.5
		c0,1,0.2,2.3,1,2.3c0.8,0,0.9-1.4,0.9-2.3c0-0.9-0.2-2.3-1-2.3C109.3,273.2,109.2,274.6,109.2,275.5z"/>
	<path d="M113.1,274.1c0-0.7,0-1,0-1.5h0.8l0,0.7h0c0.3-0.5,0.7-0.8,1.3-0.8c0.8,0,1.4,0.6,1.4,2v3.9h-0.9v-3.7
		c0-0.7-0.1-1.4-0.8-1.4c-0.4,0-0.8,0.3-0.9,0.9c0,0.1,0,0.3,0,0.5v3.7h-0.9V274.1z"/>
	<path d="M117.9,277.8c0-0.4,0.3-0.7,0.6-0.7c0.4,0,0.6,0.3,0.6,0.7s-0.2,0.7-0.6,0.7C118.2,278.5,117.9,278.2,117.9,277.8z"/>
	<path d="M61,307.2v-3.4l-2.6-4.7h1.2l1.1,2.2c0.3,0.6,0.6,1.1,0.8,1.7h0c0.2-0.5,0.5-1.1,0.8-1.7l1.2-2.2h1.2l-2.7,4.6v3.4H61z"/>
	<path d="M70,304.3c0,2.1-1.5,3.1-2.9,3.1c-1.6,0-2.8-1.2-2.8-3c0-1.9,1.3-3.1,2.9-3.1C68.9,301.3,70,302.5,70,304.3z M65.4,304.3
		c0,1.3,0.7,2.2,1.8,2.2c1,0,1.8-0.9,1.8-2.3c0-1-0.5-2.2-1.7-2.2C66,302.1,65.4,303.2,65.4,304.3z"/>
	<path d="M76.2,305.6c0,0.6,0,1.1,0,1.6h-0.9l-0.1-0.9h0c-0.3,0.5-0.9,1.1-1.9,1.1c-0.9,0-2-0.5-2-2.5v-3.4h1.1v3.2
		c0,1.1,0.3,1.8,1.3,1.8c0.7,0,1.2-0.5,1.4-1c0.1-0.2,0.1-0.3,0.1-0.5v-3.6h1.1V305.6z"/>
	<path d="M84.7,307c-0.3,0.1-0.9,0.3-1.7,0.3c-1.8,0-2.9-1.2-2.9-3c0-1.8,1.2-3.1,3.1-3.1c0.6,0,1.2,0.2,1.5,0.3l-0.2,0.8
		c-0.3-0.1-0.6-0.3-1.2-0.3c-1.3,0-2.1,1-2.1,2.2c0,1.3,0.9,2.2,2,2.2c0.6,0,1-0.2,1.3-0.3L84.7,307z"/>
	<path d="M89.1,307.2l-0.1-0.7h0c-0.3,0.5-0.9,0.9-1.8,0.9c-1.2,0-1.8-0.8-1.8-1.7c0-1.4,1.2-2.2,3.5-2.2v-0.1
		c0-0.5-0.1-1.3-1.3-1.3c-0.5,0-1.1,0.2-1.5,0.4l-0.2-0.7c0.5-0.3,1.2-0.5,1.9-0.5c1.8,0,2.2,1.2,2.2,2.4v2.2c0,0.5,0,1,0.1,1.4
		H89.1z M89,304.2c-1.2,0-2.5,0.2-2.5,1.3c0,0.7,0.5,1,1,1c0.8,0,1.2-0.5,1.4-1c0-0.1,0.1-0.2,0.1-0.3V304.2z"/>
	<path d="M91.7,303c0-0.6,0-1.1,0-1.6h0.9l0.1,1h0c0.3-0.6,1-1.1,1.9-1.1c0.8,0,2.1,0.5,2.1,2.5v3.5h-1.1v-3.3
		c0-0.9-0.3-1.7-1.3-1.7c-0.7,0-1.2,0.5-1.4,1.1c0,0.1-0.1,0.3-0.1,0.5v3.5h-1.1V303z"/>
	<path d="M105,307c-0.3,0.1-0.9,0.3-1.7,0.3c-1.8,0-2.9-1.2-2.9-3c0-1.8,1.2-3.1,3.1-3.1c0.6,0,1.2,0.2,1.5,0.3l-0.2,0.8
		c-0.3-0.1-0.6-0.3-1.2-0.3c-1.3,0-2.1,1-2.1,2.2c0,1.3,0.9,2.2,2,2.2c0.6,0,1-0.2,1.3-0.3L105,307z"/>
	<path d="M106.3,298.7h1.1v3.6h0c0.2-0.3,0.4-0.6,0.8-0.7c0.3-0.2,0.7-0.3,1.1-0.3c0.8,0,2,0.5,2,2.5v3.5h-1.1v-3.3
		c0-0.9-0.3-1.7-1.3-1.7c-0.7,0-1.2,0.5-1.4,1.1c-0.1,0.1-0.1,0.3-0.1,0.5v3.5h-1.1V298.7z"/>
	<path d="M118.2,304.3c0,2.1-1.5,3.1-2.9,3.1c-1.6,0-2.8-1.2-2.8-3c0-1.9,1.3-3.1,2.9-3.1C117.1,301.3,118.2,302.5,118.2,304.3z
		 M113.6,304.3c0,1.3,0.7,2.2,1.8,2.2c1,0,1.8-0.9,1.8-2.3c0-1-0.5-2.2-1.7-2.2C114.1,302.1,113.6,303.2,113.6,304.3z"/>
	<path d="M124.8,304.3c0,2.1-1.5,3.1-2.9,3.1c-1.6,0-2.8-1.2-2.8-3c0-1.9,1.3-3.1,2.9-3.1C123.6,301.3,124.8,302.5,124.8,304.3z
		 M120.2,304.3c0,1.3,0.7,2.2,1.8,2.2c1,0,1.8-0.9,1.8-2.3c0-1-0.5-2.2-1.7-2.2C120.7,302.1,120.2,303.2,120.2,304.3z"/>
	<path d="M126,306.1c0.3,0.2,0.9,0.4,1.4,0.4c0.8,0,1.1-0.4,1.1-0.9c0-0.5-0.3-0.8-1.1-1.1c-1-0.4-1.5-0.9-1.5-1.6
		c0-0.9,0.8-1.7,2-1.7c0.6,0,1.1,0.2,1.4,0.4l-0.3,0.8c-0.2-0.1-0.6-0.3-1.2-0.3c-0.6,0-1,0.4-1,0.8c0,0.5,0.3,0.7,1.1,1
		c1,0.4,1.5,0.9,1.5,1.8c0,1-0.8,1.7-2.2,1.7c-0.6,0-1.2-0.2-1.6-0.4L126,306.1z"/>
	<path d="M131.4,304.5c0,1.4,0.9,2,2,2c0.8,0,1.2-0.1,1.6-0.3l0.2,0.8c-0.4,0.2-1,0.4-1.9,0.4c-1.8,0-2.9-1.2-2.9-2.9s1-3.1,2.7-3.1
		c1.9,0,2.4,1.7,2.4,2.7c0,0.2,0,0.4,0,0.5H131.4z M134.5,303.7c0-0.7-0.3-1.7-1.5-1.7c-1.1,0-1.5,1-1.6,1.7H134.5z"/>
	<path d="M142.6,307.2l-0.1-0.7h0c-0.3,0.5-0.9,0.9-1.8,0.9c-1.2,0-1.8-0.8-1.8-1.7c0-1.4,1.2-2.2,3.5-2.2v-0.1
		c0-0.5-0.1-1.3-1.3-1.3c-0.5,0-1.1,0.2-1.5,0.4l-0.2-0.7c0.5-0.3,1.2-0.5,1.9-0.5c1.8,0,2.2,1.2,2.2,2.4v2.2c0,0.5,0,1,0.1,1.4
		H142.6z M142.5,304.2c-1.2,0-2.5,0.2-2.5,1.3c0,0.7,0.5,1,1,1c0.8,0,1.2-0.5,1.4-1c0-0.1,0.1-0.2,0.1-0.3V304.2z"/>
	<path d="M151.9,307c-0.3,0.1-0.9,0.3-1.7,0.3c-1.8,0-2.9-1.2-2.9-3c0-1.8,1.2-3.1,3.1-3.1c0.6,0,1.2,0.2,1.5,0.3l-0.2,0.8
		c-0.3-0.1-0.6-0.3-1.2-0.3c-1.3,0-2.1,1-2.1,2.2c0,1.3,0.9,2.2,2,2.2c0.6,0,1-0.2,1.3-0.3L151.9,307z"/>
	<path d="M153.1,298.7h1.1v8.5h-1.1V298.7z"/>
	<path d="M159.2,307.2l-0.1-0.7h0c-0.3,0.5-0.9,0.9-1.8,0.9c-1.2,0-1.8-0.8-1.8-1.7c0-1.4,1.2-2.2,3.5-2.2v-0.1
		c0-0.5-0.1-1.3-1.3-1.3c-0.5,0-1.1,0.2-1.5,0.4l-0.2-0.7c0.5-0.3,1.2-0.5,1.9-0.5c1.8,0,2.2,1.2,2.2,2.4v2.2c0,0.5,0,1,0.1,1.4
		H159.2z M159,304.2c-1.2,0-2.5,0.2-2.5,1.3c0,0.7,0.5,1,1,1c0.8,0,1.2-0.5,1.4-1c0-0.1,0.1-0.2,0.1-0.3V304.2z"/>
	<path d="M161.6,306.1c0.3,0.2,0.9,0.4,1.4,0.4c0.8,0,1.1-0.4,1.1-0.9c0-0.5-0.3-0.8-1.1-1.1c-1-0.4-1.5-0.9-1.5-1.6
		c0-0.9,0.8-1.7,2-1.7c0.6,0,1.1,0.2,1.4,0.4l-0.3,0.8c-0.2-0.1-0.6-0.3-1.2-0.3c-0.6,0-1,0.4-1,0.8c0,0.5,0.3,0.7,1.1,1
		c1,0.4,1.5,0.9,1.5,1.8c0,1-0.8,1.7-2.2,1.7c-0.6,0-1.2-0.2-1.6-0.4L161.6,306.1z"/>
	<path d="M166.3,306.1c0.3,0.2,0.9,0.4,1.4,0.4c0.8,0,1.1-0.4,1.1-0.9c0-0.5-0.3-0.8-1.1-1.1c-1-0.4-1.5-0.9-1.5-1.6
		c0-0.9,0.8-1.7,2-1.7c0.6,0,1.1,0.2,1.4,0.4l-0.3,0.8c-0.2-0.1-0.6-0.3-1.2-0.3c-0.6,0-1,0.4-1,0.8c0,0.5,0.3,0.7,1.1,1
		c1,0.4,1.5,0.9,1.5,1.8c0,1-0.8,1.7-2.2,1.7c-0.6,0-1.2-0.2-1.6-0.4L166.3,306.1z"/>
	<path d="M170.4,308.7c0.3-0.7,0.6-2,0.7-2.9l1.2-0.1c-0.3,1-0.8,2.4-1.1,2.9L170.4,308.7z"/>
	<path d="M176.6,301.4l0.8,3c0.2,0.6,0.3,1.2,0.4,1.8h0c0.1-0.6,0.3-1.2,0.5-1.8l0.9-3h0.9l0.9,2.9c0.2,0.7,0.4,1.3,0.5,1.9h0
		c0.1-0.6,0.3-1.2,0.4-1.9l0.8-2.9h1l-1.9,5.8h-1l-0.9-2.8c-0.2-0.6-0.4-1.2-0.5-1.9h0c-0.1,0.7-0.3,1.3-0.5,1.9l-0.9,2.8h-1
		l-1.8-5.8H176.6z"/>
	<path d="M185,298.7h1.1v3.6h0c0.2-0.3,0.4-0.6,0.8-0.7c0.3-0.2,0.7-0.3,1.1-0.3c0.8,0,2,0.5,2,2.5v3.5h-1.1v-3.3
		c0-0.9-0.3-1.7-1.3-1.7c-0.7,0-1.2,0.5-1.4,1.1c-0.1,0.1-0.1,0.3-0.1,0.5v3.5H185V298.7z"/>
	<path d="M192.8,299.8c0,0.4-0.3,0.6-0.7,0.6c-0.4,0-0.6-0.3-0.6-0.6c0-0.4,0.3-0.7,0.7-0.7C192.6,299.1,192.8,299.4,192.8,299.8z
		 M191.6,307.2v-5.8h1.1v5.8H191.6z"/>
	<path d="M198.6,307c-0.3,0.1-0.9,0.3-1.7,0.3c-1.8,0-2.9-1.2-2.9-3c0-1.8,1.2-3.1,3.1-3.1c0.6,0,1.2,0.2,1.5,0.3l-0.2,0.8
		c-0.3-0.1-0.6-0.3-1.2-0.3c-1.3,0-2.1,1-2.1,2.2c0,1.3,0.9,2.2,2,2.2c0.6,0,1-0.2,1.3-0.3L198.6,307z"/>
	<path d="M199.8,298.7h1.1v3.6h0c0.2-0.3,0.4-0.6,0.8-0.7c0.3-0.2,0.7-0.3,1.1-0.3c0.8,0,2,0.5,2,2.5v3.5h-1.1v-3.3
		c0-0.9-0.3-1.7-1.3-1.7c-0.7,0-1.2,0.5-1.4,1.1c-0.1,0.1-0.1,0.3-0.1,0.5v3.5h-1.1V298.7z"/>
	<path d="M210.2,299.8c0,0.4-0.3,0.6-0.7,0.6c-0.4,0-0.6-0.3-0.6-0.6c0-0.4,0.3-0.7,0.7-0.7C209.9,299.1,210.2,299.4,210.2,299.8z
		 M209,307.2v-5.8h1.1v5.8H209z"/>
	<path d="M211.7,306.1c0.3,0.2,0.9,0.4,1.4,0.4c0.8,0,1.1-0.4,1.1-0.9c0-0.5-0.3-0.8-1.1-1.1c-1-0.4-1.5-0.9-1.5-1.6
		c0-0.9,0.8-1.7,2-1.7c0.6,0,1.1,0.2,1.4,0.4l-0.3,0.8c-0.2-0.1-0.6-0.3-1.2-0.3c-0.6,0-1,0.4-1,0.8c0,0.5,0.3,0.7,1.1,1
		c1,0.4,1.5,0.9,1.5,1.8c0,1-0.8,1.7-2.2,1.7c-0.6,0-1.2-0.2-1.6-0.4L211.7,306.1z"/>
	<path d="M220.4,299.7v1.7h1.5v0.8h-1.5v3.1c0,0.7,0.2,1.1,0.8,1.1c0.3,0,0.5,0,0.6-0.1l0,0.8c-0.2,0.1-0.5,0.1-0.9,0.1
		c-0.5,0-0.9-0.2-1.1-0.4c-0.3-0.3-0.4-0.8-0.4-1.5v-3.2h-0.9v-0.8h0.9V300L220.4,299.7z"/>
	<path d="M223.1,298.7h1.1v3.6h0c0.2-0.3,0.4-0.6,0.8-0.7c0.3-0.2,0.7-0.3,1.1-0.3c0.8,0,2,0.5,2,2.5v3.5H227v-3.3
		c0-0.9-0.3-1.7-1.3-1.7c-0.7,0-1.2,0.5-1.4,1.1c-0.1,0.1-0.1,0.3-0.1,0.5v3.5h-1.1V298.7z"/>
	<path d="M230.3,304.5c0,1.4,0.9,2,2,2c0.8,0,1.2-0.1,1.6-0.3l0.2,0.8c-0.4,0.2-1,0.4-1.9,0.4c-1.8,0-2.9-1.2-2.9-2.9s1-3.1,2.7-3.1
		c1.9,0,2.4,1.7,2.4,2.7c0,0.2,0,0.4,0,0.5H230.3z M233.4,303.7c0-0.7-0.3-1.7-1.5-1.7c-1.1,0-1.5,1-1.6,1.7H233.4z"/>
	<path d="M241.5,307.2l-0.1-0.7h0c-0.3,0.5-0.9,0.9-1.8,0.9c-1.2,0-1.8-0.8-1.8-1.7c0-1.4,1.2-2.2,3.5-2.2v-0.1
		c0-0.5-0.1-1.3-1.3-1.3c-0.5,0-1.1,0.2-1.5,0.4l-0.2-0.7c0.5-0.3,1.2-0.5,1.9-0.5c1.8,0,2.2,1.2,2.2,2.4v2.2c0,0.5,0,1,0.1,1.4
		H241.5z M241.4,304.2c-1.2,0-2.5,0.2-2.5,1.3c0,0.7,0.5,1,1,1c0.8,0,1.2-0.5,1.4-1c0-0.1,0.1-0.2,0.1-0.3V304.2z"/>
	<path d="M244.1,303.2c0-0.7,0-1.3,0-1.8h0.9l0,1.1h0c0.3-0.8,0.9-1.3,1.6-1.3c0.1,0,0.2,0,0.3,0v1c-0.1,0-0.2,0-0.4,0
		c-0.7,0-1.3,0.6-1.4,1.4c0,0.1,0,0.3,0,0.5v3.1h-1V303.2z"/>
	<path d="M248.5,304.5c0,1.4,0.9,2,2,2c0.8,0,1.2-0.1,1.6-0.3l0.2,0.8c-0.4,0.2-1,0.4-1.9,0.4c-1.8,0-2.9-1.2-2.9-2.9s1-3.1,2.7-3.1
		c1.9,0,2.4,1.7,2.4,2.7c0,0.2,0,0.4,0,0.5H248.5z M251.6,303.7c0-0.7-0.3-1.7-1.5-1.7c-1.1,0-1.5,1-1.6,1.7H251.6z"/>
	<path d="M257.1,307.2l-0.1-0.7h0c-0.3,0.5-0.9,0.9-1.8,0.9c-1.2,0-1.8-0.8-1.8-1.7c0-1.4,1.2-2.2,3.5-2.2v-0.1
		c0-0.5-0.1-1.3-1.3-1.3c-0.5,0-1.1,0.2-1.5,0.4l-0.2-0.7c0.5-0.3,1.2-0.5,1.9-0.5c1.8,0,2.2,1.2,2.2,2.4v2.2c0,0.5,0,1,0.1,1.4
		H257.1z M257,304.2c-1.2,0-2.5,0.2-2.5,1.3c0,0.7,0.5,1,1,1c0.8,0,1.2-0.5,1.4-1c0-0.1,0.1-0.2,0.1-0.3V304.2z"/>
	<path d="M263.5,299.7v1.7h1.5v0.8h-1.5v3.1c0,0.7,0.2,1.1,0.8,1.1c0.3,0,0.5,0,0.6-0.1l0,0.8c-0.2,0.1-0.5,0.1-0.9,0.1
		c-0.5,0-0.9-0.2-1.1-0.4c-0.3-0.3-0.4-0.8-0.4-1.5v-3.2h-0.9v-0.8h0.9V300L263.5,299.7z"/>
	<path d="M266.2,298.7h1.1v3.6h0c0.2-0.3,0.4-0.6,0.8-0.7c0.3-0.2,0.7-0.3,1.1-0.3c0.8,0,2,0.5,2,2.5v3.5h-1.1v-3.3
		c0-0.9-0.3-1.7-1.3-1.7c-0.7,0-1.2,0.5-1.4,1.1c-0.1,0.1-0.1,0.3-0.1,0.5v3.5h-1.1V298.7z"/>
	<path d="M276.1,307.2l-0.1-0.7h0c-0.3,0.5-0.9,0.9-1.8,0.9c-1.2,0-1.8-0.8-1.8-1.7c0-1.4,1.2-2.2,3.5-2.2v-0.1
		c0-0.5-0.1-1.3-1.3-1.3c-0.5,0-1.1,0.2-1.5,0.4l-0.2-0.7c0.5-0.3,1.2-0.5,1.9-0.5c1.8,0,2.2,1.2,2.2,2.4v2.2c0,0.5,0,1,0.1,1.4
		H276.1z M275.9,304.2c-1.2,0-2.5,0.2-2.5,1.3c0,0.7,0.5,1,1,1c0.8,0,1.2-0.5,1.4-1c0-0.1,0.1-0.2,0.1-0.3V304.2z"/>
	<path d="M279.9,299.7v1.7h1.5v0.8h-1.5v3.1c0,0.7,0.2,1.1,0.8,1.1c0.3,0,0.5,0,0.6-0.1l0,0.8c-0.2,0.1-0.5,0.1-0.9,0.1
		c-0.5,0-0.9-0.2-1.1-0.4c-0.3-0.3-0.4-0.8-0.4-1.5v-3.2h-0.9v-0.8h0.9V300L279.9,299.7z"/>
	<path d="M286.4,299.7v1.7h1.5v0.8h-1.5v3.1c0,0.7,0.2,1.1,0.8,1.1c0.3,0,0.5,0,0.6-0.1l0,0.8c-0.2,0.1-0.5,0.1-0.9,0.1
		c-0.5,0-0.9-0.2-1.1-0.4c-0.3-0.3-0.4-0.8-0.4-1.5v-3.2h-0.9v-0.8h0.9V300L286.4,299.7z"/>
	<path d="M289.1,298.7h1.1v3.6h0c0.2-0.3,0.4-0.6,0.8-0.7c0.3-0.2,0.7-0.3,1.1-0.3c0.8,0,2,0.5,2,2.5v3.5H293v-3.3
		c0-0.9-0.3-1.7-1.3-1.7c-0.7,0-1.2,0.5-1.4,1.1c-0.1,0.1-0.1,0.3-0.1,0.5v3.5h-1.1V298.7z"/>
	<path d="M296.3,304.5c0,1.4,0.9,2,2,2c0.8,0,1.2-0.1,1.6-0.3l0.2,0.8c-0.4,0.2-1,0.4-1.9,0.4c-1.8,0-2.9-1.2-2.9-2.9s1-3.1,2.7-3.1
		c1.9,0,2.4,1.7,2.4,2.7c0,0.2,0,0.4,0,0.5H296.3z M299.4,303.7c0-0.7-0.3-1.7-1.5-1.7c-1.1,0-1.5,1-1.6,1.7H299.4z"/>
	<path d="M304.9,304.5c0,1.4,0.9,2,2,2c0.8,0,1.2-0.1,1.6-0.3l0.2,0.8c-0.4,0.2-1,0.4-1.9,0.4c-1.8,0-2.9-1.2-2.9-2.9s1-3.1,2.7-3.1
		c1.9,0,2.4,1.7,2.4,2.7c0,0.2,0,0.4,0,0.5H304.9z M308,303.7c0-0.7-0.3-1.7-1.5-1.7c-1.1,0-1.5,1-1.6,1.7H308z"/>
	<path d="M310.3,303c0-0.6,0-1.1,0-1.6h0.9l0.1,1h0c0.3-0.6,1-1.1,1.9-1.1c0.8,0,2.1,0.5,2.1,2.5v3.5h-1.1v-3.3
		c0-0.9-0.3-1.7-1.3-1.7c-0.7,0-1.2,0.5-1.4,1.1c0,0.1-0.1,0.3-0.1,0.5v3.5h-1.1V303z"/>
	<path d="M318.2,299.7v1.7h1.5v0.8h-1.5v3.1c0,0.7,0.2,1.1,0.8,1.1c0.3,0,0.5,0,0.6-0.1l0,0.8c-0.2,0.1-0.5,0.1-0.9,0.1
		c-0.5,0-0.9-0.2-1.1-0.4c-0.3-0.3-0.4-0.8-0.4-1.5v-3.2h-0.9v-0.8h0.9V300L318.2,299.7z"/>
	<path d="M320.9,303.2c0-0.7,0-1.3,0-1.8h0.9l0,1.1h0c0.3-0.8,0.9-1.3,1.6-1.3c0.1,0,0.2,0,0.3,0v1c-0.1,0-0.2,0-0.4,0
		c-0.7,0-1.3,0.6-1.4,1.4c0,0.1,0,0.3,0,0.5v3.1h-1V303.2z"/>
	<path d="M325.5,301.4l1.3,3.4c0.1,0.4,0.3,0.8,0.4,1.2h0c0.1-0.3,0.2-0.8,0.4-1.2l1.2-3.4h1.1l-1.6,4.1c-0.8,2-1.3,3-2,3.6
		c-0.5,0.5-1,0.6-1.3,0.7l-0.3-0.9c0.3-0.1,0.6-0.3,0.9-0.5c0.3-0.2,0.6-0.6,0.9-1.2c0-0.1,0.1-0.2,0.1-0.3c0-0.1,0-0.1-0.1-0.3
		l-2.1-5.3H325.5z"/>
	<path d="M60.4,314.2c0,0.4-0.3,0.6-0.7,0.6c-0.4,0-0.6-0.3-0.6-0.6c0-0.4,0.3-0.7,0.7-0.7C60.1,313.5,60.4,313.8,60.4,314.2z
		 M59.2,321.6v-5.8h1.1v5.8H59.2z"/>
	<path d="M61.9,320.5c0.3,0.2,0.9,0.4,1.4,0.4c0.8,0,1.1-0.4,1.1-0.9c0-0.5-0.3-0.8-1.1-1.1c-1-0.4-1.5-0.9-1.5-1.6
		c0-0.9,0.8-1.7,2-1.7c0.6,0,1.1,0.2,1.4,0.4l-0.3,0.8c-0.2-0.1-0.6-0.3-1.2-0.3c-0.6,0-1,0.4-1,0.8c0,0.5,0.3,0.7,1.1,1
		c1,0.4,1.5,0.9,1.5,1.8c0,1-0.8,1.7-2.2,1.7c-0.6,0-1.2-0.2-1.6-0.4L61.9,320.5z"/>
	<path d="M73.5,321.4c-0.3,0.1-0.9,0.3-1.7,0.3c-1.8,0-2.9-1.2-2.9-3c0-1.8,1.2-3.1,3.1-3.1c0.6,0,1.2,0.2,1.5,0.3l-0.2,0.8
		c-0.3-0.1-0.6-0.3-1.2-0.3c-1.3,0-2.1,1-2.1,2.2c0,1.3,0.9,2.2,2,2.2c0.6,0,1-0.2,1.3-0.3L73.5,321.4z"/>
	<path d="M79.9,318.6c0,2.1-1.5,3.1-2.9,3.1c-1.6,0-2.8-1.2-2.8-3c0-1.9,1.3-3.1,2.9-3.1C78.7,315.7,79.9,316.9,79.9,318.6z
		 M75.3,318.7c0,1.3,0.7,2.2,1.8,2.2c1,0,1.8-0.9,1.8-2.3c0-1-0.5-2.2-1.7-2.2C75.8,316.5,75.3,317.6,75.3,318.7z"/>
	<path d="M81.2,317.4c0-0.6,0-1.1,0-1.6h0.9l0.1,1h0c0.3-0.6,1-1.1,1.9-1.1c0.8,0,2.1,0.5,2.1,2.5v3.5h-1.1v-3.3
		c0-0.9-0.3-1.7-1.3-1.7c-0.7,0-1.2,0.5-1.4,1.1c0,0.1-0.1,0.3-0.1,0.5v3.5h-1.1V317.4z"/>
	<path d="M87.9,317.4c0-0.6,0-1.1,0-1.6h0.9l0.1,1h0c0.3-0.6,1-1.1,1.9-1.1c0.8,0,2.1,0.5,2.1,2.5v3.5h-1.1v-3.3
		c0-0.9-0.3-1.7-1.3-1.7c-0.7,0-1.2,0.5-1.4,1.1c0,0.1-0.1,0.3-0.1,0.5v3.5h-1.1V317.4z"/>
	<path d="M95.1,318.9c0,1.4,0.9,2,2,2c0.8,0,1.2-0.1,1.6-0.3l0.2,0.8c-0.4,0.2-1,0.4-1.9,0.4c-1.8,0-2.9-1.2-2.9-2.9s1-3.1,2.7-3.1
		c1.9,0,2.4,1.7,2.4,2.7c0,0.2,0,0.4,0,0.5H95.1z M98.2,318.1c0-0.7-0.3-1.7-1.5-1.7c-1.1,0-1.5,1-1.6,1.7H98.2z"/>
	<path d="M104.7,321.4c-0.3,0.1-0.9,0.3-1.7,0.3c-1.8,0-2.9-1.2-2.9-3c0-1.8,1.2-3.1,3.1-3.1c0.6,0,1.2,0.2,1.5,0.3l-0.2,0.8
		c-0.3-0.1-0.6-0.3-1.2-0.3c-1.3,0-2.1,1-2.1,2.2c0,1.3,0.9,2.2,2,2.2c0.6,0,1-0.2,1.3-0.3L104.7,321.4z"/>
	<path d="M107.3,314.1v1.7h1.5v0.8h-1.5v3.1c0,0.7,0.2,1.1,0.8,1.1c0.3,0,0.5,0,0.6-0.1l0,0.8c-0.2,0.1-0.5,0.1-0.9,0.1
		c-0.5,0-0.9-0.2-1.1-0.4c-0.3-0.3-0.4-0.8-0.4-1.5v-3.2h-0.9v-0.8h0.9v-1.4L107.3,314.1z"/>
	<path d="M110.6,318.9c0,1.4,0.9,2,2,2c0.8,0,1.2-0.1,1.6-0.3l0.2,0.8c-0.4,0.2-1,0.4-1.9,0.4c-1.8,0-2.9-1.2-2.9-2.9s1-3.1,2.7-3.1
		c1.9,0,2.4,1.7,2.4,2.7c0,0.2,0,0.4,0,0.5H110.6z M113.7,318.1c0-0.7-0.3-1.7-1.5-1.7c-1.1,0-1.5,1-1.6,1.7H113.7z"/>
	<path d="M121,313.1v7c0,0.5,0,1.1,0,1.5h-0.9l0-1h0c-0.3,0.6-1,1.1-2,1.1c-1.4,0-2.5-1.2-2.5-3c0-1.9,1.2-3.1,2.6-3.1
		c0.9,0,1.5,0.4,1.8,0.9h0v-3.5H121z M119.9,318.2c0-0.1,0-0.3,0-0.4c-0.2-0.7-0.7-1.2-1.5-1.2c-1.1,0-1.7,1-1.7,2.2
		c0,1.2,0.6,2.1,1.7,2.1c0.7,0,1.4-0.5,1.5-1.3c0-0.1,0-0.3,0-0.5V318.2z"/>
	<path d="M126.6,314.1v1.7h1.5v0.8h-1.5v3.1c0,0.7,0.2,1.1,0.8,1.1c0.3,0,0.5,0,0.6-0.1l0,0.8c-0.2,0.1-0.5,0.1-0.9,0.1
		c-0.5,0-0.9-0.2-1.1-0.4c-0.3-0.3-0.4-0.8-0.4-1.5v-3.2h-0.9v-0.8h0.9v-1.4L126.6,314.1z"/>
	<path d="M134.4,318.6c0,2.1-1.5,3.1-2.9,3.1c-1.6,0-2.8-1.2-2.8-3c0-1.9,1.3-3.1,2.9-3.1C133.3,315.7,134.4,316.9,134.4,318.6z
		 M129.8,318.7c0,1.3,0.7,2.2,1.8,2.2c1,0,1.8-0.9,1.8-2.3c0-1-0.5-2.2-1.7-2.2C130.4,316.5,129.8,317.6,129.8,318.7z"/>
	<path d="M135.2,321c0-0.4,0.3-0.8,0.7-0.8s0.7,0.3,0.7,0.8c0,0.4-0.3,0.8-0.7,0.8C135.5,321.7,135.2,321.4,135.2,321z"/>
	<path d="M60.3,342.3v8.1h-1v-8.1H60.3z"/>
	<path d="M62.2,346.2c0-0.6,0-1.1,0-1.6h0.9l0.1,1h0c0.3-0.6,1-1.1,1.9-1.1c0.8,0,2.1,0.5,2.1,2.5v3.5h-1.1v-3.3
		c0-0.9-0.3-1.7-1.3-1.7c-0.7,0-1.2,0.5-1.4,1.1c0,0.1-0.1,0.3-0.1,0.5v3.5h-1.1V346.2z"/>
	<path d="M72.7,342.9v1.7h1.5v0.8h-1.5v3.1c0,0.7,0.2,1.1,0.8,1.1c0.3,0,0.5,0,0.6-0.1l0,0.8c-0.2,0.1-0.5,0.1-0.9,0.1
		c-0.5,0-0.9-0.2-1.1-0.4c-0.3-0.3-0.4-0.8-0.4-1.5v-3.2h-0.9v-0.8h0.9v-1.4L72.7,342.9z"/>
	<path d="M75.4,341.9h1.1v3.6h0c0.2-0.3,0.4-0.6,0.8-0.7c0.3-0.2,0.7-0.3,1.1-0.3c0.8,0,2,0.5,2,2.5v3.5h-1.1v-3.3
		c0-0.9-0.3-1.7-1.3-1.7c-0.7,0-1.2,0.5-1.4,1.1c-0.1,0.1-0.1,0.3-0.1,0.5v3.5h-1.1V341.9z"/>
	<path d="M82.6,347.7c0,1.4,0.9,2,2,2c0.8,0,1.2-0.1,1.6-0.3l0.2,0.8c-0.4,0.2-1,0.4-1.9,0.4c-1.8,0-2.9-1.2-2.9-2.9s1-3.1,2.7-3.1
		c1.9,0,2.4,1.7,2.4,2.7c0,0.2,0,0.4,0,0.5H82.6z M85.7,346.9c0-0.7-0.3-1.7-1.5-1.7c-1.1,0-1.5,1-1.6,1.7H85.7z"/>
	<path d="M90.6,346.2c0-0.6,0-1.1,0-1.6h0.9l0.1,1h0c0.3-0.6,1-1.1,1.9-1.1c0.8,0,2.1,0.5,2.1,2.5v3.5h-1.1v-3.3
		c0-0.9-0.3-1.7-1.3-1.7c-0.7,0-1.2,0.5-1.4,1.1c0,0.1-0.1,0.3-0.1,0.5v3.5h-1.1V346.2z"/>
	<path d="M102.1,348.8c0,0.6,0,1.1,0,1.6h-0.9l-0.1-0.9h0c-0.3,0.5-0.9,1.1-1.9,1.1c-0.9,0-2-0.5-2-2.5v-3.4h1.1v3.2
		c0,1.1,0.3,1.8,1.3,1.8c0.7,0,1.2-0.5,1.4-1c0.1-0.2,0.1-0.3,0.1-0.5v-3.6h1.1V348.8z"/>
	<path d="M103.9,346.2c0-0.6,0-1.1,0-1.6h0.9l0,0.9h0c0.3-0.6,0.9-1.1,1.8-1.1c0.8,0,1.4,0.5,1.6,1.2h0c0.2-0.3,0.4-0.6,0.6-0.8
		c0.3-0.3,0.7-0.4,1.3-0.4c0.8,0,1.9,0.5,1.9,2.5v3.4h-1v-3.3c0-1.1-0.4-1.8-1.3-1.8c-0.6,0-1.1,0.4-1.2,1c0,0.1-0.1,0.3-0.1,0.5
		v3.6h-1v-3.5c0-0.9-0.4-1.6-1.2-1.6c-0.7,0-1.1,0.5-1.3,1.1c-0.1,0.2-0.1,0.3-0.1,0.5v3.5h-1V346.2z"/>
	<path d="M114.5,347.7c0,1.4,0.9,2,2,2c0.8,0,1.2-0.1,1.6-0.3l0.2,0.8c-0.4,0.2-1,0.4-1.9,0.4c-1.8,0-2.9-1.2-2.9-2.9s1-3.1,2.7-3.1
		c1.9,0,2.4,1.7,2.4,2.7c0,0.2,0,0.4,0,0.5H114.5z M117.6,346.9c0-0.7-0.3-1.7-1.5-1.7c-1.1,0-1.5,1-1.6,1.7H117.6z"/>
	<path d="M119.9,346.4c0-0.7,0-1.3,0-1.8h0.9l0,1.1h0c0.3-0.8,0.9-1.3,1.6-1.3c0.1,0,0.2,0,0.3,0v1c-0.1,0-0.2,0-0.4,0
		c-0.7,0-1.3,0.6-1.4,1.4c0,0.1,0,0.3,0,0.5v3.1h-1V346.4z"/>
	<path d="M125,343c0,0.4-0.3,0.6-0.7,0.6c-0.4,0-0.6-0.3-0.6-0.6c0-0.4,0.3-0.7,0.7-0.7C124.8,342.3,125,342.6,125,343z
		 M123.9,350.4v-5.8h1.1v5.8H123.9z"/>
	<path d="M130.8,350.2c-0.3,0.1-0.9,0.3-1.7,0.3c-1.8,0-2.9-1.2-2.9-3c0-1.8,1.2-3.1,3.1-3.1c0.6,0,1.2,0.2,1.5,0.3l-0.2,0.8
		c-0.3-0.1-0.6-0.3-1.2-0.3c-1.3,0-2.1,1-2.1,2.2c0,1.3,0.9,2.2,2,2.2c0.6,0,1-0.2,1.3-0.3L130.8,350.2z"/>
	<path d="M134.7,350.4v-5h-0.8v-0.8h0.8v-0.3c0-1.5,0.9-2.5,2.5-2.5c0.5,0,1.2,0.2,1.5,0.4l-0.3,0.8c-0.3-0.2-0.7-0.3-1.2-0.3
		c-1.1,0-1.4,0.8-1.4,1.7v0.3h3.4v5.8h-1v-5h-2.3v5H134.7z"/>
	<path d="M141.4,347.7c0,1.4,0.9,2,2,2c0.8,0,1.2-0.1,1.6-0.3l0.2,0.8c-0.4,0.2-1,0.4-1.9,0.4c-1.8,0-2.9-1.2-2.9-2.9s1-3.1,2.7-3.1
		c1.9,0,2.4,1.7,2.4,2.7c0,0.2,0,0.4,0,0.5H141.4z M144.5,346.9c0-0.7-0.3-1.7-1.5-1.7c-1.1,0-1.5,1-1.6,1.7H144.5z"/>
	<path d="M146.9,341.9h1.1v8.5h-1.1V341.9z"/>
	<path d="M154.7,341.9v7c0,0.5,0,1.1,0,1.5h-0.9l0-1h0c-0.3,0.6-1,1.1-2,1.1c-1.4,0-2.5-1.2-2.5-3c0-1.9,1.2-3.1,2.6-3.1
		c0.9,0,1.5,0.4,1.8,0.9h0v-3.5H154.7z M153.7,347c0-0.1,0-0.3,0-0.4c-0.2-0.7-0.7-1.2-1.5-1.2c-1.1,0-1.7,1-1.7,2.2
		c0,1.2,0.6,2.1,1.7,2.1c0.7,0,1.4-0.5,1.5-1.3c0-0.1,0-0.3,0-0.5V347z"/>
	<path d="M155.7,351.9c0.3-0.7,0.6-2,0.7-2.9l1.2-0.1c-0.3,1-0.8,2.4-1.1,2.9L155.7,351.9z"/>
	<path d="M161.8,344.6l1.3,3.4c0.1,0.4,0.3,0.8,0.4,1.2h0c0.1-0.3,0.2-0.8,0.4-1.2l1.2-3.4h1.1l-1.6,4.1c-0.8,2-1.3,3-2,3.6
		c-0.5,0.5-1,0.6-1.3,0.7l-0.3-0.9c0.3-0.1,0.6-0.3,0.9-0.5c0.3-0.2,0.6-0.6,0.9-1.2c0-0.1,0.1-0.2,0.1-0.3c0-0.1,0-0.1-0.1-0.3
		l-2.1-5.3H161.8z"/>
	<path d="M172.2,347.5c0,2.1-1.5,3.1-2.9,3.1c-1.6,0-2.8-1.2-2.8-3c0-1.9,1.3-3.1,2.9-3.1C171,344.5,172.2,345.7,172.2,347.5z
		 M167.6,347.5c0,1.3,0.7,2.2,1.8,2.2c1,0,1.8-0.9,1.8-2.3c0-1-0.5-2.2-1.7-2.2C168.1,345.3,167.6,346.4,167.6,347.5z"/>
	<path d="M178.4,348.8c0,0.6,0,1.1,0,1.6h-0.9l-0.1-0.9h0c-0.3,0.5-0.9,1.1-1.9,1.1c-0.9,0-2-0.5-2-2.5v-3.4h1.1v3.2
		c0,1.1,0.3,1.8,1.3,1.8c0.7,0,1.2-0.5,1.4-1c0.1-0.2,0.1-0.3,0.1-0.5v-3.6h1.1V348.8z"/>
	<path d="M186.8,350.2c-0.3,0.1-0.9,0.3-1.7,0.3c-1.8,0-2.9-1.2-2.9-3c0-1.8,1.2-3.1,3.1-3.1c0.6,0,1.2,0.2,1.5,0.3l-0.2,0.8
		c-0.3-0.1-0.6-0.3-1.2-0.3c-1.3,0-2.1,1-2.1,2.2c0,1.3,0.9,2.2,2,2.2c0.6,0,1-0.2,1.3-0.3L186.8,350.2z"/>
	<path d="M191.2,350.4l-0.1-0.7h0c-0.3,0.5-0.9,0.9-1.8,0.9c-1.2,0-1.8-0.8-1.8-1.7c0-1.4,1.2-2.2,3.5-2.2v-0.1
		c0-0.5-0.1-1.3-1.3-1.3c-0.5,0-1.1,0.2-1.5,0.4L188,345c0.5-0.3,1.2-0.5,1.9-0.5c1.8,0,2.2,1.2,2.2,2.4v2.2c0,0.5,0,1,0.1,1.4
		H191.2z M191.1,347.4c-1.2,0-2.5,0.2-2.5,1.3c0,0.7,0.5,1,1,1c0.8,0,1.2-0.5,1.4-1c0-0.1,0.1-0.2,0.1-0.3V347.4z"/>
	<path d="M193.8,346.2c0-0.6,0-1.1,0-1.6h0.9l0.1,1h0c0.3-0.6,1-1.1,1.9-1.1c0.8,0,2.1,0.5,2.1,2.5v3.5h-1.1v-3.3
		c0-0.9-0.3-1.7-1.3-1.7c-0.7,0-1.2,0.5-1.4,1.1c0,0.1-0.1,0.3-0.1,0.5v3.5h-1.1V346.2z"/>
	<path d="M207.2,350.2c-0.3,0.1-0.9,0.3-1.7,0.3c-1.8,0-2.9-1.2-2.9-3c0-1.8,1.2-3.1,3.1-3.1c0.6,0,1.2,0.2,1.5,0.3l-0.2,0.8
		c-0.3-0.1-0.6-0.3-1.2-0.3c-1.3,0-2.1,1-2.1,2.2c0,1.3,0.9,2.2,2,2.2c0.6,0,1-0.2,1.3-0.3L207.2,350.2z"/>
	<path d="M208.4,341.9h1.1v3.6h0c0.2-0.3,0.4-0.6,0.8-0.7c0.3-0.2,0.7-0.3,1.1-0.3c0.8,0,2,0.5,2,2.5v3.5h-1.1v-3.3
		c0-0.9-0.3-1.7-1.3-1.7c-0.7,0-1.2,0.5-1.4,1.1c-0.1,0.1-0.1,0.3-0.1,0.5v3.5h-1.1V341.9z"/>
	<path d="M220.3,347.5c0,2.1-1.5,3.1-2.9,3.1c-1.6,0-2.8-1.2-2.8-3c0-1.9,1.3-3.1,2.9-3.1C219.2,344.5,220.3,345.7,220.3,347.5z
		 M215.7,347.5c0,1.3,0.7,2.2,1.8,2.2c1,0,1.8-0.9,1.8-2.3c0-1-0.5-2.2-1.7-2.2C216.2,345.3,215.7,346.4,215.7,347.5z"/>
	<path d="M226.9,347.5c0,2.1-1.5,3.1-2.9,3.1c-1.6,0-2.8-1.2-2.8-3c0-1.9,1.3-3.1,2.9-3.1C225.8,344.5,226.9,345.7,226.9,347.5z
		 M222.3,347.5c0,1.3,0.7,2.2,1.8,2.2c1,0,1.8-0.9,1.8-2.3c0-1-0.5-2.2-1.7-2.2C222.8,345.3,222.3,346.4,222.3,347.5z"/>
	<path d="M228.1,349.3c0.3,0.2,0.9,0.4,1.4,0.4c0.8,0,1.1-0.4,1.1-0.9c0-0.5-0.3-0.8-1.1-1.1c-1-0.4-1.5-0.9-1.5-1.6
		c0-0.9,0.8-1.7,2-1.7c0.6,0,1.1,0.2,1.4,0.4l-0.3,0.8c-0.2-0.1-0.6-0.3-1.2-0.3c-0.6,0-1,0.4-1,0.8c0,0.5,0.3,0.7,1.1,1
		c1,0.4,1.5,0.9,1.5,1.8c0,1-0.8,1.7-2.2,1.7c-0.6,0-1.2-0.2-1.6-0.4L228.1,349.3z"/>
	<path d="M233.6,347.7c0,1.4,0.9,2,2,2c0.8,0,1.2-0.1,1.6-0.3l0.2,0.8c-0.4,0.2-1,0.4-1.9,0.4c-1.8,0-2.9-1.2-2.9-2.9s1-3.1,2.7-3.1
		c1.9,0,2.4,1.7,2.4,2.7c0,0.2,0,0.4,0,0.5H233.6z M236.7,346.9c0-0.7-0.3-1.7-1.5-1.7c-1.1,0-1.5,1-1.6,1.7H236.7z"/>
	<path d="M242.8,342.9v1.7h1.5v0.8h-1.5v3.1c0,0.7,0.2,1.1,0.8,1.1c0.3,0,0.5,0,0.6-0.1l0,0.8c-0.2,0.1-0.5,0.1-0.9,0.1
		c-0.5,0-0.9-0.2-1.1-0.4c-0.3-0.3-0.4-0.8-0.4-1.5v-3.2h-0.9v-0.8h0.9v-1.4L242.8,342.9z"/>
	<path d="M245.5,341.9h1.1v3.6h0c0.2-0.3,0.4-0.6,0.8-0.7c0.3-0.2,0.7-0.3,1.1-0.3c0.8,0,2,0.5,2,2.5v3.5h-1.1v-3.3
		c0-0.9-0.3-1.7-1.3-1.7c-0.7,0-1.2,0.5-1.4,1.1c-0.1,0.1-0.1,0.3-0.1,0.5v3.5h-1.1V341.9z"/>
	<path d="M252.8,347.7c0,1.4,0.9,2,2,2c0.8,0,1.2-0.1,1.6-0.3l0.2,0.8c-0.4,0.2-1,0.4-1.9,0.4c-1.8,0-2.9-1.2-2.9-2.9s1-3.1,2.7-3.1
		c1.9,0,2.4,1.7,2.4,2.7c0,0.2,0,0.4,0,0.5H252.8z M255.8,346.9c0-0.7-0.3-1.7-1.5-1.7c-1.1,0-1.5,1-1.6,1.7H255.8z"/>
	<path d="M263.9,350.4l-0.1-0.7h0c-0.3,0.5-0.9,0.9-1.8,0.9c-1.2,0-1.8-0.8-1.8-1.7c0-1.4,1.2-2.2,3.5-2.2v-0.1
		c0-0.5-0.1-1.3-1.3-1.3c-0.5,0-1.1,0.2-1.5,0.4l-0.2-0.7c0.5-0.3,1.2-0.5,1.9-0.5c1.8,0,2.2,1.2,2.2,2.4v2.2c0,0.5,0,1,0.1,1.4
		H263.9z M263.8,347.4c-1.2,0-2.5,0.2-2.5,1.3c0,0.7,0.5,1,1,1c0.8,0,1.2-0.5,1.4-1c0-0.1,0.1-0.2,0.1-0.3V347.4z"/>
	<path d="M266.5,346.2c0-0.6,0-1.1,0-1.6h0.9l0,0.9h0c0.3-0.6,0.9-1.1,1.8-1.1c0.8,0,1.4,0.5,1.6,1.2h0c0.2-0.3,0.4-0.6,0.6-0.8
		c0.3-0.3,0.7-0.4,1.3-0.4c0.8,0,1.9,0.5,1.9,2.5v3.4h-1v-3.3c0-1.1-0.4-1.8-1.3-1.8c-0.6,0-1.1,0.4-1.2,1c0,0.1-0.1,0.3-0.1,0.5
		v3.6h-1v-3.5c0-0.9-0.4-1.6-1.2-1.6c-0.7,0-1.1,0.5-1.3,1.1c-0.1,0.2-0.1,0.3-0.1,0.5v3.5h-1V346.2z"/>
	<path d="M281.8,347.5c0,2.1-1.5,3.1-2.9,3.1c-1.6,0-2.8-1.2-2.8-3c0-1.9,1.3-3.1,2.9-3.1C280.6,344.5,281.8,345.7,281.8,347.5z
		 M277.2,347.5c0,1.3,0.7,2.2,1.8,2.2c1,0,1.8-0.9,1.8-2.3c0-1-0.5-2.2-1.7-2.2C277.7,345.3,277.2,346.4,277.2,347.5z"/>
	<path d="M288,348.8c0,0.6,0,1.1,0,1.6h-0.9l-0.1-0.9h0c-0.3,0.5-0.9,1.1-1.9,1.1c-0.9,0-2-0.5-2-2.5v-3.4h1.1v3.2
		c0,1.1,0.3,1.8,1.3,1.8c0.7,0,1.2-0.5,1.4-1c0.1-0.2,0.1-0.3,0.1-0.5v-3.6h1.1V348.8z"/>
	<path d="M289.7,346.2c0-0.6,0-1.1,0-1.6h0.9l0.1,1h0c0.3-0.6,1-1.1,1.9-1.1c0.8,0,2.1,0.5,2.1,2.5v3.5h-1.1v-3.3
		c0-0.9-0.3-1.7-1.3-1.7c-0.7,0-1.2,0.5-1.4,1.1c0,0.1-0.1,0.3-0.1,0.5v3.5h-1.1V346.2z"/>
	<path d="M297.6,342.9v1.7h1.5v0.8h-1.5v3.1c0,0.7,0.2,1.1,0.8,1.1c0.3,0,0.5,0,0.6-0.1l0,0.8c-0.2,0.1-0.5,0.1-0.9,0.1
		c-0.5,0-0.9-0.2-1.1-0.4c-0.3-0.3-0.4-0.8-0.4-1.5v-3.2h-0.9v-0.8h0.9v-1.4L297.6,342.9z"/>
	<path d="M308.1,347.5c0,2.1-1.5,3.1-2.9,3.1c-1.6,0-2.8-1.2-2.8-3c0-1.9,1.3-3.1,2.9-3.1C307,344.5,308.1,345.7,308.1,347.5z
		 M303.5,347.5c0,1.3,0.7,2.2,1.8,2.2c1,0,1.8-0.9,1.8-2.3c0-1-0.5-2.2-1.7-2.2C304,345.3,303.5,346.4,303.5,347.5z"/>
	<path d="M309.5,350.4v-5h-0.8v-0.8h0.8v-0.3c0-0.8,0.2-1.6,0.7-2c0.4-0.4,0.9-0.5,1.4-0.5c0.4,0,0.7,0.1,0.9,0.2l-0.1,0.8
		c-0.2-0.1-0.4-0.1-0.7-0.1c-0.9,0-1.1,0.8-1.1,1.7v0.3h1.4v0.8h-1.4v5H309.5z"/>
	<path d="M316.1,347.7c0,1.4,0.9,2,2,2c0.8,0,1.2-0.1,1.6-0.3l0.2,0.8c-0.4,0.2-1,0.4-1.9,0.4c-1.8,0-2.9-1.2-2.9-2.9s1-3.1,2.7-3.1
		c1.9,0,2.4,1.7,2.4,2.7c0,0.2,0,0.4,0,0.5H316.1z M319.2,346.9c0-0.7-0.3-1.7-1.5-1.7c-1.1,0-1.5,1-1.6,1.7H319.2z"/>
	<path d="M321.5,346.2c0-0.6,0-1.1,0-1.6h0.9l0.1,1h0c0.3-0.6,1-1.1,1.9-1.1c0.8,0,2.1,0.5,2.1,2.5v3.5h-1.1v-3.3
		c0-0.9-0.3-1.7-1.3-1.7c-0.7,0-1.2,0.5-1.4,1.1c0,0.1-0.1,0.3-0.1,0.5v3.5h-1.1V346.2z"/>
	<path d="M329.4,342.9v1.7h1.5v0.8h-1.5v3.1c0,0.7,0.2,1.1,0.8,1.1c0.3,0,0.5,0,0.6-0.1l0,0.8c-0.2,0.1-0.5,0.1-0.9,0.1
		c-0.5,0-0.9-0.2-1.1-0.4c-0.3-0.3-0.4-0.8-0.4-1.5v-3.2h-0.9v-0.8h0.9v-1.4L329.4,342.9z"/>
	<path d="M332.1,346.4c0-0.7,0-1.3,0-1.8h0.9l0,1.1h0c0.3-0.8,0.9-1.3,1.6-1.3c0.1,0,0.2,0,0.3,0v1c-0.1,0-0.2,0-0.4,0
		c-0.7,0-1.3,0.6-1.4,1.4c0,0.1,0,0.3,0,0.5v3.1h-1V346.4z"/>
	<path d="M336.7,344.6l1.3,3.4c0.1,0.4,0.3,0.8,0.4,1.2h0c0.1-0.3,0.2-0.8,0.4-1.2l1.2-3.4h1.1l-1.6,4.1c-0.8,2-1.3,3-2,3.6
		c-0.5,0.5-1,0.6-1.3,0.7l-0.3-0.9c0.3-0.1,0.6-0.3,0.9-0.5c0.3-0.2,0.6-0.6,0.9-1.2c0-0.1,0.1-0.2,0.1-0.3c0-0.1,0-0.1-0.1-0.3
		l-2.1-5.3H336.7z"/>
	<path d="M341.7,349.3c0.3,0.2,0.9,0.4,1.4,0.4c0.8,0,1.1-0.4,1.1-0.9c0-0.5-0.3-0.8-1.1-1.1c-1-0.4-1.5-0.9-1.5-1.6
		c0-0.9,0.8-1.7,2-1.7c0.6,0,1.1,0.2,1.4,0.4l-0.3,0.8c-0.2-0.1-0.6-0.3-1.2-0.3c-0.6,0-1,0.4-1,0.8c0,0.5,0.3,0.7,1.1,1
		c1,0.4,1.5,0.9,1.5,1.8c0,1-0.8,1.7-2.2,1.7c-0.6,0-1.2-0.2-1.6-0.4L341.7,349.3z"/>
	<path d="M60.5,357.3v1.7H62v0.8h-1.5v3.1c0,0.7,0.2,1.1,0.8,1.1c0.3,0,0.5,0,0.6-0.1l0,0.8c-0.2,0.1-0.5,0.1-0.9,0.1
		c-0.5,0-0.9-0.2-1.1-0.4c-0.3-0.3-0.4-0.8-0.4-1.5v-3.2h-0.9V359h0.9v-1.4L60.5,357.3z"/>
	<path d="M68.4,361.8c0,2.1-1.5,3.1-2.9,3.1c-1.6,0-2.8-1.2-2.8-3c0-1.9,1.3-3.1,2.9-3.1C67.2,358.9,68.4,360.1,68.4,361.8z
		 M63.8,361.9c0,1.3,0.7,2.2,1.8,2.2c1,0,1.8-0.9,1.8-2.3c0-1-0.5-2.2-1.7-2.2C64.3,359.7,63.8,360.8,63.8,361.9z"/>
	<path d="M77.3,356.3v7c0,0.5,0,1.1,0,1.5h-0.9l0-1h0c-0.3,0.6-1,1.1-2,1.1c-1.4,0-2.5-1.2-2.5-3c0-1.9,1.2-3.1,2.6-3.1
		c0.9,0,1.5,0.4,1.8,0.9h0v-3.5H77.3z M76.2,361.4c0-0.1,0-0.3,0-0.4c-0.2-0.7-0.7-1.2-1.5-1.2c-1.1,0-1.7,1-1.7,2.2
		c0,1.2,0.6,2.1,1.7,2.1c0.7,0,1.4-0.5,1.5-1.3c0-0.1,0-0.3,0-0.5V361.4z"/>
	<path d="M80.2,357.4c0,0.4-0.3,0.6-0.7,0.6c-0.4,0-0.6-0.3-0.6-0.6c0-0.4,0.3-0.7,0.7-0.7C79.9,356.7,80.2,357,80.2,357.4z
		 M79,364.8V359h1.1v5.8H79z"/>
	<path d="M81.7,363.7c0.3,0.2,0.9,0.4,1.4,0.4c0.8,0,1.1-0.4,1.1-0.9c0-0.5-0.3-0.8-1.1-1.1c-1-0.4-1.5-0.9-1.5-1.6
		c0-0.9,0.8-1.7,2-1.7c0.6,0,1.1,0.2,1.4,0.4l-0.3,0.8c-0.2-0.1-0.6-0.3-1.2-0.3c-0.6,0-1,0.4-1,0.8c0,0.5,0.3,0.7,1.1,1
		c1,0.4,1.5,0.9,1.5,1.8c0,1-0.8,1.7-2.2,1.7c-0.6,0-1.2-0.2-1.6-0.4L81.7,363.7z"/>
	<path d="M86.6,360.9c0-0.7,0-1.3,0-1.9h0.9l0,1h0c0.4-0.7,1.1-1.1,2.1-1.1c1.4,0,2.5,1.2,2.5,3c0,2.1-1.3,3.1-2.6,3.1
		c-0.8,0-1.4-0.3-1.8-0.9h0v3.2h-1V360.9z M87.6,362.4c0,0.2,0,0.3,0,0.4c0.2,0.7,0.8,1.2,1.6,1.2c1.1,0,1.8-0.9,1.8-2.2
		c0-1.2-0.6-2.2-1.7-2.2c-0.7,0-1.4,0.5-1.6,1.3c0,0.1-0.1,0.3-0.1,0.4V362.4z"/>
	<path d="M93.4,356.3h1.1v8.5h-1.1V356.3z"/>
	<path d="M99.4,364.8l-0.1-0.7h0c-0.3,0.5-0.9,0.9-1.8,0.9c-1.2,0-1.8-0.8-1.8-1.7c0-1.4,1.2-2.2,3.5-2.2V361c0-0.5-0.1-1.3-1.3-1.3
		c-0.5,0-1.1,0.2-1.5,0.4l-0.2-0.7c0.5-0.3,1.2-0.5,1.9-0.5c1.8,0,2.2,1.2,2.2,2.4v2.2c0,0.5,0,1,0.1,1.4H99.4z M99.3,361.8
		c-1.2,0-2.5,0.2-2.5,1.3c0,0.7,0.5,1,1,1c0.8,0,1.2-0.5,1.4-1c0-0.1,0.1-0.2,0.1-0.3V361.8z"/>
	<path d="M102.3,359l1.3,3.4c0.1,0.4,0.3,0.8,0.4,1.2h0c0.1-0.3,0.2-0.8,0.4-1.2l1.2-3.4h1.1l-1.6,4.1c-0.8,2-1.3,3-2,3.6
		c-0.5,0.5-1,0.6-1.3,0.7l-0.3-0.9c0.3-0.1,0.6-0.3,0.9-0.5c0.3-0.2,0.6-0.6,0.9-1.2c0-0.1,0.1-0.2,0.1-0.3c0-0.1,0-0.1-0.1-0.3
		l-2.1-5.3H102.3z"/>
	<path d="M106.8,364.2c0-0.4,0.3-0.8,0.7-0.8s0.7,0.3,0.7,0.8c0,0.4-0.3,0.8-0.7,0.8C107.1,364.9,106.8,364.6,106.8,364.2z"/>
</g>
<g>
</g>
<g>
</g>
<g>
</g>
<g>
</g>
<g>
</g>
<g>
</g>
<g>
</g>
<g>
</g>
<g>
</g>
<g>
</g>
<g>
</g>
<g>
</g>
<g>
</g>
<g>
</g>
<g>
</g>
</svg>
