<svg xmlns="http://www.w3.org/2000/svg" viewBox="0 0 403 78.14"><defs><style>.aff6e23f-1035-467e-8f4b-3165f33fcffe{fill:none;}</style></defs><title>Asset 1</title><g id="7ffba83e-9bf6-4cb5-b237-6a98d5c1a476" data-name="Layer 2"><g id="b707be3c-e295-4b69-a033-afa90da390aa" data-name="Layer 1"><path d="M68,37.19,63.83,33a9.42,9.42,0,0,1-.21,2.28l4.14,4.14-.21.9-4.14-4.14a6.17,6.17,0,0,1-.55,1.59L66.93,42l-.41.69L62.45,38.5a12.88,12.88,0,0,1-.83,1.24l4,4.14-.55.62-4-4.21a9.49,9.49,0,0,1-1.24,1.1l4,4.28-.62.48-4.07-4.35a8.42,8.42,0,0,1-1.31.83L62,47l-.62.34L57.13,43l-1.31.62L60,48l-.76.28L55.06,44a13.81,13.81,0,0,1-1.59.48l4.28,4.49L57,49.2l-4.42-4.55a14.16,14.16,0,0,1-1.66.35l4.55,4.62-.9.21L50,45.13l-1.66.21,4.55,4.83-.9.14L47.4,45.47a16.87,16.87,0,0,1-1.79.07l4.69,4.9-1,.07-4.76-4.9H42.37l4.83,5h-1l-4.83-5H39.26L46.44,53v1.1l-4.69-4.9v1.93L46.44,56v1.1l-4.69-4.9V54.1l4.69,4.83V60L41.75,55.2v2L46.44,62v1.1l-4.69-4.69v1.93l4.83,5.18h-1l-4.76-5H38.85l4.76,5h-1l-4.76-5H35.88l4.76,5h-1l-4.76-5H33l4.69,5h-1l-4.76-5H30l4.76,5h-1l-4.76-5H26.84l4.76,5h-1l-4.76-5h-2l4.69,5h-1l-4.76-5H20.63l4.69,5h-1l-4.76-5H17.46l4.69,5h-1l-4.76-5H14.56l4.69,5h-1l-4.76-5H11.66l4.69,5h-1l-4.76-5h-2l4.83,5H12.21l-9.45-9.8v-13h7.31V34.22L2.76,26.77v-13h38c7,0,11.45,1.52,14.42,3.79A82.57,82.57,0,0,1,65.9,28.22l.48,1.45L62,24.91a16.43,16.43,0,0,1,1.31,3.38l4.28,4.42L67.76,34l-4.14-4.35.28,2.14L68,36.09ZM40.3,14.49H3.52V26.22h7.25V43.47H3.52V55.2H36.71V43.47H30.22V40.23h7.66c11.18,0,20.63-2.35,20.63-12.9C58.51,18.22,50.92,14.49,40.3,14.49ZM33.67,32.91H30.22V26.22h3.52c3.86,0,5.24,1,5.24,3.17C39,31.4,37.81,32.91,33.67,32.91Z" transform="translate(-0.37 -13.11)"/><path d="M135.86,62.93,131,57.82v2.48l4.76,5.24h-1.1l-4.62-5H128l4.62,5h-1l-4.76-5h-2l4.76,5h-1l-4.76-5h-1.93l4.69,5h-1l-4.76-5H119l4.48,5h-1l-4.76-5h-2l4.69,5h-1l-4.76-5h-2l4.76,5h-1l-4.76-5h-1.93l4.76,5h-1l-4.76-5h-1.79l4.69,5h-1l-4.76-5h-1.79l4.76,5h-1l-4.76-5h-1.79l4.69,5h-1l-4.76-5H98l4.69,5h-1l-4.76-5h-2l4.76,5h-1l-4.76-5H92l4.69,5h-1l-4.76-5H88.8l4.76,5h-1l-4.76-5H85.91l4.69,5h-1l-4.76-5h-2l4.69,5h-1l-4.76-5H80l4.76,5h-1l-4.76-5H77.21l4.69,5h-1l-9.45-9.87V42.78h7.24V34.36l-7.24-7.59v-13h54.37l10.07,10.42v1.1L131,20.42v2.07l4.83,5v1.1L131,23.67v2.14l4.83,5v1.17l-4.83-5v2l4.83,4.9v1.31l-4.83-5v2.28l4.83,5v1.24l-4.83-5v2l4.83,5.24h-1.17L130.07,36h-2.35l8.14,8.42v1.17l-4.83-5V43l4.83,5v1.17l-4.83-5v2.21l4.83,4.9v1.1L131,47.47v2.14l4.83,5v1.1L131,50.85v2.21l4.83,5v1.17l-4.83-5v2.42l4.83,5ZM125.24,55.2V35.47H110.13v8H98.88V39.61h8V30.08h-8V26.22h11.25v5.86h15.11V14.49H72.17V26.22h7.25V43.47H72.17V55.2Z" transform="translate(-0.37 -13.11)"/><path d="M219.63,36.57h-1l-4.83-5h-2.21l4.76,5h-1l-4.83-5h-1.93l4.83,5h-1l-4.69-4.69v2.07l4.76,5V40l-4.76-4.83v1.86l4.76,4.83V43l-4.76-4.9V40l4.76,4.9V46l-4.76-4.9v2.07l4.76,4.9v1.1l-4.76-4.9v1.79l4.76,4.9v1.1l-4.76-4.9v1.86l4.76,4.9v1.1l-4.76-4.9v1.73l4.76,4.76v1.1L207.62,53v1.73l4.76,4.9v1.1l-4.76-5v1.66l4.76,5v1.1l-4.76-5v1.79l4.9,5.24h-1l-4.76-5h-2.07l4.69,5h-1l-4.76-5h-2l4.69,5h-1l-4.76-5h-2l4.69,5h-1l-4.76-5h-1.93l4.69,5h-1l-4.76-5h-1.93l4.69,5h-1l-4.76-5h-1.93l4.69,5h-1l-4.76-5h-2.35l4.76,5h-1l-8.83-9-2.48-3.1v1.1l-4.69-4.76v1.73l4.69,4.83v1.1l-4.69-4.76v1.86l4.69,4.9v1.1l-4.69-4.9v1.79l4.69,4.9v1.1l-4.69-4.83v1.86l4.76,5.11h-1.1l-4.69-5h-2.42l4.76,5h-1l-4.76-5h-2l4.69,5h-1l-4.83-5h-2.28l4.69,5h-1l-4.76-5h-2.35l4.69,5h-1l-4.76-5h-2.48l4.69,5h-1l-4.76-5h-2.07l4.69,5h-1l-4.76-5h-2l4.83,5H154l-4.76-5h-2.14l4.76,5h-1l-9.45-9.8v-13h7.31V34.5l-7.31-7.73v-13h32.08l9.45,9.66V13.8h26.7l10,10.35v1.1l-4.76-4.9v2l4.76,4.9v1.1l-4.76-4.83v1.72l4.76,5v1.1l-4.76-4.9v1.86l4.76,5v1.1l-4.76-5v2ZM209.07,26.22V14.49H183.75V26.22h4.49v7L173.05,14.49H142.14V26.22h7.18V43.47h-7.18V55.2h26V43.47h-5.31V33.05l18,22.15h20.91v-29Zm-30.91,27-4.49-5.66v1Z" transform="translate(-0.37 -13.11)"/><path d="M280.76,43.06h-1l-4.83-5H273.1l4.76,5h-1l-4.76-5h-1.45l9.45,9.66-.07,1-4.76-4.83a9.35,9.35,0,0,1-.14,1.45l4.69,4.9-.21,1-4.76-4.9a9.16,9.16,0,0,1-.48,1.24l4.76,4.9-.28.76L274,48.3a9,9,0,0,1-.69,1.45l4.83,4.9-.41.76-4.76-5a14.78,14.78,0,0,1-.9,1.38l4.76,5-.48.62-4.76-4.9a8.37,8.37,0,0,1-1,1.17l4.83,5-.62.55-4.76-5-.9.9,4.76,5-.62.41-4.76-5-1,.83,4.76,5-.69.41-4.69-5c-.34.28-.69.48-1.1.76l4.76,5-.69.35-4.76-5-1.24.69,4.76,5-.76.28L263.17,59l-1.45.55,4.76,5-.83.21L261,59.82l-1.66.41,4.76,5-.76.28-4.83-5a10.7,10.7,0,0,1-1.59.34l4.76,5-.9.14-4.76-5-1.73.21,4.76,5-1,.07-4.76-5a15.63,15.63,0,0,1-1.79.07l4.69,5h-1l-4.83-5a14.74,14.74,0,0,1-1.86-.14l4.55,4.9-1.17-.14-4.69-4.83-1.93-.28,4.55,4.69-1.38-.35-4.42-4.55L241.85,60l3.93,4.14-1.38-.48-4-4.07a18.36,18.36,0,0,1-3.11-1.38l3.52,3.52-2-1.1c-7.94-7.18-11.18-11.52-12.9-14.7a23.77,23.77,0,0,1-2.83-11.39c0-12.77,9.45-21.39,22.29-21.39,5.31,0,9,1.59,11.25,3.52V13.8h14l10.07,10.42v1.1l-4.76-5V22l4.76,5v1.1l-4.76-4.9V25l4.76,5v1.1l-4.76-4.83v1.86l4.76,4.83v1.24l-4.76-4.76v2l4.76,4.83v1.24l-4.76-4.9v2l4.76,4.9v1.1l-4.76-4.9v2.14Zm-23-5.73c-.83,5.24-2.35,6.76-6,6.76-4.14,0-6-2.76-6-9.59,0-6.28,2.42-8.76,5.8-8.76,3.86,0,5.45,2.41,6.42,7.52h12.14V14.49H257.3v3.79c-2.42-2.83-6.9-4.48-11.94-4.48-12.14,0-21.46,8.76-21.46,20.7,0,13.46,9.87,21.6,25.12,21.6,13.94,0,20.7-8.35,21.46-17Zm-6.28,1.59v1.79L253.71,43a2.54,2.54,0,0,0,1.1-.62Zm.34-2.62-.28,1.59,3.86,3.93a4.18,4.18,0,0,0,.69-1.24Zm-.28,5.59.14,1.38a7.11,7.11,0,0,0,1.17-.07Zm1-7.73a7.32,7.32,0,0,0-.48,1.31l4.28,4.42a12.15,12.15,0,0,0,.34-1.52Zm5,2.28-3.79-3.93a5.5,5.5,0,0,0-.83,1l3.93,4,.21-1.1Zm2.14.21-2.48-2.55-.21-.9-1.52-1.45a6.09,6.09,0,0,0-1,.34l4.42,4.49Z" transform="translate(-0.37 -13.11)"/><path d="M331.27,65.55h-1l-4.76-5h-1.86l4.83,5h-1l-4.76-5h-1.93l4.83,5h-1l-4.76-5H318l4.83,5h-1l-4.76-5h-1.93l4.76,5h-1l-4.76-5h-1.93l4.76,5h-1l-4.76-5h-1.93l4.76,5h-1l-4.76-5h-1.93l4.76,5h-1l-4.76-5h-1.93l4.76,5h-1l-4.76-5h-1.93l4.76,5h-1l-4.76-5h-1.93l4.76,5h-1l-4.76-5h-1.72l4.83,5h-1l-4.76-5h-1.86l4.69,5h-1l-9.45-9.8v-13h7.31V34.5l-7.31-7.73v-13h35.19l10.14,10.63v1l-4.83-5v1.93l4.83,4.9v1l-4.83-4.83v1.73l4.83,5.11v1.1l-4.83-5.11v1.86l4.83,5.18v1.1l-4.83-5.17v2.07l4.83,5.24h-1l-4.69-5h-1.79l4.83,5h-1l-4.83-5H321l4.83,5h-1l-4.83-5v1.66l4.83,5v1.1l-4.83-5v1.79l4.83,5v1.1L320,37.4v1.66l4.83,5v1.1L320,40.23v1.59l11.32,11.59v1.1l-4.83-5v1.86l4.83,5v1.1l-4.83-5V54.3l4.83,5v1.1l-4.83-5v1.86l4.83,5v1.1l-4.83-5v2.07ZM320.57,55.2V43.47H313.4V26.22h7.18V14.49H286.69V26.22h7.18V43.47h-7.18V55.2Z" transform="translate(-0.37 -13.11)"/><path d="M401,65.55h-1l-4.69-5h-2l4.69,5h-1l-4.69-5h-2.14l4.69,5h-1l-4.69-5h-1.93l4.69,5h-1l-4.69-5h-1.93l4.69,5h-1l-4.69-5h-1.93l4.69,5h-1l-4.69-5h-1.93l4.69,5h-1l-4.69-5h-1.93l4.69,5h-1l-4.69-5h-1.93l4.69,5h-1l-4.69-5h-1.93l4.69,5h-1l-4.69-5h-1.93l4.69,5h-1l-4.69-5h-1.93l4.69,5h-1l-4.69-5h-1.93l4.69,5h-1l-4.69-5h-1.93l4.69,5h-1l-4.69-5h-1.93l4.69,5h-1l-4.69-5h-1.93l4.69,5h-1l-4.69-5h-1.93l4.69,5h-1l-4.69-5h-1.93l4.69,5h-1l-4.69-5h-1.93l4.69,5h-1l-9.45-9.8v-13H344V34.29l-7.18-7.52v-13h34.5l10,10.35v1.1l-4.69-4.83v2l4.69,4.83v1.1l-4.69-4.9v1.93l4.69,4.83v1.1L376.6,26.5v1.86l4.69,4.83v.76h9.52L401,44.44v1.1l-4.69-4.83V42.5L401,47.33v1.1l-4.69-4.83V45.4L401,50.23v1.1l-4.69-4.83v2.14L401,53.41v1.1l-4.69-4.83v1.79L401,56.3v1l-4.69-4.76v1.79L401,59.2v1.1l-4.69-4.83v1.79l4.69,4.9v1.1l-4.69-4.9v2.07ZM390.26,55.2V34.64H376.67v8.83H364.25V26.22h6.49V14.49H337.55V26.22h7.18V43.47h-7.18V55.2ZM375.91,37.67v-2L372,31.6H370Zm0,3V38.78l-5.8-6v1.93Zm0,2.07v-1l-5.8-6V37.6l4.83,5.11Zm-2,0-3.79-4.07V41l1.73,1.72Zm-3,0-.76-.76v.76Zm7-8.76-2.28-2.35h-2.48l2.83,3v-.62Zm3.1,0-4.35-4.42V31.6l2.35,2.35Z" transform="translate(-0.37 -13.11)"/><line class="aff6e23f-1035-467e-8f4b-3165f33fcffe" x1="91" y1="63.14" x2="91" y2="78.14"/><polygon points="100 64.14 100 77.14 0 77.14 100 64.14"/><polygon points="303 64.14 303 77.14 403 77.14 303 64.14"/><path d="M111.65,91.15c-3.72,0-5-1.07-7.6-1.07-1.22,0-1.65.52-1.65.73l-.42,0V84.59h.46a9.45,9.45,0,0,0,8.91,6.28c2.83,0,3.88-.89,3.88-1.8,0-3.62-13.38-3.13-13.38-8.31,0-2.45,3.21-4.61,8.87-4.61,3.34,0,4.35.78,6.08.78s2.15-.49,2.15-.83h.38v5.39h-.42c-.34-2.32-3.25-5.08-7.6-5.08-1.65,0-3.08.52-3.08,1.59,0,4,12.84,2.42,12.84,8.36C121.06,89,117.18,91.15,111.65,91.15Z" transform="translate(-0.37 -13.11)"/><path d="M134.82,91C128.28,91,123,87.69,123,83.6s5.28-7.45,11.82-7.45,11.86,3.33,11.86,7.45S141.37,91,134.82,91Zm0-14.59c-2.41,0-3.38.7-3.38,7.21s1,7.11,3.42,7.11,3.5-.29,3.5-7.21S136.89,76.44,134.78,76.44Z" transform="translate(-0.37 -13.11)"/><path d="M169,82.06h-.38l-.08-.47c-.25-2.14-3.29-4.69-7.6-4.69H159.4V83h1.1c2,0,4.22-1,4.22-2.6v-.29h.51v6.51h-.51v-.42c0-1.62-1.82-2.84-4.14-2.84H159.4V89c0,.89.42,1.33,1.65,1.33h1v.31H148v-.31h1.22c1.27,0,1.94-.21,1.94-1.33V78.1c0-.94-.46-1.2-1.65-1.2h-1.27v-.31H169Z" transform="translate(-0.37 -13.11)"/><path d="M195.16,82.61h-.42V82c0-2.11-3.67-5.08-6.63-5.08h-.42V89.28a1.14,1.14,0,0,0,1.22,1.09h1.77v.31H175.82v-.31h2.24a1.12,1.12,0,0,0,1.18-1V76.91h-.34c-2.53,0-6.8,2.79-6.8,5.18v.52h-.46v-6h23.52Z" transform="translate(-0.37 -13.11)"/><path d="M232.61,76.93h-.46c-1.9,0-3.59,1.35-4.9,4l-4.81,9.74h-4.64l-4.31-9.58L209,90.68h-4.39L198.83,78a2.1,2.1,0,0,0-2-1H196v-.34h12.46v.34H208c-.46,0-.76.16-.76.5a.74.74,0,0,0,0,.29l3.55,7.92,2.41-5.05L212,77.87a1.63,1.63,0,0,0-1.52-.94h-.38v-.34h12.12v.34h-.51c-.51,0-1,.21-1,.63a.9.9,0,0,0,.08.29L224.21,86l2.58-5.16a3.81,3.81,0,0,0,.46-1.75,2.26,2.26,0,0,0-2.41-2.19H224v-.34h8.61Z" transform="translate(-0.37 -13.11)"/><path d="M253.68,90.68H238.73v-.31h1.69c.76,0,1.18-.29,1.18-.76a1.15,1.15,0,0,0-.13-.47L239.2,84.8h-6.12l-1,2a3,3,0,0,0-.34,1.38c0,1.25,1,2.16,3,2.16h1v.31h-9.71v-.31h.55c2.36,0,4.05-2.11,5-3.93l5-9.85h7.3l7.05,13.08a1.66,1.66,0,0,0,1.6.7h1.14ZM239,84.41l-2.91-5.55-2.83,5.55Z" transform="translate(-0.37 -13.11)"/><path d="M279.64,86.33c0,3.54-1.35,4.56-5.66,4.56-3.5,0-5.45-1.41-5.45-2.89,0-.83.13-1.48.13-2.68s-.63-1.82-2.45-1.82h-1v5.91c0,.7.51,1,1.27,1h1.35v.31H254v-.31h1.22c1.05,0,1.56-.34,1.56-1V78c0-.86-.51-1.12-1.39-1.12H254v-.31h13.51c7.35,0,9.71,1.46,9.71,3.41s-2.45,3-6.84,3.28v.08c4.35.31,6.63.86,6.63,3.13v2.19a.8.8,0,0,0,.89.91c.63,0,1.39-.57,1.39-3.26Zm-13.72-9.43h-.72v6.25H266c2.36,0,3.08-.34,3.08-3.1C269,77.11,267.86,76.91,265.92,76.91Z" transform="translate(-0.37 -13.11)"/><path d="M302,90.68H279.26v-.34h2c1.22,0,1.9-.36,1.9-1.46V78.13c0-.94-.42-1.22-1.6-1.22h-1.31v-.31h20.69v5.47h-.38l0-.47c-.3-2.14-3.34-4.69-7.6-4.69h-1.14V83h.72c2,0,4.22-1.33,4.22-3v-.49h.51v7.61h-.51v-.55c0-1.62-1.86-3.23-4.14-3.23h-.8V89.8c0,.21.46.55,1.14.55h1.9c3.12,0,6.63-3.59,6.8-5.31l0-.65H302Z" transform="translate(-0.37 -13.11)"/></g></g></svg>